<?xml version="1.0" encoding="utf-8" standalone="no"?>
<!DOCTYPE svg PUBLIC "-//W3C//DTD SVG 1.1//EN"
  "http://www.w3.org/Graphics/SVG/1.1/DTD/svg11.dtd">
<svg xmlns:xlink="http://www.w3.org/1999/xlink" width="864pt" height="360pt" viewBox="0 0 864 360" xmlns="http://www.w3.org/2000/svg" version="1.1">
 <metadata>
  <rdf:RDF xmlns:dc="http://purl.org/dc/elements/1.1/" xmlns:cc="http://creativecommons.org/ns#" xmlns:rdf="http://www.w3.org/1999/02/22-rdf-syntax-ns#">
   <cc:Work>
    <dc:type rdf:resource="http://purl.org/dc/dcmitype/StillImage"/>
    <dc:date>2024-10-08T18:54:36.450169</dc:date>
    <dc:format>image/svg+xml</dc:format>
    <dc:creator>
     <cc:Agent>
      <dc:title>Matplotlib v3.9.2, https://matplotlib.org/</dc:title>
     </cc:Agent>
    </dc:creator>
   </cc:Work>
  </rdf:RDF>
 </metadata>
 <defs>
  <style type="text/css">*{stroke-linejoin: round; stroke-linecap: butt}</style>
 </defs>
 <g id="figure_1">
  <g id="patch_1">
   <path d="M 0 360 
L 864 360 
L 864 0 
L 0 0 
z
" style="fill: #ffffff"/>
  </g>
  <g id="axes_1">
   <g id="patch_2">
    <path d="M 69.846 293.124 
L 407.052 293.124 
L 407.052 40.416 
L 69.846 40.416 
z
" style="fill: #ffffff"/>
   </g>
   <g id="matplotlib.axis_1">
    <g id="xtick_1">
     <g id="line2d_1">
      <defs>
       <path id="m7292fa7e38" d="M 0 0 
L 0 4.8 
" style="stroke: #262626"/>
      </defs>
      <g>
       <use xlink:href="#m7292fa7e38" x="69.846" y="293.124" style="fill: #262626; stroke: #262626"/>
      </g>
     </g>
     <g id="text_1">
      <!-- 0.0 -->
      <g style="fill: #262626" transform="translate(57.614 314.02175) scale(0.176 -0.176)">
       <defs>
        <path id="ArialMT-30" d="M 266 2259 
Q 266 3072 433 3567 
Q 600 4063 929 4331 
Q 1259 4600 1759 4600 
Q 2128 4600 2406 4451 
Q 2684 4303 2865 4023 
Q 3047 3744 3150 3342 
Q 3253 2941 3253 2259 
Q 3253 1453 3087 958 
Q 2922 463 2592 192 
Q 2263 -78 1759 -78 
Q 1097 -78 719 397 
Q 266 969 266 2259 
z
M 844 2259 
Q 844 1131 1108 757 
Q 1372 384 1759 384 
Q 2147 384 2411 759 
Q 2675 1134 2675 2259 
Q 2675 3391 2411 3762 
Q 2147 4134 1753 4134 
Q 1366 4134 1134 3806 
Q 844 3388 844 2259 
z
" transform="scale(0.015625)"/>
        <path id="ArialMT-2e" d="M 581 0 
L 581 641 
L 1222 641 
L 1222 0 
L 581 0 
z
" transform="scale(0.015625)"/>
       </defs>
       <use xlink:href="#ArialMT-30"/>
       <use xlink:href="#ArialMT-2e" x="55.615234"/>
       <use xlink:href="#ArialMT-30" x="83.398438"/>
      </g>
     </g>
    </g>
    <g id="xtick_2">
     <g id="line2d_2">
      <g>
       <use xlink:href="#m7292fa7e38" x="159.476361" y="293.124" style="fill: #262626; stroke: #262626"/>
      </g>
     </g>
     <g id="text_2">
      <!-- 0.2 -->
      <g style="fill: #262626" transform="translate(147.244361 314.02175) scale(0.176 -0.176)">
       <defs>
        <path id="ArialMT-32" d="M 3222 541 
L 3222 0 
L 194 0 
Q 188 203 259 391 
Q 375 700 629 1000 
Q 884 1300 1366 1694 
Q 2113 2306 2375 2664 
Q 2638 3022 2638 3341 
Q 2638 3675 2398 3904 
Q 2159 4134 1775 4134 
Q 1369 4134 1125 3890 
Q 881 3647 878 3216 
L 300 3275 
Q 359 3922 746 4261 
Q 1134 4600 1788 4600 
Q 2447 4600 2831 4234 
Q 3216 3869 3216 3328 
Q 3216 3053 3103 2787 
Q 2991 2522 2730 2228 
Q 2469 1934 1863 1422 
Q 1356 997 1212 845 
Q 1069 694 975 541 
L 3222 541 
z
" transform="scale(0.015625)"/>
       </defs>
       <use xlink:href="#ArialMT-30"/>
       <use xlink:href="#ArialMT-2e" x="55.615234"/>
       <use xlink:href="#ArialMT-32" x="83.398438"/>
      </g>
     </g>
    </g>
    <g id="xtick_3">
     <g id="line2d_3">
      <g>
       <use xlink:href="#m7292fa7e38" x="249.106722" y="293.124" style="fill: #262626; stroke: #262626"/>
      </g>
     </g>
     <g id="text_3">
      <!-- 0.4 -->
      <g style="fill: #262626" transform="translate(236.874722 314.02175) scale(0.176 -0.176)">
       <defs>
        <path id="ArialMT-34" d="M 2069 0 
L 2069 1097 
L 81 1097 
L 81 1613 
L 2172 4581 
L 2631 4581 
L 2631 1613 
L 3250 1613 
L 3250 1097 
L 2631 1097 
L 2631 0 
L 2069 0 
z
M 2069 1613 
L 2069 3678 
L 634 1613 
L 2069 1613 
z
" transform="scale(0.015625)"/>
       </defs>
       <use xlink:href="#ArialMT-30"/>
       <use xlink:href="#ArialMT-2e" x="55.615234"/>
       <use xlink:href="#ArialMT-34" x="83.398438"/>
      </g>
     </g>
    </g>
    <g id="xtick_4">
     <g id="line2d_4">
      <g>
       <use xlink:href="#m7292fa7e38" x="338.737083" y="293.124" style="fill: #262626; stroke: #262626"/>
      </g>
     </g>
     <g id="text_4">
      <!-- 0.6 -->
      <g style="fill: #262626" transform="translate(326.505083 314.02175) scale(0.176 -0.176)">
       <defs>
        <path id="ArialMT-36" d="M 3184 3459 
L 2625 3416 
Q 2550 3747 2413 3897 
Q 2184 4138 1850 4138 
Q 1581 4138 1378 3988 
Q 1113 3794 959 3422 
Q 806 3050 800 2363 
Q 1003 2672 1297 2822 
Q 1591 2972 1913 2972 
Q 2475 2972 2870 2558 
Q 3266 2144 3266 1488 
Q 3266 1056 3080 686 
Q 2894 316 2569 119 
Q 2244 -78 1831 -78 
Q 1128 -78 684 439 
Q 241 956 241 2144 
Q 241 3472 731 4075 
Q 1159 4600 1884 4600 
Q 2425 4600 2770 4297 
Q 3116 3994 3184 3459 
z
M 888 1484 
Q 888 1194 1011 928 
Q 1134 663 1356 523 
Q 1578 384 1822 384 
Q 2178 384 2434 671 
Q 2691 959 2691 1453 
Q 2691 1928 2437 2201 
Q 2184 2475 1800 2475 
Q 1419 2475 1153 2201 
Q 888 1928 888 1484 
z
" transform="scale(0.015625)"/>
       </defs>
       <use xlink:href="#ArialMT-30"/>
       <use xlink:href="#ArialMT-2e" x="55.615234"/>
       <use xlink:href="#ArialMT-36" x="83.398438"/>
      </g>
     </g>
    </g>
    <g id="text_5">
     <!-- Similarity -->
     <g style="fill: #262626" transform="translate(199.515 335.49675) scale(0.192 -0.192)">
      <defs>
       <path id="ArialMT-53" d="M 288 1472 
L 859 1522 
Q 900 1178 1048 958 
Q 1197 738 1509 602 
Q 1822 466 2213 466 
Q 2559 466 2825 569 
Q 3091 672 3220 851 
Q 3350 1031 3350 1244 
Q 3350 1459 3225 1620 
Q 3100 1781 2813 1891 
Q 2628 1963 1997 2114 
Q 1366 2266 1113 2400 
Q 784 2572 623 2826 
Q 463 3081 463 3397 
Q 463 3744 659 4045 
Q 856 4347 1234 4503 
Q 1613 4659 2075 4659 
Q 2584 4659 2973 4495 
Q 3363 4331 3572 4012 
Q 3781 3694 3797 3291 
L 3216 3247 
Q 3169 3681 2898 3903 
Q 2628 4125 2100 4125 
Q 1550 4125 1298 3923 
Q 1047 3722 1047 3438 
Q 1047 3191 1225 3031 
Q 1400 2872 2139 2705 
Q 2878 2538 3153 2413 
Q 3553 2228 3743 1945 
Q 3934 1663 3934 1294 
Q 3934 928 3725 604 
Q 3516 281 3123 101 
Q 2731 -78 2241 -78 
Q 1619 -78 1198 103 
Q 778 284 539 648 
Q 300 1013 288 1472 
z
" transform="scale(0.015625)"/>
       <path id="ArialMT-69" d="M 425 3934 
L 425 4581 
L 988 4581 
L 988 3934 
L 425 3934 
z
M 425 0 
L 425 3319 
L 988 3319 
L 988 0 
L 425 0 
z
" transform="scale(0.015625)"/>
       <path id="ArialMT-6d" d="M 422 0 
L 422 3319 
L 925 3319 
L 925 2853 
Q 1081 3097 1340 3245 
Q 1600 3394 1931 3394 
Q 2300 3394 2536 3241 
Q 2772 3088 2869 2813 
Q 3263 3394 3894 3394 
Q 4388 3394 4653 3120 
Q 4919 2847 4919 2278 
L 4919 0 
L 4359 0 
L 4359 2091 
Q 4359 2428 4304 2576 
Q 4250 2725 4106 2815 
Q 3963 2906 3769 2906 
Q 3419 2906 3187 2673 
Q 2956 2441 2956 1928 
L 2956 0 
L 2394 0 
L 2394 2156 
Q 2394 2531 2256 2718 
Q 2119 2906 1806 2906 
Q 1569 2906 1367 2781 
Q 1166 2656 1075 2415 
Q 984 2175 984 1722 
L 984 0 
L 422 0 
z
" transform="scale(0.015625)"/>
       <path id="ArialMT-6c" d="M 409 0 
L 409 4581 
L 972 4581 
L 972 0 
L 409 0 
z
" transform="scale(0.015625)"/>
       <path id="ArialMT-61" d="M 2588 409 
Q 2275 144 1986 34 
Q 1697 -75 1366 -75 
Q 819 -75 525 192 
Q 231 459 231 875 
Q 231 1119 342 1320 
Q 453 1522 633 1644 
Q 813 1766 1038 1828 
Q 1203 1872 1538 1913 
Q 2219 1994 2541 2106 
Q 2544 2222 2544 2253 
Q 2544 2597 2384 2738 
Q 2169 2928 1744 2928 
Q 1347 2928 1158 2789 
Q 969 2650 878 2297 
L 328 2372 
Q 403 2725 575 2942 
Q 747 3159 1072 3276 
Q 1397 3394 1825 3394 
Q 2250 3394 2515 3294 
Q 2781 3194 2906 3042 
Q 3031 2891 3081 2659 
Q 3109 2516 3109 2141 
L 3109 1391 
Q 3109 606 3145 398 
Q 3181 191 3288 0 
L 2700 0 
Q 2613 175 2588 409 
z
M 2541 1666 
Q 2234 1541 1622 1453 
Q 1275 1403 1131 1340 
Q 988 1278 909 1158 
Q 831 1038 831 891 
Q 831 666 1001 516 
Q 1172 366 1500 366 
Q 1825 366 2078 508 
Q 2331 650 2450 897 
Q 2541 1088 2541 1459 
L 2541 1666 
z
" transform="scale(0.015625)"/>
       <path id="ArialMT-72" d="M 416 0 
L 416 3319 
L 922 3319 
L 922 2816 
Q 1116 3169 1280 3281 
Q 1444 3394 1641 3394 
Q 1925 3394 2219 3213 
L 2025 2691 
Q 1819 2813 1613 2813 
Q 1428 2813 1281 2702 
Q 1134 2591 1072 2394 
Q 978 2094 978 1738 
L 978 0 
L 416 0 
z
" transform="scale(0.015625)"/>
       <path id="ArialMT-74" d="M 1650 503 
L 1731 6 
Q 1494 -44 1306 -44 
Q 1000 -44 831 53 
Q 663 150 594 308 
Q 525 466 525 972 
L 525 2881 
L 113 2881 
L 113 3319 
L 525 3319 
L 525 4141 
L 1084 4478 
L 1084 3319 
L 1650 3319 
L 1650 2881 
L 1084 2881 
L 1084 941 
Q 1084 700 1114 631 
Q 1144 563 1211 522 
Q 1278 481 1403 481 
Q 1497 481 1650 503 
z
" transform="scale(0.015625)"/>
       <path id="ArialMT-79" d="M 397 -1278 
L 334 -750 
Q 519 -800 656 -800 
Q 844 -800 956 -737 
Q 1069 -675 1141 -563 
Q 1194 -478 1313 -144 
Q 1328 -97 1363 -6 
L 103 3319 
L 709 3319 
L 1400 1397 
Q 1534 1031 1641 628 
Q 1738 1016 1872 1384 
L 2581 3319 
L 3144 3319 
L 1881 -56 
Q 1678 -603 1566 -809 
Q 1416 -1088 1222 -1217 
Q 1028 -1347 759 -1347 
Q 597 -1347 397 -1278 
z
" transform="scale(0.015625)"/>
      </defs>
      <use xlink:href="#ArialMT-53"/>
      <use xlink:href="#ArialMT-69" x="66.699219"/>
      <use xlink:href="#ArialMT-6d" x="88.916016"/>
      <use xlink:href="#ArialMT-69" x="172.216797"/>
      <use xlink:href="#ArialMT-6c" x="194.433594"/>
      <use xlink:href="#ArialMT-61" x="216.650391"/>
      <use xlink:href="#ArialMT-72" x="272.265625"/>
      <use xlink:href="#ArialMT-69" x="305.566406"/>
      <use xlink:href="#ArialMT-74" x="327.783203"/>
      <use xlink:href="#ArialMT-79" x="355.566406"/>
     </g>
    </g>
   </g>
   <g id="matplotlib.axis_2">
    <g id="ytick_1">
     <g id="line2d_5">
      <defs>
       <path id="m1c8384b4b3" d="M 0 0 
L -4.8 0 
" style="stroke: #262626"/>
      </defs>
      <g>
       <use xlink:href="#m1c8384b4b3" x="69.846" y="293.124" style="fill: #262626; stroke: #262626"/>
      </g>
     </g>
     <g id="text_6">
      <!-- 0 -->
      <g style="fill: #262626" transform="translate(51.75875 299.422875) scale(0.176 -0.176)">
       <use xlink:href="#ArialMT-30"/>
      </g>
     </g>
    </g>
    <g id="ytick_2">
     <g id="line2d_6">
      <g>
       <use xlink:href="#m1c8384b4b3" x="69.846" y="253.011619" style="fill: #262626; stroke: #262626"/>
      </g>
     </g>
     <g id="text_7">
      <!-- 5 -->
      <g style="fill: #262626" transform="translate(51.75875 259.310494) scale(0.176 -0.176)">
       <defs>
        <path id="ArialMT-35" d="M 266 1200 
L 856 1250 
Q 922 819 1161 601 
Q 1400 384 1738 384 
Q 2144 384 2425 690 
Q 2706 997 2706 1503 
Q 2706 1984 2436 2262 
Q 2166 2541 1728 2541 
Q 1456 2541 1237 2417 
Q 1019 2294 894 2097 
L 366 2166 
L 809 4519 
L 3088 4519 
L 3088 3981 
L 1259 3981 
L 1013 2750 
Q 1425 3038 1878 3038 
Q 2478 3038 2890 2622 
Q 3303 2206 3303 1553 
Q 3303 931 2941 478 
Q 2500 -78 1738 -78 
Q 1113 -78 717 272 
Q 322 622 266 1200 
z
" transform="scale(0.015625)"/>
       </defs>
       <use xlink:href="#ArialMT-35"/>
      </g>
     </g>
    </g>
    <g id="ytick_3">
     <g id="line2d_7">
      <g>
       <use xlink:href="#m1c8384b4b3" x="69.846" y="212.899238" style="fill: #262626; stroke: #262626"/>
      </g>
     </g>
     <g id="text_8">
      <!-- 10 -->
      <g style="fill: #262626" transform="translate(41.9715 219.198113) scale(0.176 -0.176)">
       <defs>
        <path id="ArialMT-31" d="M 2384 0 
L 1822 0 
L 1822 3584 
Q 1619 3391 1289 3197 
Q 959 3003 697 2906 
L 697 3450 
Q 1169 3672 1522 3987 
Q 1875 4303 2022 4600 
L 2384 4600 
L 2384 0 
z
" transform="scale(0.015625)"/>
       </defs>
       <use xlink:href="#ArialMT-31"/>
       <use xlink:href="#ArialMT-30" x="55.615234"/>
      </g>
     </g>
    </g>
    <g id="ytick_4">
     <g id="line2d_8">
      <g>
       <use xlink:href="#m1c8384b4b3" x="69.846" y="172.786857" style="fill: #262626; stroke: #262626"/>
      </g>
     </g>
     <g id="text_9">
      <!-- 15 -->
      <g style="fill: #262626" transform="translate(41.9715 179.085732) scale(0.176 -0.176)">
       <use xlink:href="#ArialMT-31"/>
       <use xlink:href="#ArialMT-35" x="55.615234"/>
      </g>
     </g>
    </g>
    <g id="ytick_5">
     <g id="line2d_9">
      <g>
       <use xlink:href="#m1c8384b4b3" x="69.846" y="132.674476" style="fill: #262626; stroke: #262626"/>
      </g>
     </g>
     <g id="text_10">
      <!-- 20 -->
      <g style="fill: #262626" transform="translate(41.9715 138.973351) scale(0.176 -0.176)">
       <use xlink:href="#ArialMT-32"/>
       <use xlink:href="#ArialMT-30" x="55.615234"/>
      </g>
     </g>
    </g>
    <g id="ytick_6">
     <g id="line2d_10">
      <g>
       <use xlink:href="#m1c8384b4b3" x="69.846" y="92.562095" style="fill: #262626; stroke: #262626"/>
      </g>
     </g>
     <g id="text_11">
      <!-- 25 -->
      <g style="fill: #262626" transform="translate(41.9715 98.86097) scale(0.176 -0.176)">
       <use xlink:href="#ArialMT-32"/>
       <use xlink:href="#ArialMT-35" x="55.615234"/>
      </g>
     </g>
    </g>
    <g id="ytick_7">
     <g id="line2d_11">
      <g>
       <use xlink:href="#m1c8384b4b3" x="69.846" y="52.449714" style="fill: #262626; stroke: #262626"/>
      </g>
     </g>
     <g id="text_12">
      <!-- 30 -->
      <g style="fill: #262626" transform="translate(41.9715 58.748589) scale(0.176 -0.176)">
       <defs>
        <path id="ArialMT-33" d="M 269 1209 
L 831 1284 
Q 928 806 1161 595 
Q 1394 384 1728 384 
Q 2125 384 2398 659 
Q 2672 934 2672 1341 
Q 2672 1728 2419 1979 
Q 2166 2231 1775 2231 
Q 1616 2231 1378 2169 
L 1441 2663 
Q 1497 2656 1531 2656 
Q 1891 2656 2178 2843 
Q 2466 3031 2466 3422 
Q 2466 3731 2256 3934 
Q 2047 4138 1716 4138 
Q 1388 4138 1169 3931 
Q 950 3725 888 3313 
L 325 3413 
Q 428 3978 793 4289 
Q 1159 4600 1703 4600 
Q 2078 4600 2393 4439 
Q 2709 4278 2876 4000 
Q 3044 3722 3044 3409 
Q 3044 3113 2884 2869 
Q 2725 2625 2413 2481 
Q 2819 2388 3044 2092 
Q 3269 1797 3269 1353 
Q 3269 753 2831 336 
Q 2394 -81 1725 -81 
Q 1122 -81 723 278 
Q 325 638 269 1209 
z
" transform="scale(0.015625)"/>
       </defs>
       <use xlink:href="#ArialMT-33"/>
       <use xlink:href="#ArialMT-30" x="55.615234"/>
      </g>
     </g>
    </g>
    <g id="text_13">
     <!-- Count -->
     <g style="fill: #262626" transform="translate(34.1555 192.3855) rotate(-90) scale(0.192 -0.192)">
      <defs>
       <path id="ArialMT-43" d="M 3763 1606 
L 4369 1453 
Q 4178 706 3683 314 
Q 3188 -78 2472 -78 
Q 1731 -78 1267 223 
Q 803 525 561 1097 
Q 319 1669 319 2325 
Q 319 3041 592 3573 
Q 866 4106 1370 4382 
Q 1875 4659 2481 4659 
Q 3169 4659 3637 4309 
Q 4106 3959 4291 3325 
L 3694 3184 
Q 3534 3684 3231 3912 
Q 2928 4141 2469 4141 
Q 1941 4141 1586 3887 
Q 1231 3634 1087 3207 
Q 944 2781 944 2328 
Q 944 1744 1114 1308 
Q 1284 872 1643 656 
Q 2003 441 2422 441 
Q 2931 441 3284 734 
Q 3638 1028 3763 1606 
z
" transform="scale(0.015625)"/>
       <path id="ArialMT-6f" d="M 213 1659 
Q 213 2581 725 3025 
Q 1153 3394 1769 3394 
Q 2453 3394 2887 2945 
Q 3322 2497 3322 1706 
Q 3322 1066 3130 698 
Q 2938 331 2570 128 
Q 2203 -75 1769 -75 
Q 1072 -75 642 372 
Q 213 819 213 1659 
z
M 791 1659 
Q 791 1022 1069 705 
Q 1347 388 1769 388 
Q 2188 388 2466 706 
Q 2744 1025 2744 1678 
Q 2744 2294 2464 2611 
Q 2184 2928 1769 2928 
Q 1347 2928 1069 2612 
Q 791 2297 791 1659 
z
" transform="scale(0.015625)"/>
       <path id="ArialMT-75" d="M 2597 0 
L 2597 488 
Q 2209 -75 1544 -75 
Q 1250 -75 995 37 
Q 741 150 617 320 
Q 494 491 444 738 
Q 409 903 409 1263 
L 409 3319 
L 972 3319 
L 972 1478 
Q 972 1038 1006 884 
Q 1059 663 1231 536 
Q 1403 409 1656 409 
Q 1909 409 2131 539 
Q 2353 669 2445 892 
Q 2538 1116 2538 1541 
L 2538 3319 
L 3100 3319 
L 3100 0 
L 2597 0 
z
" transform="scale(0.015625)"/>
       <path id="ArialMT-6e" d="M 422 0 
L 422 3319 
L 928 3319 
L 928 2847 
Q 1294 3394 1984 3394 
Q 2284 3394 2536 3286 
Q 2788 3178 2913 3003 
Q 3038 2828 3088 2588 
Q 3119 2431 3119 2041 
L 3119 0 
L 2556 0 
L 2556 2019 
Q 2556 2363 2490 2533 
Q 2425 2703 2258 2804 
Q 2091 2906 1866 2906 
Q 1506 2906 1245 2678 
Q 984 2450 984 1813 
L 984 0 
L 422 0 
z
" transform="scale(0.015625)"/>
      </defs>
      <use xlink:href="#ArialMT-43"/>
      <use xlink:href="#ArialMT-6f" x="72.216797"/>
      <use xlink:href="#ArialMT-75" x="127.832031"/>
      <use xlink:href="#ArialMT-6e" x="183.447266"/>
      <use xlink:href="#ArialMT-74" x="239.0625"/>
     </g>
    </g>
   </g>
   <g id="patch_3">
    <path d="M 131.447394 293.124 
L 144.571423 293.124 
L 144.571423 228.94419 
L 131.447394 228.94419 
z
" clip-path="url(#pcb8a9aae2f)" style="fill: #bf3409; fill-opacity: 0.5; stroke: #ffffff; stroke-width: 0.8; stroke-linejoin: miter"/>
   </g>
   <g id="patch_4">
    <path d="M 144.571423 293.124 
L 157.695452 293.124 
L 157.695452 293.124 
L 144.571423 293.124 
z
" clip-path="url(#pcb8a9aae2f)" style="fill: #bf3409; fill-opacity: 0.5; stroke: #ffffff; stroke-width: 0.8; stroke-linejoin: miter"/>
   </g>
   <g id="patch_5">
    <path d="M 157.695452 293.124 
L 170.819481 293.124 
L 170.819481 212.899238 
L 157.695452 212.899238 
z
" clip-path="url(#pcb8a9aae2f)" style="fill: #bf3409; fill-opacity: 0.5; stroke: #ffffff; stroke-width: 0.8; stroke-linejoin: miter"/>
   </g>
   <g id="patch_6">
    <path d="M 170.819481 293.124 
L 183.94351 293.124 
L 183.94351 52.449714 
L 170.819481 52.449714 
z
" clip-path="url(#pcb8a9aae2f)" style="fill: #bf3409; fill-opacity: 0.5; stroke: #ffffff; stroke-width: 0.8; stroke-linejoin: miter"/>
   </g>
   <g id="patch_7">
    <path d="M 183.94351 293.124 
L 197.067539 293.124 
L 197.067539 148.719429 
L 183.94351 148.719429 
z
" clip-path="url(#pcb8a9aae2f)" style="fill: #bf3409; fill-opacity: 0.5; stroke: #ffffff; stroke-width: 0.8; stroke-linejoin: miter"/>
   </g>
   <g id="patch_8">
    <path d="M 197.067539 293.124 
L 210.191567 293.124 
L 210.191567 277.079048 
L 197.067539 277.079048 
z
" clip-path="url(#pcb8a9aae2f)" style="fill: #bf3409; fill-opacity: 0.5; stroke: #ffffff; stroke-width: 0.8; stroke-linejoin: miter"/>
   </g>
   <g id="patch_9">
    <path d="M 210.191567 293.124 
L 223.315596 293.124 
L 223.315596 253.011619 
L 210.191567 253.011619 
z
" clip-path="url(#pcb8a9aae2f)" style="fill: #bf3409; fill-opacity: 0.5; stroke: #ffffff; stroke-width: 0.8; stroke-linejoin: miter"/>
   </g>
   <g id="patch_10">
    <path d="M 223.315596 293.124 
L 236.439625 293.124 
L 236.439625 285.101524 
L 223.315596 285.101524 
z
" clip-path="url(#pcb8a9aae2f)" style="fill: #bf3409; fill-opacity: 0.5; stroke: #ffffff; stroke-width: 0.8; stroke-linejoin: miter"/>
   </g>
   <g id="patch_11">
    <path d="M 236.439625 293.124 
L 249.563654 293.124 
L 249.563654 293.124 
L 236.439625 293.124 
z
" clip-path="url(#pcb8a9aae2f)" style="fill: #bf3409; fill-opacity: 0.5; stroke: #ffffff; stroke-width: 0.8; stroke-linejoin: miter"/>
   </g>
   <g id="patch_12">
    <path d="M 249.563654 293.124 
L 262.687683 293.124 
L 262.687683 293.124 
L 249.563654 293.124 
z
" clip-path="url(#pcb8a9aae2f)" style="fill: #bf3409; fill-opacity: 0.5; stroke: #ffffff; stroke-width: 0.8; stroke-linejoin: miter"/>
   </g>
   <g id="patch_13">
    <path d="M 262.687683 293.124 
L 275.811712 293.124 
L 275.811712 293.124 
L 262.687683 293.124 
z
" clip-path="url(#pcb8a9aae2f)" style="fill: #bf3409; fill-opacity: 0.5; stroke: #ffffff; stroke-width: 0.8; stroke-linejoin: miter"/>
   </g>
   <g id="patch_14">
    <path d="M 275.811712 293.124 
L 288.93574 293.124 
L 288.93574 293.124 
L 275.811712 293.124 
z
" clip-path="url(#pcb8a9aae2f)" style="fill: #bf3409; fill-opacity: 0.5; stroke: #ffffff; stroke-width: 0.8; stroke-linejoin: miter"/>
   </g>
   <g id="patch_15">
    <path d="M 288.93574 293.124 
L 302.059769 293.124 
L 302.059769 293.124 
L 288.93574 293.124 
z
" clip-path="url(#pcb8a9aae2f)" style="fill: #bf3409; fill-opacity: 0.5; stroke: #ffffff; stroke-width: 0.8; stroke-linejoin: miter"/>
   </g>
   <g id="patch_16">
    <path d="M 302.059769 293.124 
L 315.183798 293.124 
L 315.183798 293.124 
L 302.059769 293.124 
z
" clip-path="url(#pcb8a9aae2f)" style="fill: #bf3409; fill-opacity: 0.5; stroke: #ffffff; stroke-width: 0.8; stroke-linejoin: miter"/>
   </g>
   <g id="patch_17">
    <path d="M 315.183798 293.124 
L 328.307827 293.124 
L 328.307827 293.124 
L 315.183798 293.124 
z
" clip-path="url(#pcb8a9aae2f)" style="fill: #bf3409; fill-opacity: 0.5; stroke: #ffffff; stroke-width: 0.8; stroke-linejoin: miter"/>
   </g>
   <g id="patch_18">
    <path d="M 328.307827 293.124 
L 341.431856 293.124 
L 341.431856 293.124 
L 328.307827 293.124 
z
" clip-path="url(#pcb8a9aae2f)" style="fill: #bf3409; fill-opacity: 0.5; stroke: #ffffff; stroke-width: 0.8; stroke-linejoin: miter"/>
   </g>
   <g id="patch_19">
    <path d="M 341.431856 293.124 
L 354.555885 293.124 
L 354.555885 293.124 
L 341.431856 293.124 
z
" clip-path="url(#pcb8a9aae2f)" style="fill: #bf3409; fill-opacity: 0.5; stroke: #ffffff; stroke-width: 0.8; stroke-linejoin: miter"/>
   </g>
   <g id="patch_20">
    <path d="M 354.555885 293.124 
L 367.679913 293.124 
L 367.679913 293.124 
L 354.555885 293.124 
z
" clip-path="url(#pcb8a9aae2f)" style="fill: #bf3409; fill-opacity: 0.5; stroke: #ffffff; stroke-width: 0.8; stroke-linejoin: miter"/>
   </g>
   <g id="patch_21">
    <path d="M 367.679913 293.124 
L 380.803942 293.124 
L 380.803942 293.124 
L 367.679913 293.124 
z
" clip-path="url(#pcb8a9aae2f)" style="fill: #bf3409; fill-opacity: 0.5; stroke: #ffffff; stroke-width: 0.8; stroke-linejoin: miter"/>
   </g>
   <g id="patch_22">
    <path d="M 380.803942 293.124 
L 393.927971 293.124 
L 393.927971 277.079048 
L 380.803942 277.079048 
z
" clip-path="url(#pcb8a9aae2f)" style="fill: #bf3409; fill-opacity: 0.5; stroke: #ffffff; stroke-width: 0.8; stroke-linejoin: miter"/>
   </g>
   <g id="line2d_12">
    <path d="M 131.447394 268.500491 
L 134.08539 265.506961 
L 136.723386 262.26352 
L 139.361382 258.675338 
L 141.999377 254.629741 
L 144.637373 250.009342 
L 147.275369 244.709222 
L 149.913365 238.656302 
L 152.55136 231.828496 
L 155.189356 224.270959 
L 157.827352 216.10687 
L 167.060337 186.349861 
L 169.698333 178.926829 
L 171.017331 175.633957 
L 172.336328 172.680852 
L 173.655326 170.108964 
L 174.974324 167.955352 
L 176.293322 166.25183 
L 177.61232 165.024217 
L 178.931318 164.291725 
L 180.250316 164.066495 
L 181.569314 164.353304 
L 182.888311 165.149445 
L 184.207309 166.444783 
L 185.526307 168.222 
L 186.845305 170.457 
L 188.164303 173.119484 
L 189.483301 176.173655 
L 192.121297 183.291518 
L 194.759292 191.448239 
L 198.716286 204.780162 
L 203.992277 222.686393 
L 206.630273 231.031403 
L 209.268269 238.709789 
L 211.906265 245.623867 
L 214.54426 251.747478 
L 217.182256 257.112308 
L 219.820252 261.790399 
L 222.458248 265.875699 
L 225.096243 269.467191 
L 227.734239 272.6556 
L 230.372235 275.514757 
L 233.010231 278.097849 
L 235.648226 280.437952 
L 238.286222 282.551718 
L 240.924218 284.444782 
L 243.562214 286.117542 
L 246.200209 287.570205 
L 248.838205 288.806407 
L 251.476201 289.835138 
L 254.114197 290.671096 
L 256.752192 291.333822 
L 260.709186 292.053348 
L 264.66618 292.515431 
L 269.942171 292.859578 
L 276.53716 293.042137 
L 289.727139 293.118941 
L 339.849058 293.066795 
L 349.082043 292.875142 
L 355.677033 292.530008 
L 360.953024 292.054494 
L 366.229016 291.374192 
L 374.143003 290.063361 
L 380.737992 288.985472 
L 384.694986 288.506896 
L 388.65198 288.242202 
L 392.608973 288.232075 
L 393.927971 288.286735 
L 393.927971 288.286735 
" clip-path="url(#pcb8a9aae2f)" style="fill: none; stroke: #bf3409; stroke-width: 2; stroke-linecap: round"/>
   </g>
   <g id="LineCollection_1">
    <path d="M 184.299529 293.124 
L 184.299529 166.569039 
" clip-path="url(#pcb8a9aae2f)" style="fill: none; stroke-dasharray: 3.7,1.6; stroke-dashoffset: 0; stroke: #444444"/>
   </g>
   <g id="patch_23">
    <path d="M 69.846 293.124 
L 69.846 40.416 
" style="fill: none; stroke: #9d9d9d; stroke-width: 0.6; stroke-linejoin: miter; stroke-linecap: square"/>
   </g>
   <g id="patch_24">
    <path d="M 407.052 293.124 
L 407.052 40.416 
" style="fill: none; stroke: #9d9d9d; stroke-width: 0.6; stroke-linejoin: miter; stroke-linecap: square"/>
   </g>
   <g id="patch_25">
    <path d="M 69.846 293.124 
L 407.052 293.124 
" style="fill: none; stroke: #9d9d9d; stroke-width: 0.6; stroke-linejoin: miter; stroke-linecap: square"/>
   </g>
   <g id="patch_26">
    <path d="M 69.846 40.416 
L 407.052 40.416 
" style="fill: none; stroke: #9d9d9d; stroke-width: 0.6; stroke-linejoin: miter; stroke-linecap: square"/>
   </g>
   <g id="text_14">
    <!-- Successful combinations -->
    <g style="fill: #262626" transform="translate(132.8025 34.416) scale(0.192 -0.192)">
     <defs>
      <path id="ArialMT-63" d="M 2588 1216 
L 3141 1144 
Q 3050 572 2676 248 
Q 2303 -75 1759 -75 
Q 1078 -75 664 370 
Q 250 816 250 1647 
Q 250 2184 428 2587 
Q 606 2991 970 3192 
Q 1334 3394 1763 3394 
Q 2303 3394 2647 3120 
Q 2991 2847 3088 2344 
L 2541 2259 
Q 2463 2594 2264 2762 
Q 2066 2931 1784 2931 
Q 1359 2931 1093 2626 
Q 828 2322 828 1663 
Q 828 994 1084 691 
Q 1341 388 1753 388 
Q 2084 388 2306 591 
Q 2528 794 2588 1216 
z
" transform="scale(0.015625)"/>
      <path id="ArialMT-65" d="M 2694 1069 
L 3275 997 
Q 3138 488 2766 206 
Q 2394 -75 1816 -75 
Q 1088 -75 661 373 
Q 234 822 234 1631 
Q 234 2469 665 2931 
Q 1097 3394 1784 3394 
Q 2450 3394 2872 2941 
Q 3294 2488 3294 1666 
Q 3294 1616 3291 1516 
L 816 1516 
Q 847 969 1125 678 
Q 1403 388 1819 388 
Q 2128 388 2347 550 
Q 2566 713 2694 1069 
z
M 847 1978 
L 2700 1978 
Q 2663 2397 2488 2606 
Q 2219 2931 1791 2931 
Q 1403 2931 1139 2672 
Q 875 2413 847 1978 
z
" transform="scale(0.015625)"/>
      <path id="ArialMT-73" d="M 197 991 
L 753 1078 
Q 800 744 1014 566 
Q 1228 388 1613 388 
Q 2000 388 2187 545 
Q 2375 703 2375 916 
Q 2375 1106 2209 1216 
Q 2094 1291 1634 1406 
Q 1016 1563 777 1677 
Q 538 1791 414 1992 
Q 291 2194 291 2438 
Q 291 2659 392 2848 
Q 494 3038 669 3163 
Q 800 3259 1026 3326 
Q 1253 3394 1513 3394 
Q 1903 3394 2198 3281 
Q 2494 3169 2634 2976 
Q 2775 2784 2828 2463 
L 2278 2388 
Q 2241 2644 2061 2787 
Q 1881 2931 1553 2931 
Q 1166 2931 1000 2803 
Q 834 2675 834 2503 
Q 834 2394 903 2306 
Q 972 2216 1119 2156 
Q 1203 2125 1616 2013 
Q 2213 1853 2448 1751 
Q 2684 1650 2818 1456 
Q 2953 1263 2953 975 
Q 2953 694 2789 445 
Q 2625 197 2315 61 
Q 2006 -75 1616 -75 
Q 969 -75 630 194 
Q 291 463 197 991 
z
" transform="scale(0.015625)"/>
      <path id="ArialMT-66" d="M 556 0 
L 556 2881 
L 59 2881 
L 59 3319 
L 556 3319 
L 556 3672 
Q 556 4006 616 4169 
Q 697 4388 901 4523 
Q 1106 4659 1475 4659 
Q 1713 4659 2000 4603 
L 1916 4113 
Q 1741 4144 1584 4144 
Q 1328 4144 1222 4034 
Q 1116 3925 1116 3625 
L 1116 3319 
L 1763 3319 
L 1763 2881 
L 1116 2881 
L 1116 0 
L 556 0 
z
" transform="scale(0.015625)"/>
      <path id="ArialMT-20" transform="scale(0.015625)"/>
      <path id="ArialMT-62" d="M 941 0 
L 419 0 
L 419 4581 
L 981 4581 
L 981 2947 
Q 1338 3394 1891 3394 
Q 2197 3394 2470 3270 
Q 2744 3147 2920 2923 
Q 3097 2700 3197 2384 
Q 3297 2069 3297 1709 
Q 3297 856 2875 390 
Q 2453 -75 1863 -75 
Q 1275 -75 941 416 
L 941 0 
z
M 934 1684 
Q 934 1088 1097 822 
Q 1363 388 1816 388 
Q 2184 388 2453 708 
Q 2722 1028 2722 1663 
Q 2722 2313 2464 2622 
Q 2206 2931 1841 2931 
Q 1472 2931 1203 2611 
Q 934 2291 934 1684 
z
" transform="scale(0.015625)"/>
     </defs>
     <use xlink:href="#ArialMT-53"/>
     <use xlink:href="#ArialMT-75" x="66.699219"/>
     <use xlink:href="#ArialMT-63" x="122.314453"/>
     <use xlink:href="#ArialMT-63" x="172.314453"/>
     <use xlink:href="#ArialMT-65" x="222.314453"/>
     <use xlink:href="#ArialMT-73" x="277.929688"/>
     <use xlink:href="#ArialMT-73" x="327.929688"/>
     <use xlink:href="#ArialMT-66" x="377.929688"/>
     <use xlink:href="#ArialMT-75" x="405.712891"/>
     <use xlink:href="#ArialMT-6c" x="461.328125"/>
     <use xlink:href="#ArialMT-20" x="483.544922"/>
     <use xlink:href="#ArialMT-63" x="511.328125"/>
     <use xlink:href="#ArialMT-6f" x="561.328125"/>
     <use xlink:href="#ArialMT-6d" x="616.943359"/>
     <use xlink:href="#ArialMT-62" x="700.244141"/>
     <use xlink:href="#ArialMT-69" x="755.859375"/>
     <use xlink:href="#ArialMT-6e" x="778.076172"/>
     <use xlink:href="#ArialMT-61" x="833.691406"/>
     <use xlink:href="#ArialMT-74" x="889.306641"/>
     <use xlink:href="#ArialMT-69" x="917.089844"/>
     <use xlink:href="#ArialMT-6f" x="939.306641"/>
     <use xlink:href="#ArialMT-6e" x="994.921875"/>
     <use xlink:href="#ArialMT-73" x="1050.537109"/>
    </g>
   </g>
  </g>
  <g id="axes_2">
   <g id="patch_27">
    <path d="M 506.058 293.124 
L 843.264 293.124 
L 843.264 40.416 
L 506.058 40.416 
z
" style="fill: #ffffff"/>
   </g>
   <g id="matplotlib.axis_3">
    <g id="xtick_5">
     <g id="line2d_13">
      <g>
       <use xlink:href="#m7292fa7e38" x="506.058" y="293.124" style="fill: #262626; stroke: #262626"/>
      </g>
     </g>
     <g id="text_15">
      <!-- 0.0 -->
      <g style="fill: #262626" transform="translate(493.826 314.02175) scale(0.176 -0.176)">
       <use xlink:href="#ArialMT-30"/>
       <use xlink:href="#ArialMT-2e" x="55.615234"/>
       <use xlink:href="#ArialMT-30" x="83.398438"/>
      </g>
     </g>
    </g>
    <g id="xtick_6">
     <g id="line2d_14">
      <g>
       <use xlink:href="#m7292fa7e38" x="570.381029" y="293.124" style="fill: #262626; stroke: #262626"/>
      </g>
     </g>
     <g id="text_16">
      <!-- 0.2 -->
      <g style="fill: #262626" transform="translate(558.149029 314.02175) scale(0.176 -0.176)">
       <use xlink:href="#ArialMT-30"/>
       <use xlink:href="#ArialMT-2e" x="55.615234"/>
       <use xlink:href="#ArialMT-32" x="83.398438"/>
      </g>
     </g>
    </g>
    <g id="xtick_7">
     <g id="line2d_15">
      <g>
       <use xlink:href="#m7292fa7e38" x="634.704058" y="293.124" style="fill: #262626; stroke: #262626"/>
      </g>
     </g>
     <g id="text_17">
      <!-- 0.4 -->
      <g style="fill: #262626" transform="translate(622.472058 314.02175) scale(0.176 -0.176)">
       <use xlink:href="#ArialMT-30"/>
       <use xlink:href="#ArialMT-2e" x="55.615234"/>
       <use xlink:href="#ArialMT-34" x="83.398438"/>
      </g>
     </g>
    </g>
    <g id="xtick_8">
     <g id="line2d_16">
      <g>
       <use xlink:href="#m7292fa7e38" x="699.027086" y="293.124" style="fill: #262626; stroke: #262626"/>
      </g>
     </g>
     <g id="text_18">
      <!-- 0.6 -->
      <g style="fill: #262626" transform="translate(686.795086 314.02175) scale(0.176 -0.176)">
       <use xlink:href="#ArialMT-30"/>
       <use xlink:href="#ArialMT-2e" x="55.615234"/>
       <use xlink:href="#ArialMT-36" x="83.398438"/>
      </g>
     </g>
    </g>
    <g id="xtick_9">
     <g id="line2d_17">
      <g>
       <use xlink:href="#m7292fa7e38" x="763.350115" y="293.124" style="fill: #262626; stroke: #262626"/>
      </g>
     </g>
     <g id="text_19">
      <!-- 0.8 -->
      <g style="fill: #262626" transform="translate(751.118115 314.02175) scale(0.176 -0.176)">
       <defs>
        <path id="ArialMT-38" d="M 1131 2484 
Q 781 2613 612 2850 
Q 444 3088 444 3419 
Q 444 3919 803 4259 
Q 1163 4600 1759 4600 
Q 2359 4600 2725 4251 
Q 3091 3903 3091 3403 
Q 3091 3084 2923 2848 
Q 2756 2613 2416 2484 
Q 2838 2347 3058 2040 
Q 3278 1734 3278 1309 
Q 3278 722 2862 322 
Q 2447 -78 1769 -78 
Q 1091 -78 675 323 
Q 259 725 259 1325 
Q 259 1772 486 2073 
Q 713 2375 1131 2484 
z
M 1019 3438 
Q 1019 3113 1228 2906 
Q 1438 2700 1772 2700 
Q 2097 2700 2305 2904 
Q 2513 3109 2513 3406 
Q 2513 3716 2298 3927 
Q 2084 4138 1766 4138 
Q 1444 4138 1231 3931 
Q 1019 3725 1019 3438 
z
M 838 1322 
Q 838 1081 952 856 
Q 1066 631 1291 507 
Q 1516 384 1775 384 
Q 2178 384 2440 643 
Q 2703 903 2703 1303 
Q 2703 1709 2433 1975 
Q 2163 2241 1756 2241 
Q 1359 2241 1098 1978 
Q 838 1716 838 1322 
z
" transform="scale(0.015625)"/>
       </defs>
       <use xlink:href="#ArialMT-30"/>
       <use xlink:href="#ArialMT-2e" x="55.615234"/>
       <use xlink:href="#ArialMT-38" x="83.398438"/>
      </g>
     </g>
    </g>
    <g id="xtick_10">
     <g id="line2d_18">
      <g>
       <use xlink:href="#m7292fa7e38" x="827.673144" y="293.124" style="fill: #262626; stroke: #262626"/>
      </g>
     </g>
     <g id="text_20">
      <!-- 1.0 -->
      <g style="fill: #262626" transform="translate(815.441144 314.02175) scale(0.176 -0.176)">
       <use xlink:href="#ArialMT-31"/>
       <use xlink:href="#ArialMT-2e" x="55.615234"/>
       <use xlink:href="#ArialMT-30" x="83.398438"/>
      </g>
     </g>
    </g>
    <g id="text_21">
     <!-- Similarity -->
     <g style="fill: #262626" transform="translate(635.727 335.49675) scale(0.192 -0.192)">
      <use xlink:href="#ArialMT-53"/>
      <use xlink:href="#ArialMT-69" x="66.699219"/>
      <use xlink:href="#ArialMT-6d" x="88.916016"/>
      <use xlink:href="#ArialMT-69" x="172.216797"/>
      <use xlink:href="#ArialMT-6c" x="194.433594"/>
      <use xlink:href="#ArialMT-61" x="216.650391"/>
      <use xlink:href="#ArialMT-72" x="272.265625"/>
      <use xlink:href="#ArialMT-69" x="305.566406"/>
      <use xlink:href="#ArialMT-74" x="327.783203"/>
      <use xlink:href="#ArialMT-79" x="355.566406"/>
     </g>
    </g>
   </g>
   <g id="matplotlib.axis_4">
    <g id="ytick_8">
     <g id="line2d_19">
      <g>
       <use xlink:href="#m1c8384b4b3" x="506.058" y="293.124" style="fill: #262626; stroke: #262626"/>
      </g>
     </g>
     <g id="text_22">
      <!-- 0 -->
      <g style="fill: #262626" transform="translate(487.97075 299.422875) scale(0.176 -0.176)">
       <use xlink:href="#ArialMT-30"/>
      </g>
     </g>
    </g>
    <g id="ytick_9">
     <g id="line2d_20">
      <g>
       <use xlink:href="#m1c8384b4b3" x="506.058" y="237.743107" style="fill: #262626; stroke: #262626"/>
      </g>
     </g>
     <g id="text_23">
      <!-- 10000 -->
      <g style="fill: #262626" transform="translate(448.82175 244.041982) scale(0.176 -0.176)">
       <use xlink:href="#ArialMT-31"/>
       <use xlink:href="#ArialMT-30" x="55.615234"/>
       <use xlink:href="#ArialMT-30" x="111.230469"/>
       <use xlink:href="#ArialMT-30" x="166.845703"/>
       <use xlink:href="#ArialMT-30" x="222.460938"/>
      </g>
     </g>
    </g>
    <g id="ytick_10">
     <g id="line2d_21">
      <g>
       <use xlink:href="#m1c8384b4b3" x="506.058" y="182.362214" style="fill: #262626; stroke: #262626"/>
      </g>
     </g>
     <g id="text_24">
      <!-- 20000 -->
      <g style="fill: #262626" transform="translate(448.82175 188.661089) scale(0.176 -0.176)">
       <use xlink:href="#ArialMT-32"/>
       <use xlink:href="#ArialMT-30" x="55.615234"/>
       <use xlink:href="#ArialMT-30" x="111.230469"/>
       <use xlink:href="#ArialMT-30" x="166.845703"/>
       <use xlink:href="#ArialMT-30" x="222.460938"/>
      </g>
     </g>
    </g>
    <g id="ytick_11">
     <g id="line2d_22">
      <g>
       <use xlink:href="#m1c8384b4b3" x="506.058" y="126.98132" style="fill: #262626; stroke: #262626"/>
      </g>
     </g>
     <g id="text_25">
      <!-- 30000 -->
      <g style="fill: #262626" transform="translate(448.82175 133.280195) scale(0.176 -0.176)">
       <use xlink:href="#ArialMT-33"/>
       <use xlink:href="#ArialMT-30" x="55.615234"/>
       <use xlink:href="#ArialMT-30" x="111.230469"/>
       <use xlink:href="#ArialMT-30" x="166.845703"/>
       <use xlink:href="#ArialMT-30" x="222.460938"/>
      </g>
     </g>
    </g>
    <g id="ytick_12">
     <g id="line2d_23">
      <g>
       <use xlink:href="#m1c8384b4b3" x="506.058" y="71.600427" style="fill: #262626; stroke: #262626"/>
      </g>
     </g>
     <g id="text_26">
      <!-- 40000 -->
      <g style="fill: #262626" transform="translate(448.82175 77.899302) scale(0.176 -0.176)">
       <use xlink:href="#ArialMT-34"/>
       <use xlink:href="#ArialMT-30" x="55.615234"/>
       <use xlink:href="#ArialMT-30" x="111.230469"/>
       <use xlink:href="#ArialMT-30" x="166.845703"/>
       <use xlink:href="#ArialMT-30" x="222.460938"/>
      </g>
     </g>
    </g>
    <g id="text_27">
     <!-- Count -->
     <g style="fill: #262626" transform="translate(441.00575 192.3855) rotate(-90) scale(0.192 -0.192)">
      <use xlink:href="#ArialMT-43"/>
      <use xlink:href="#ArialMT-6f" x="72.216797"/>
      <use xlink:href="#ArialMT-75" x="127.832031"/>
      <use xlink:href="#ArialMT-6e" x="183.447266"/>
      <use xlink:href="#ArialMT-74" x="239.0625"/>
     </g>
    </g>
   </g>
   <g id="patch_28">
    <path d="M 515.856024 293.124 
L 531.44688 293.124 
L 531.44688 286.107241 
L 515.856024 286.107241 
z
" clip-path="url(#p81fe9d31a6)" style="fill: #bf3409; fill-opacity: 0.5; stroke: #ffffff; stroke-width: 0.8; stroke-linejoin: miter"/>
   </g>
   <g id="patch_29">
    <path d="M 531.44688 293.124 
L 547.037736 293.124 
L 547.037736 270.42891 
L 531.44688 270.42891 
z
" clip-path="url(#p81fe9d31a6)" style="fill: #bf3409; fill-opacity: 0.5; stroke: #ffffff; stroke-width: 0.8; stroke-linejoin: miter"/>
   </g>
   <g id="patch_30">
    <path d="M 547.037736 293.124 
L 562.628592 293.124 
L 562.628592 227.248428 
L 547.037736 227.248428 
z
" clip-path="url(#p81fe9d31a6)" style="fill: #bf3409; fill-opacity: 0.5; stroke: #ffffff; stroke-width: 0.8; stroke-linejoin: miter"/>
   </g>
   <g id="patch_31">
    <path d="M 562.628592 293.124 
L 578.219448 293.124 
L 578.219448 154.788067 
L 562.628592 154.788067 
z
" clip-path="url(#p81fe9d31a6)" style="fill: #bf3409; fill-opacity: 0.5; stroke: #ffffff; stroke-width: 0.8; stroke-linejoin: miter"/>
   </g>
   <g id="patch_32">
    <path d="M 578.219448 293.124 
L 593.810304 293.124 
L 593.810304 180.900158 
L 578.219448 180.900158 
z
" clip-path="url(#p81fe9d31a6)" style="fill: #bf3409; fill-opacity: 0.5; stroke: #ffffff; stroke-width: 0.8; stroke-linejoin: miter"/>
   </g>
   <g id="patch_33">
    <path d="M 593.810304 293.124 
L 609.40116 293.124 
L 609.40116 240.578609 
L 593.810304 240.578609 
z
" clip-path="url(#p81fe9d31a6)" style="fill: #bf3409; fill-opacity: 0.5; stroke: #ffffff; stroke-width: 0.8; stroke-linejoin: miter"/>
   </g>
   <g id="patch_34">
    <path d="M 609.40116 293.124 
L 624.992016 293.124 
L 624.992016 212.92139 
L 609.40116 212.92139 
z
" clip-path="url(#p81fe9d31a6)" style="fill: #bf3409; fill-opacity: 0.5; stroke: #ffffff; stroke-width: 0.8; stroke-linejoin: miter"/>
   </g>
   <g id="patch_35">
    <path d="M 624.992016 293.124 
L 640.582872 293.124 
L 640.582872 183.525212 
L 624.992016 183.525212 
z
" clip-path="url(#p81fe9d31a6)" style="fill: #bf3409; fill-opacity: 0.5; stroke: #ffffff; stroke-width: 0.8; stroke-linejoin: miter"/>
   </g>
   <g id="patch_36">
    <path d="M 640.582872 293.124 
L 656.173728 293.124 
L 656.173728 182.722189 
L 640.582872 182.722189 
z
" clip-path="url(#p81fe9d31a6)" style="fill: #bf3409; fill-opacity: 0.5; stroke: #ffffff; stroke-width: 0.8; stroke-linejoin: miter"/>
   </g>
   <g id="patch_37">
    <path d="M 656.173728 293.124 
L 671.764584 293.124 
L 671.764584 124.904537 
L 656.173728 124.904537 
z
" clip-path="url(#p81fe9d31a6)" style="fill: #bf3409; fill-opacity: 0.5; stroke: #ffffff; stroke-width: 0.8; stroke-linejoin: miter"/>
   </g>
   <g id="patch_38">
    <path d="M 671.764584 293.124 
L 687.35544 293.124 
L 687.35544 66.355857 
L 671.764584 66.355857 
z
" clip-path="url(#p81fe9d31a6)" style="fill: #bf3409; fill-opacity: 0.5; stroke: #ffffff; stroke-width: 0.8; stroke-linejoin: miter"/>
   </g>
   <g id="patch_39">
    <path d="M 687.35544 293.124 
L 702.946296 293.124 
L 702.946296 117.821321 
L 687.35544 117.821321 
z
" clip-path="url(#p81fe9d31a6)" style="fill: #bf3409; fill-opacity: 0.5; stroke: #ffffff; stroke-width: 0.8; stroke-linejoin: miter"/>
   </g>
   <g id="patch_40">
    <path d="M 702.946296 293.124 
L 718.537152 293.124 
L 718.537152 149.693025 
L 702.946296 149.693025 
z
" clip-path="url(#p81fe9d31a6)" style="fill: #bf3409; fill-opacity: 0.5; stroke: #ffffff; stroke-width: 0.8; stroke-linejoin: miter"/>
   </g>
   <g id="patch_41">
    <path d="M 718.537152 293.124 
L 734.128008 293.124 
L 734.128008 172.653943 
L 718.537152 172.653943 
z
" clip-path="url(#p81fe9d31a6)" style="fill: #bf3409; fill-opacity: 0.5; stroke: #ffffff; stroke-width: 0.8; stroke-linejoin: miter"/>
   </g>
   <g id="patch_42">
    <path d="M 734.128008 293.124 
L 749.718864 293.124 
L 749.718864 110.184295 
L 734.128008 110.184295 
z
" clip-path="url(#p81fe9d31a6)" style="fill: #bf3409; fill-opacity: 0.5; stroke: #ffffff; stroke-width: 0.8; stroke-linejoin: miter"/>
   </g>
   <g id="patch_43">
    <path d="M 749.718864 293.124 
L 765.30972 293.124 
L 765.30972 52.449714 
L 749.718864 52.449714 
z
" clip-path="url(#p81fe9d31a6)" style="fill: #bf3409; fill-opacity: 0.5; stroke: #ffffff; stroke-width: 0.8; stroke-linejoin: miter"/>
   </g>
   <g id="patch_44">
    <path d="M 765.30972 293.124 
L 780.900576 293.124 
L 780.900576 106.567923 
L 765.30972 106.567923 
z
" clip-path="url(#p81fe9d31a6)" style="fill: #bf3409; fill-opacity: 0.5; stroke: #ffffff; stroke-width: 0.8; stroke-linejoin: miter"/>
   </g>
   <g id="patch_45">
    <path d="M 780.900576 293.124 
L 796.491432 293.124 
L 796.491432 159.722504 
L 780.900576 159.722504 
z
" clip-path="url(#p81fe9d31a6)" style="fill: #bf3409; fill-opacity: 0.5; stroke: #ffffff; stroke-width: 0.8; stroke-linejoin: miter"/>
   </g>
   <g id="patch_46">
    <path d="M 796.491432 293.124 
L 812.082288 293.124 
L 812.082288 217.623228 
L 796.491432 217.623228 
z
" clip-path="url(#p81fe9d31a6)" style="fill: #bf3409; fill-opacity: 0.5; stroke: #ffffff; stroke-width: 0.8; stroke-linejoin: miter"/>
   </g>
   <g id="patch_47">
    <path d="M 812.082288 293.124 
L 827.673144 293.124 
L 827.673144 220.087678 
L 812.082288 220.087678 
z
" clip-path="url(#p81fe9d31a6)" style="fill: #bf3409; fill-opacity: 0.5; stroke: #ffffff; stroke-width: 0.8; stroke-linejoin: miter"/>
   </g>
   <g id="line2d_24">
    <path d="M 515.856024 290.586204 
L 518.989864 289.050508 
L 525.257545 285.702303 
L 526.824466 284.758692 
L 528.391386 283.674069 
L 529.958306 282.381268 
L 531.525226 280.820573 
L 533.092146 278.951001 
L 534.659067 276.758713 
L 536.225987 274.259475 
L 539.359827 268.508522 
L 542.493668 262.054199 
L 545.627508 255.063046 
L 548.761348 247.372416 
L 550.328269 243.084015 
L 551.895189 238.346889 
L 553.462109 233.055515 
L 555.029029 227.165153 
L 558.16287 213.85267 
L 564.43055 184.851477 
L 569.131311 163.258324 
L 570.698231 156.858201 
L 572.265151 151.45655 
L 573.832072 147.455651 
L 575.398992 145.175321 
L 576.965912 144.804918 
L 578.532832 146.40256 
L 580.099752 149.928294 
L 581.666673 155.278054 
L 583.233593 162.287883 
L 584.800513 170.703516 
L 587.934353 190.08914 
L 591.068194 209.167742 
L 592.635114 217.313195 
L 594.202034 224.171149 
L 595.768954 229.721318 
L 597.335875 234.066724 
L 598.902795 237.336885 
L 600.469715 239.615426 
L 602.036635 240.91902 
L 603.603555 241.222534 
L 605.170476 240.503165 
L 606.737396 238.775861 
L 608.304316 236.108522 
L 609.871236 232.622442 
L 611.438156 228.488453 
L 617.705837 210.09568 
L 619.272757 206.122837 
L 620.839678 202.599214 
L 623.973518 196.551797 
L 627.107358 191.107055 
L 628.674279 188.582947 
L 630.241199 186.356988 
L 631.808119 184.599384 
L 633.375039 183.434206 
L 634.941959 182.887746 
L 636.50888 182.876131 
L 638.0758 183.231029 
L 641.20964 184.208829 
L 642.77656 184.437727 
L 644.343481 184.267123 
L 645.910401 183.54876 
L 647.477321 182.147902 
L 649.044241 179.950898 
L 650.611161 176.878815 
L 652.178082 172.899244 
L 653.745002 168.031558 
L 655.311922 162.347482 
L 656.878842 155.971304 
L 660.012683 141.884508 
L 664.713443 120.411457 
L 672.548044 86.394987 
L 674.114964 80.433945 
L 675.681885 75.553215 
L 677.248805 72.168082 
L 678.815725 70.572184 
L 680.382645 70.892865 
L 681.949565 73.087208 
L 683.516486 76.960139 
L 685.083406 82.185997 
L 688.217246 94.873032 
L 689.784166 101.279301 
L 691.351087 107.07161 
L 692.918007 111.933513 
L 694.484927 115.776442 
L 696.051847 118.743174 
L 697.618767 121.137143 
L 700.752608 125.536934 
L 702.319528 128.000004 
L 703.886448 130.769544 
L 705.453368 133.876646 
L 707.020289 137.356367 
L 708.587209 141.252849 
L 710.154129 145.583795 
L 713.287969 155.233331 
L 716.42181 164.853619 
L 717.98873 169.025582 
L 719.55565 172.470915 
L 721.12257 174.989149 
L 722.689491 176.37477 
L 724.256411 176.413564 
L 725.823331 174.916834 
L 727.390251 171.786255 
L 728.957171 167.078744 
L 730.524092 161.034928 
L 733.657932 146.592672 
L 736.791772 131.879484 
L 739.925613 118.638872 
L 746.193294 93.596939 
L 752.460974 67.494793 
L 754.027895 61.998794 
L 755.594815 57.694759 
L 757.161735 55.053124 
L 758.728655 54.442625 
L 760.295575 56.014437 
L 761.862496 59.635119 
L 763.429416 64.903616 
L 764.996336 71.252009 
L 769.697097 91.57357 
L 772.830937 103.894075 
L 777.531698 121.170433 
L 780.665538 132.008516 
L 788.500139 157.603342 
L 791.633979 169.491593 
L 794.76782 182.722826 
L 797.90166 196.293887 
L 799.46858 202.687398 
L 801.035501 208.533564 
L 802.602421 213.703192 
L 804.169341 218.19931 
L 807.303181 225.924969 
L 808.870102 229.768994 
L 810.437022 233.968634 
L 815.137782 247.684194 
L 816.704703 250.785266 
L 818.271623 251.817079 
L 819.838543 250.25622 
L 821.405463 246.201592 
L 824.539304 234.879936 
L 826.106224 231.065958 
L 827.673144 230.651357 
L 827.673144 230.651357 
" clip-path="url(#p81fe9d31a6)" style="fill: none; stroke: #bf3409; stroke-width: 2; stroke-linecap: round"/>
   </g>
   <g id="LineCollection_2">
    <path d="M 694.731947 293.124 
L 694.731947 116.244138 
" clip-path="url(#p81fe9d31a6)" style="fill: none; stroke-dasharray: 3.7,1.6; stroke-dashoffset: 0; stroke: #444444"/>
   </g>
   <g id="patch_48">
    <path d="M 506.058 293.124 
L 506.058 40.416 
" style="fill: none; stroke: #9d9d9d; stroke-width: 0.6; stroke-linejoin: miter; stroke-linecap: square"/>
   </g>
   <g id="patch_49">
    <path d="M 843.264 293.124 
L 843.264 40.416 
" style="fill: none; stroke: #9d9d9d; stroke-width: 0.6; stroke-linejoin: miter; stroke-linecap: square"/>
   </g>
   <g id="patch_50">
    <path d="M 506.058 293.124 
L 843.264 293.124 
" style="fill: none; stroke: #9d9d9d; stroke-width: 0.6; stroke-linejoin: miter; stroke-linecap: square"/>
   </g>
   <g id="patch_51">
    <path d="M 506.058 40.416 
L 843.264 40.416 
" style="fill: none; stroke: #9d9d9d; stroke-width: 0.6; stroke-linejoin: miter; stroke-linecap: square"/>
   </g>
   <g id="text_28">
    <!-- Unsuccessful combinations -->
    <g style="fill: #262626" transform="translate(558.3465 34.416) scale(0.192 -0.192)">
     <defs>
      <path id="ArialMT-55" d="M 3500 4581 
L 4106 4581 
L 4106 1934 
Q 4106 1244 3950 837 
Q 3794 431 3386 176 
Q 2978 -78 2316 -78 
Q 1672 -78 1262 144 
Q 853 366 678 786 
Q 503 1206 503 1934 
L 503 4581 
L 1109 4581 
L 1109 1938 
Q 1109 1341 1220 1058 
Q 1331 775 1601 622 
Q 1872 469 2263 469 
Q 2931 469 3215 772 
Q 3500 1075 3500 1938 
L 3500 4581 
z
" transform="scale(0.015625)"/>
     </defs>
     <use xlink:href="#ArialMT-55"/>
     <use xlink:href="#ArialMT-6e" x="72.216797"/>
     <use xlink:href="#ArialMT-73" x="127.832031"/>
     <use xlink:href="#ArialMT-75" x="177.832031"/>
     <use xlink:href="#ArialMT-63" x="233.447266"/>
     <use xlink:href="#ArialMT-63" x="283.447266"/>
     <use xlink:href="#ArialMT-65" x="333.447266"/>
     <use xlink:href="#ArialMT-73" x="389.0625"/>
     <use xlink:href="#ArialMT-73" x="439.0625"/>
     <use xlink:href="#ArialMT-66" x="489.0625"/>
     <use xlink:href="#ArialMT-75" x="516.845703"/>
     <use xlink:href="#ArialMT-6c" x="572.460938"/>
     <use xlink:href="#ArialMT-20" x="594.677734"/>
     <use xlink:href="#ArialMT-63" x="622.460938"/>
     <use xlink:href="#ArialMT-6f" x="672.460938"/>
     <use xlink:href="#ArialMT-6d" x="728.076172"/>
     <use xlink:href="#ArialMT-62" x="811.376953"/>
     <use xlink:href="#ArialMT-69" x="866.992188"/>
     <use xlink:href="#ArialMT-6e" x="889.208984"/>
     <use xlink:href="#ArialMT-61" x="944.824219"/>
     <use xlink:href="#ArialMT-74" x="1000.439453"/>
     <use xlink:href="#ArialMT-69" x="1028.222656"/>
     <use xlink:href="#ArialMT-6f" x="1050.439453"/>
     <use xlink:href="#ArialMT-6e" x="1106.054688"/>
     <use xlink:href="#ArialMT-73" x="1161.669922"/>
    </g>
   </g>
  </g>
 </g>
 <defs>
  <clipPath id="pcb8a9aae2f">
   <rect x="69.846" y="40.416" width="337.206" height="252.708"/>
  </clipPath>
  <clipPath id="p81fe9d31a6">
   <rect x="506.058" y="40.416" width="337.206" height="252.708"/>
  </clipPath>
 </defs>
</svg>
