<?xml version="1.0" encoding="utf-8" standalone="no"?>
<!DOCTYPE svg PUBLIC "-//W3C//DTD SVG 1.1//EN"
  "http://www.w3.org/Graphics/SVG/1.1/DTD/svg11.dtd">
<svg xmlns:xlink="http://www.w3.org/1999/xlink" width="864pt" height="720pt" viewBox="0 0 864 720" xmlns="http://www.w3.org/2000/svg" version="1.1">
 <metadata>
  <rdf:RDF xmlns:dc="http://purl.org/dc/elements/1.1/" xmlns:cc="http://creativecommons.org/ns#" xmlns:rdf="http://www.w3.org/1999/02/22-rdf-syntax-ns#">
   <cc:Work>
    <dc:type rdf:resource="http://purl.org/dc/dcmitype/StillImage"/>
    <dc:date>2024-10-15T12:52:50.160568</dc:date>
    <dc:format>image/svg+xml</dc:format>
    <dc:creator>
     <cc:Agent>
      <dc:title>Matplotlib v3.9.2, https://matplotlib.org/</dc:title>
     </cc:Agent>
    </dc:creator>
   </cc:Work>
  </rdf:RDF>
 </metadata>
 <defs>
  <style type="text/css">*{stroke-linejoin: round; stroke-linecap: butt}</style>
 </defs>
 <g id="figure_1">
  <g id="patch_1">
   <path d="M 0 720 
L 864 720 
L 864 0 
L 0 0 
z
" style="fill: #ffffff"/>
  </g>
  <g id="axes_1">
   <g id="patch_2">
    <path d="M 91.14 297.18 
L 405.054632 297.18 
L 405.054632 45.48 
L 91.14 45.48 
z
" style="fill: #ffffff"/>
   </g>
   <g id="matplotlib.axis_1">
    <g id="xtick_1">
     <g id="line2d_1">
      <defs>
       <path id="ma6814fc7bb" d="M 0 0 
L 0 4.8 
" style="stroke: #262626"/>
      </defs>
      <g>
       <use xlink:href="#ma6814fc7bb" x="105.408847" y="297.18" style="fill: #262626; stroke: #262626"/>
      </g>
     </g>
     <g id="text_1">
      <!-- 0 -->
      <g style="fill: #262626" transform="translate(99.291816 321.227187) scale(0.22 -0.22)">
       <defs>
        <path id="ArialMT-30" d="M 266 2259 
Q 266 3072 433 3567 
Q 600 4063 929 4331 
Q 1259 4600 1759 4600 
Q 2128 4600 2406 4451 
Q 2684 4303 2865 4023 
Q 3047 3744 3150 3342 
Q 3253 2941 3253 2259 
Q 3253 1453 3087 958 
Q 2922 463 2592 192 
Q 2263 -78 1759 -78 
Q 1097 -78 719 397 
Q 266 969 266 2259 
z
M 844 2259 
Q 844 1131 1108 757 
Q 1372 384 1759 384 
Q 2147 384 2411 759 
Q 2675 1134 2675 2259 
Q 2675 3391 2411 3762 
Q 2147 4134 1753 4134 
Q 1366 4134 1134 3806 
Q 844 3388 844 2259 
z
" transform="scale(0.015625)"/>
       </defs>
       <use xlink:href="#ArialMT-30"/>
      </g>
     </g>
    </g>
    <g id="xtick_2">
     <g id="line2d_2">
      <g>
       <use xlink:href="#ma6814fc7bb" x="249.538614" y="297.18" style="fill: #262626; stroke: #262626"/>
      </g>
     </g>
     <g id="text_2">
      <!-- 50 -->
      <g style="fill: #262626" transform="translate(237.304551 321.227187) scale(0.22 -0.22)">
       <defs>
        <path id="ArialMT-35" d="M 266 1200 
L 856 1250 
Q 922 819 1161 601 
Q 1400 384 1738 384 
Q 2144 384 2425 690 
Q 2706 997 2706 1503 
Q 2706 1984 2436 2262 
Q 2166 2541 1728 2541 
Q 1456 2541 1237 2417 
Q 1019 2294 894 2097 
L 366 2166 
L 809 4519 
L 3088 4519 
L 3088 3981 
L 1259 3981 
L 1013 2750 
Q 1425 3038 1878 3038 
Q 2478 3038 2890 2622 
Q 3303 2206 3303 1553 
Q 3303 931 2941 478 
Q 2500 -78 1738 -78 
Q 1113 -78 717 272 
Q 322 622 266 1200 
z
" transform="scale(0.015625)"/>
       </defs>
       <use xlink:href="#ArialMT-35"/>
       <use xlink:href="#ArialMT-30" x="55.615234"/>
      </g>
     </g>
    </g>
    <g id="xtick_3">
     <g id="line2d_3">
      <g>
       <use xlink:href="#ma6814fc7bb" x="393.66838" y="297.18" style="fill: #262626; stroke: #262626"/>
      </g>
     </g>
     <g id="text_3">
      <!-- 100 -->
      <g style="fill: #262626" transform="translate(375.317287 321.227187) scale(0.22 -0.22)">
       <defs>
        <path id="ArialMT-31" d="M 2384 0 
L 1822 0 
L 1822 3584 
Q 1619 3391 1289 3197 
Q 959 3003 697 2906 
L 697 3450 
Q 1169 3672 1522 3987 
Q 1875 4303 2022 4600 
L 2384 4600 
L 2384 0 
z
" transform="scale(0.015625)"/>
       </defs>
       <use xlink:href="#ArialMT-31"/>
       <use xlink:href="#ArialMT-30" x="55.615234"/>
       <use xlink:href="#ArialMT-30" x="111.230469"/>
      </g>
     </g>
    </g>
    <g id="text_4">
     <!-- Epoch -->
     <g style="fill: #262626" transform="translate(214.073566 346.778437) scale(0.24 -0.24)">
      <defs>
       <path id="ArialMT-45" d="M 506 0 
L 506 4581 
L 3819 4581 
L 3819 4041 
L 1113 4041 
L 1113 2638 
L 3647 2638 
L 3647 2100 
L 1113 2100 
L 1113 541 
L 3925 541 
L 3925 0 
L 506 0 
z
" transform="scale(0.015625)"/>
       <path id="ArialMT-70" d="M 422 -1272 
L 422 3319 
L 934 3319 
L 934 2888 
Q 1116 3141 1344 3267 
Q 1572 3394 1897 3394 
Q 2322 3394 2647 3175 
Q 2972 2956 3137 2557 
Q 3303 2159 3303 1684 
Q 3303 1175 3120 767 
Q 2938 359 2589 142 
Q 2241 -75 1856 -75 
Q 1575 -75 1351 44 
Q 1128 163 984 344 
L 984 -1272 
L 422 -1272 
z
M 931 1641 
Q 931 1000 1190 694 
Q 1450 388 1819 388 
Q 2194 388 2461 705 
Q 2728 1022 2728 1688 
Q 2728 2322 2467 2637 
Q 2206 2953 1844 2953 
Q 1484 2953 1207 2617 
Q 931 2281 931 1641 
z
" transform="scale(0.015625)"/>
       <path id="ArialMT-6f" d="M 213 1659 
Q 213 2581 725 3025 
Q 1153 3394 1769 3394 
Q 2453 3394 2887 2945 
Q 3322 2497 3322 1706 
Q 3322 1066 3130 698 
Q 2938 331 2570 128 
Q 2203 -75 1769 -75 
Q 1072 -75 642 372 
Q 213 819 213 1659 
z
M 791 1659 
Q 791 1022 1069 705 
Q 1347 388 1769 388 
Q 2188 388 2466 706 
Q 2744 1025 2744 1678 
Q 2744 2294 2464 2611 
Q 2184 2928 1769 2928 
Q 1347 2928 1069 2612 
Q 791 2297 791 1659 
z
" transform="scale(0.015625)"/>
       <path id="ArialMT-63" d="M 2588 1216 
L 3141 1144 
Q 3050 572 2676 248 
Q 2303 -75 1759 -75 
Q 1078 -75 664 370 
Q 250 816 250 1647 
Q 250 2184 428 2587 
Q 606 2991 970 3192 
Q 1334 3394 1763 3394 
Q 2303 3394 2647 3120 
Q 2991 2847 3088 2344 
L 2541 2259 
Q 2463 2594 2264 2762 
Q 2066 2931 1784 2931 
Q 1359 2931 1093 2626 
Q 828 2322 828 1663 
Q 828 994 1084 691 
Q 1341 388 1753 388 
Q 2084 388 2306 591 
Q 2528 794 2588 1216 
z
" transform="scale(0.015625)"/>
       <path id="ArialMT-68" d="M 422 0 
L 422 4581 
L 984 4581 
L 984 2938 
Q 1378 3394 1978 3394 
Q 2347 3394 2619 3248 
Q 2891 3103 3008 2847 
Q 3125 2591 3125 2103 
L 3125 0 
L 2563 0 
L 2563 2103 
Q 2563 2525 2380 2717 
Q 2197 2909 1863 2909 
Q 1613 2909 1392 2779 
Q 1172 2650 1078 2428 
Q 984 2206 984 1816 
L 984 0 
L 422 0 
z
" transform="scale(0.015625)"/>
      </defs>
      <use xlink:href="#ArialMT-45"/>
      <use xlink:href="#ArialMT-70" x="66.699219"/>
      <use xlink:href="#ArialMT-6f" x="122.314453"/>
      <use xlink:href="#ArialMT-63" x="177.929688"/>
      <use xlink:href="#ArialMT-68" x="227.929688"/>
     </g>
    </g>
   </g>
   <g id="matplotlib.axis_2">
    <g id="ytick_1">
     <g id="line2d_4">
      <defs>
       <path id="m6d3f9349ca" d="M 0 0 
L -4.8 0 
" style="stroke: #262626"/>
      </defs>
      <g>
       <use xlink:href="#m6d3f9349ca" x="91.14" y="289.478329" style="fill: #262626; stroke: #262626"/>
      </g>
     </g>
     <g id="text_5">
      <!-- −3 -->
      <g style="fill: #262626" transform="translate(57.756563 297.351922) scale(0.22 -0.22)">
       <defs>
        <path id="ArialMT-2212" d="M 3381 1997 
L 356 1997 
L 356 2522 
L 3381 2522 
L 3381 1997 
z
" transform="scale(0.015625)"/>
        <path id="ArialMT-33" d="M 269 1209 
L 831 1284 
Q 928 806 1161 595 
Q 1394 384 1728 384 
Q 2125 384 2398 659 
Q 2672 934 2672 1341 
Q 2672 1728 2419 1979 
Q 2166 2231 1775 2231 
Q 1616 2231 1378 2169 
L 1441 2663 
Q 1497 2656 1531 2656 
Q 1891 2656 2178 2843 
Q 2466 3031 2466 3422 
Q 2466 3731 2256 3934 
Q 2047 4138 1716 4138 
Q 1388 4138 1169 3931 
Q 950 3725 888 3313 
L 325 3413 
Q 428 3978 793 4289 
Q 1159 4600 1703 4600 
Q 2078 4600 2393 4439 
Q 2709 4278 2876 4000 
Q 3044 3722 3044 3409 
Q 3044 3113 2884 2869 
Q 2725 2625 2413 2481 
Q 2819 2388 3044 2092 
Q 3269 1797 3269 1353 
Q 3269 753 2831 336 
Q 2394 -81 1725 -81 
Q 1122 -81 723 278 
Q 325 638 269 1209 
z
" transform="scale(0.015625)"/>
       </defs>
       <use xlink:href="#ArialMT-2212"/>
       <use xlink:href="#ArialMT-33" x="58.398438"/>
      </g>
     </g>
    </g>
    <g id="ytick_2">
     <g id="line2d_5">
      <g>
       <use xlink:href="#m6d3f9349ca" x="91.14" y="212.343665" style="fill: #262626; stroke: #262626"/>
      </g>
     </g>
     <g id="text_6">
      <!-- −2 -->
      <g style="fill: #262626" transform="translate(57.756563 220.217259) scale(0.22 -0.22)">
       <defs>
        <path id="ArialMT-32" d="M 3222 541 
L 3222 0 
L 194 0 
Q 188 203 259 391 
Q 375 700 629 1000 
Q 884 1300 1366 1694 
Q 2113 2306 2375 2664 
Q 2638 3022 2638 3341 
Q 2638 3675 2398 3904 
Q 2159 4134 1775 4134 
Q 1369 4134 1125 3890 
Q 881 3647 878 3216 
L 300 3275 
Q 359 3922 746 4261 
Q 1134 4600 1788 4600 
Q 2447 4600 2831 4234 
Q 3216 3869 3216 3328 
Q 3216 3053 3103 2787 
Q 2991 2522 2730 2228 
Q 2469 1934 1863 1422 
Q 1356 997 1212 845 
Q 1069 694 975 541 
L 3222 541 
z
" transform="scale(0.015625)"/>
       </defs>
       <use xlink:href="#ArialMT-2212"/>
       <use xlink:href="#ArialMT-32" x="58.398438"/>
      </g>
     </g>
    </g>
    <g id="ytick_3">
     <g id="line2d_6">
      <g>
       <use xlink:href="#m6d3f9349ca" x="91.14" y="135.209001" style="fill: #262626; stroke: #262626"/>
      </g>
     </g>
     <g id="text_7">
      <!-- −1 -->
      <g style="fill: #262626" transform="translate(57.756563 143.082595) scale(0.22 -0.22)">
       <use xlink:href="#ArialMT-2212"/>
       <use xlink:href="#ArialMT-31" x="58.398438"/>
      </g>
     </g>
    </g>
    <g id="ytick_4">
     <g id="line2d_7">
      <g>
       <use xlink:href="#m6d3f9349ca" x="91.14" y="58.074338" style="fill: #262626; stroke: #262626"/>
      </g>
     </g>
     <g id="text_8">
      <!-- 0 -->
      <g style="fill: #262626" transform="translate(70.605938 65.947931) scale(0.22 -0.22)">
       <use xlink:href="#ArialMT-30"/>
      </g>
     </g>
    </g>
    <g id="text_9">
     <!-- Loss -->
     <g style="fill: #262626" transform="translate(48.986563 196.67625) rotate(-90) scale(0.24 -0.24)">
      <defs>
       <path id="ArialMT-4c" d="M 469 0 
L 469 4581 
L 1075 4581 
L 1075 541 
L 3331 541 
L 3331 0 
L 469 0 
z
" transform="scale(0.015625)"/>
       <path id="ArialMT-73" d="M 197 991 
L 753 1078 
Q 800 744 1014 566 
Q 1228 388 1613 388 
Q 2000 388 2187 545 
Q 2375 703 2375 916 
Q 2375 1106 2209 1216 
Q 2094 1291 1634 1406 
Q 1016 1563 777 1677 
Q 538 1791 414 1992 
Q 291 2194 291 2438 
Q 291 2659 392 2848 
Q 494 3038 669 3163 
Q 800 3259 1026 3326 
Q 1253 3394 1513 3394 
Q 1903 3394 2198 3281 
Q 2494 3169 2634 2976 
Q 2775 2784 2828 2463 
L 2278 2388 
Q 2241 2644 2061 2787 
Q 1881 2931 1553 2931 
Q 1166 2931 1000 2803 
Q 834 2675 834 2503 
Q 834 2394 903 2306 
Q 972 2216 1119 2156 
Q 1203 2125 1616 2013 
Q 2213 1853 2448 1751 
Q 2684 1650 2818 1456 
Q 2953 1263 2953 975 
Q 2953 694 2789 445 
Q 2625 197 2315 61 
Q 2006 -75 1616 -75 
Q 969 -75 630 194 
Q 291 463 197 991 
z
" transform="scale(0.015625)"/>
      </defs>
      <use xlink:href="#ArialMT-4c"/>
      <use xlink:href="#ArialMT-6f" x="55.615234"/>
      <use xlink:href="#ArialMT-73" x="111.230469"/>
      <use xlink:href="#ArialMT-73" x="161.230469"/>
     </g>
    </g>
    <g id="text_10">
     <!-- 1e6 -->
     <g style="fill: #262626" transform="translate(91.14 42.48) scale(0.22 -0.22)">
      <defs>
       <path id="ArialMT-65" d="M 2694 1069 
L 3275 997 
Q 3138 488 2766 206 
Q 2394 -75 1816 -75 
Q 1088 -75 661 373 
Q 234 822 234 1631 
Q 234 2469 665 2931 
Q 1097 3394 1784 3394 
Q 2450 3394 2872 2941 
Q 3294 2488 3294 1666 
Q 3294 1616 3291 1516 
L 816 1516 
Q 847 969 1125 678 
Q 1403 388 1819 388 
Q 2128 388 2347 550 
Q 2566 713 2694 1069 
z
M 847 1978 
L 2700 1978 
Q 2663 2397 2488 2606 
Q 2219 2931 1791 2931 
Q 1403 2931 1139 2672 
Q 875 2413 847 1978 
z
" transform="scale(0.015625)"/>
       <path id="ArialMT-36" d="M 3184 3459 
L 2625 3416 
Q 2550 3747 2413 3897 
Q 2184 4138 1850 4138 
Q 1581 4138 1378 3988 
Q 1113 3794 959 3422 
Q 806 3050 800 2363 
Q 1003 2672 1297 2822 
Q 1591 2972 1913 2972 
Q 2475 2972 2870 2558 
Q 3266 2144 3266 1488 
Q 3266 1056 3080 686 
Q 2894 316 2569 119 
Q 2244 -78 1831 -78 
Q 1128 -78 684 439 
Q 241 956 241 2144 
Q 241 3472 731 4075 
Q 1159 4600 1884 4600 
Q 2425 4600 2770 4297 
Q 3116 3994 3184 3459 
z
M 888 1484 
Q 888 1194 1011 928 
Q 1134 663 1356 523 
Q 1578 384 1822 384 
Q 2178 384 2434 671 
Q 2691 959 2691 1453 
Q 2691 1928 2437 2201 
Q 2184 2475 1800 2475 
Q 1419 2475 1153 2201 
Q 888 1928 888 1484 
z
" transform="scale(0.015625)"/>
      </defs>
      <use xlink:href="#ArialMT-31"/>
      <use xlink:href="#ArialMT-65" x="55.615234"/>
      <use xlink:href="#ArialMT-36" x="111.230469"/>
     </g>
    </g>
   </g>
   <g id="line2d_8">
    <path d="M 105.408847 58.119887 
L 108.291442 58.244012 
L 111.174038 58.390188 
L 114.056633 58.622191 
L 116.939228 58.888062 
L 119.821824 59.201359 
L 122.704419 59.570794 
L 125.587014 60.041429 
L 128.46961 60.419335 
L 131.352205 60.977537 
L 134.2348 61.613425 
L 137.117396 62.337571 
L 139.999991 62.947997 
L 142.882586 63.788563 
L 145.765182 64.57696 
L 148.647777 65.693463 
L 151.530372 66.040098 
L 154.412968 67.331686 
L 157.295563 68.339916 
L 160.178158 69.105868 
L 163.060754 70.4505 
L 165.943349 71.866036 
L 168.825944 72.880627 
L 171.70854 74.456102 
L 174.591135 75.361526 
L 177.47373 76.605983 
L 180.356326 77.974429 
L 183.238921 79.753105 
L 186.121516 81.571926 
L 189.004112 82.753048 
L 191.886707 83.631223 
L 194.769302 86.203127 
L 197.651898 87.248287 
L 200.534493 89.299782 
L 203.417088 89.652404 
L 206.299684 93.340045 
L 209.182279 94.423496 
L 212.064874 98.247064 
L 214.94747 97.910197 
L 217.830065 101.322075 
L 220.71266 103.600513 
L 223.595256 105.699333 
L 226.477851 107.133685 
L 229.360446 107.918839 
L 232.243042 110.293213 
L 235.125637 113.623502 
L 238.008232 114.687507 
L 240.890828 116.539105 
L 243.773423 119.58524 
L 246.656018 122.065337 
L 249.538614 125.808682 
L 252.421209 127.908254 
L 255.303804 130.408998 
L 258.1864 133.641866 
L 261.068995 136.397979 
L 263.95159 136.947544 
L 266.834186 139.21554 
L 269.716781 143.391051 
L 272.599376 142.174097 
L 275.481972 145.680803 
L 278.364567 152.907347 
L 281.247162 154.507043 
L 284.129758 153.161477 
L 287.012353 155.518095 
L 289.894948 161.088587 
L 292.777544 165.838299 
L 295.660139 170.360617 
L 298.542734 171.108853 
L 301.42533 174.710492 
L 304.307925 177.815364 
L 307.19052 180.528248 
L 310.073116 186.644005 
L 312.955711 187.058363 
L 315.838306 192.152606 
L 318.720902 197.089832 
L 321.603497 194.827752 
L 324.486092 198.124314 
L 327.368688 204.340327 
L 330.251283 210.471385 
L 333.133878 205.964879 
L 336.016474 215.585211 
L 338.899069 219.155379 
L 341.781664 218.78169 
L 344.66426 224.977204 
L 347.546855 232.157207 
L 350.42945 229.502849 
L 353.312046 230.664748 
L 356.194641 236.510572 
L 359.077236 238.543167 
L 361.959832 244.02399 
L 364.842427 256.572353 
L 367.725022 251.626633 
L 370.607618 260.268087 
L 373.490213 250.337404 
L 376.372808 268.327888 
L 379.255404 274.963398 
L 382.137999 272.17523 
L 385.020594 285.739091 
L 387.90319 273.873061 
L 390.785785 285.341115 
" clip-path="url(#p0b9a4f6f7d)" style="fill: none; stroke: #0c2e8a; stroke-width: 2; stroke-linecap: round"/>
   </g>
   <g id="line2d_9">
    <path d="M 105.408847 58.073987 
L 108.291442 58.07345 
L 111.174038 58.072634 
L 114.056633 58.071626 
L 116.939228 58.070367 
L 119.821824 58.068754 
L 122.704419 58.066764 
L 125.587014 58.064479 
L 128.46961 58.061888 
L 131.352205 58.058959 
L 134.2348 58.055907 
L 137.117396 58.052559 
L 139.999991 58.049025 
L 142.882586 58.045053 
L 145.765182 58.040722 
L 148.647777 58.036398 
L 151.530372 58.031517 
L 154.412968 58.026401 
L 157.295563 58.021286 
L 160.178158 58.015397 
L 163.060754 58.009491 
L 165.943349 58.003653 
L 168.825944 57.997585 
L 171.70854 57.990828 
L 174.591135 57.984096 
L 177.47373 57.977013 
L 180.356326 57.969662 
L 183.238921 57.962382 
L 186.121516 57.955086 
L 189.004112 57.947427 
L 191.886707 57.938733 
L 194.769302 57.930236 
L 197.651898 57.922002 
L 200.534493 57.913048 
L 203.417088 57.903286 
L 206.299684 57.893986 
L 209.182279 57.884807 
L 212.064874 57.875796 
L 214.94747 57.86578 
L 217.830065 57.856285 
L 220.71266 57.84654 
L 223.595256 57.836069 
L 226.477851 57.825557 
L 229.360446 57.814217 
L 232.243042 57.802723 
L 235.125637 57.791525 
L 238.008232 57.779444 
L 240.890828 57.767347 
L 243.773423 57.75504 
L 246.656018 57.742883 
L 249.538614 57.730691 
L 252.421209 57.718202 
L 255.303804 57.705823 
L 258.1864 57.69331 
L 261.068995 57.680437 
L 263.95159 57.667057 
L 266.834186 57.653332 
L 269.716781 57.639811 
L 272.599376 57.625396 
L 275.481972 57.611019 
L 278.364567 57.59727 
L 281.247162 57.583574 
L 284.129758 57.56877 
L 287.012353 57.553687 
L 289.894948 57.537656 
L 292.777544 57.522345 
L 295.660139 57.50769 
L 298.542734 57.492178 
L 301.42533 57.476425 
L 304.307925 57.460992 
L 307.19052 57.445015 
L 310.073116 57.429117 
L 312.955711 57.413441 
L 315.838306 57.397873 
L 318.720902 57.381729 
L 321.603497 57.365611 
L 324.486092 57.348258 
L 327.368688 57.331602 
L 330.251283 57.315578 
L 333.133878 57.298146 
L 336.016474 57.280656 
L 338.899069 57.263049 
L 341.781664 57.24516 
L 344.66426 57.227666 
L 347.546855 57.2102 
L 350.42945 57.192072 
L 353.312046 57.17237 
L 356.194641 57.152729 
L 359.077236 57.133859 
L 361.959832 57.115584 
L 364.842427 57.097683 
L 367.725022 57.078598 
L 370.607618 57.0591 
L 373.490213 57.039342 
L 376.372808 57.019759 
L 379.255404 57.000647 
L 382.137999 56.980802 
L 385.020594 56.961375 
L 387.90319 56.941063 
L 390.785785 56.920909 
" clip-path="url(#p0b9a4f6f7d)" style="fill: none; stroke-dasharray: 7.4,3.2; stroke-dashoffset: 0; stroke: #ffc640; stroke-width: 2"/>
   </g>
   <g id="patch_3">
    <path d="M 91.14 297.18 
L 91.14 45.48 
" style="fill: none; stroke: #9d9d9d; stroke-width: 0.6; stroke-linejoin: miter; stroke-linecap: square"/>
   </g>
   <g id="patch_4">
    <path d="M 405.054632 297.18 
L 405.054632 45.48 
" style="fill: none; stroke: #9d9d9d; stroke-width: 0.6; stroke-linejoin: miter; stroke-linecap: square"/>
   </g>
   <g id="patch_5">
    <path d="M 91.14 297.18 
L 405.054632 297.18 
" style="fill: none; stroke: #9d9d9d; stroke-width: 0.6; stroke-linejoin: miter; stroke-linecap: square"/>
   </g>
   <g id="patch_6">
    <path d="M 91.14 45.48 
L 405.054632 45.48 
" style="fill: none; stroke: #9d9d9d; stroke-width: 0.6; stroke-linejoin: miter; stroke-linecap: square"/>
   </g>
   <g id="legend_1">
    <g id="patch_7">
     <path d="M 106.54 286.18 
L 219.733438 286.18 
Q 224.133438 286.18 224.133438 281.78 
L 224.133438 221.740625 
Q 224.133438 217.340625 219.733438 217.340625 
L 106.54 217.340625 
Q 102.14 217.340625 102.14 221.740625 
L 102.14 281.78 
Q 102.14 286.18 106.54 286.18 
z
" style="fill: #ffffff; opacity: 0.8; stroke: #cccccc; stroke-width: 0.8; stroke-linejoin: miter"/>
    </g>
    <g id="line2d_10">
     <path d="M 110.94 234.187812 
L 132.94 234.187812 
L 154.94 234.187812 
" style="fill: none; stroke: #0c2e8a; stroke-width: 2; stroke-linecap: round"/>
    </g>
    <g id="text_11">
     <!-- train -->
     <g style="fill: #262626" transform="translate(172.54 241.887812) scale(0.22 -0.22)">
      <defs>
       <path id="ArialMT-74" d="M 1650 503 
L 1731 6 
Q 1494 -44 1306 -44 
Q 1000 -44 831 53 
Q 663 150 594 308 
Q 525 466 525 972 
L 525 2881 
L 113 2881 
L 113 3319 
L 525 3319 
L 525 4141 
L 1084 4478 
L 1084 3319 
L 1650 3319 
L 1650 2881 
L 1084 2881 
L 1084 941 
Q 1084 700 1114 631 
Q 1144 563 1211 522 
Q 1278 481 1403 481 
Q 1497 481 1650 503 
z
" transform="scale(0.015625)"/>
       <path id="ArialMT-72" d="M 416 0 
L 416 3319 
L 922 3319 
L 922 2816 
Q 1116 3169 1280 3281 
Q 1444 3394 1641 3394 
Q 1925 3394 2219 3213 
L 2025 2691 
Q 1819 2813 1613 2813 
Q 1428 2813 1281 2702 
Q 1134 2591 1072 2394 
Q 978 2094 978 1738 
L 978 0 
L 416 0 
z
" transform="scale(0.015625)"/>
       <path id="ArialMT-61" d="M 2588 409 
Q 2275 144 1986 34 
Q 1697 -75 1366 -75 
Q 819 -75 525 192 
Q 231 459 231 875 
Q 231 1119 342 1320 
Q 453 1522 633 1644 
Q 813 1766 1038 1828 
Q 1203 1872 1538 1913 
Q 2219 1994 2541 2106 
Q 2544 2222 2544 2253 
Q 2544 2597 2384 2738 
Q 2169 2928 1744 2928 
Q 1347 2928 1158 2789 
Q 969 2650 878 2297 
L 328 2372 
Q 403 2725 575 2942 
Q 747 3159 1072 3276 
Q 1397 3394 1825 3394 
Q 2250 3394 2515 3294 
Q 2781 3194 2906 3042 
Q 3031 2891 3081 2659 
Q 3109 2516 3109 2141 
L 3109 1391 
Q 3109 606 3145 398 
Q 3181 191 3288 0 
L 2700 0 
Q 2613 175 2588 409 
z
M 2541 1666 
Q 2234 1541 1622 1453 
Q 1275 1403 1131 1340 
Q 988 1278 909 1158 
Q 831 1038 831 891 
Q 831 666 1001 516 
Q 1172 366 1500 366 
Q 1825 366 2078 508 
Q 2331 650 2450 897 
Q 2541 1088 2541 1459 
L 2541 1666 
z
" transform="scale(0.015625)"/>
       <path id="ArialMT-69" d="M 425 3934 
L 425 4581 
L 988 4581 
L 988 3934 
L 425 3934 
z
M 425 0 
L 425 3319 
L 988 3319 
L 988 0 
L 425 0 
z
" transform="scale(0.015625)"/>
       <path id="ArialMT-6e" d="M 422 0 
L 422 3319 
L 928 3319 
L 928 2847 
Q 1294 3394 1984 3394 
Q 2284 3394 2536 3286 
Q 2788 3178 2913 3003 
Q 3038 2828 3088 2588 
Q 3119 2431 3119 2041 
L 3119 0 
L 2556 0 
L 2556 2019 
Q 2556 2363 2490 2533 
Q 2425 2703 2258 2804 
Q 2091 2906 1866 2906 
Q 1506 2906 1245 2678 
Q 984 2450 984 1813 
L 984 0 
L 422 0 
z
" transform="scale(0.015625)"/>
      </defs>
      <use xlink:href="#ArialMT-74"/>
      <use xlink:href="#ArialMT-72" x="27.783203"/>
      <use xlink:href="#ArialMT-61" x="61.083984"/>
      <use xlink:href="#ArialMT-69" x="116.699219"/>
      <use xlink:href="#ArialMT-6e" x="138.916016"/>
     </g>
    </g>
    <g id="line2d_11">
     <path d="M 110.94 265.3075 
L 132.94 265.3075 
L 154.94 265.3075 
" style="fill: none; stroke-dasharray: 7.4,3.2; stroke-dashoffset: 0; stroke: #ffc640; stroke-width: 2"/>
    </g>
    <g id="text_12">
     <!-- val -->
     <g style="fill: #262626" transform="translate(172.54 273.0075) scale(0.22 -0.22)">
      <defs>
       <path id="ArialMT-76" d="M 1344 0 
L 81 3319 
L 675 3319 
L 1388 1331 
Q 1503 1009 1600 663 
Q 1675 925 1809 1294 
L 2547 3319 
L 3125 3319 
L 1869 0 
L 1344 0 
z
" transform="scale(0.015625)"/>
       <path id="ArialMT-6c" d="M 409 0 
L 409 4581 
L 972 4581 
L 972 0 
L 409 0 
z
" transform="scale(0.015625)"/>
      </defs>
      <use xlink:href="#ArialMT-76"/>
      <use xlink:href="#ArialMT-61" x="50"/>
      <use xlink:href="#ArialMT-6c" x="105.615234"/>
     </g>
    </g>
   </g>
  </g>
  <g id="axes_2">
   <g id="patch_8">
    <path d="M 502.745368 297.18 
L 816.66 297.18 
L 816.66 45.48 
L 502.745368 45.48 
z
" style="fill: #ffffff"/>
   </g>
   <g id="matplotlib.axis_3">
    <g id="xtick_4">
     <g id="line2d_12">
      <g>
       <use xlink:href="#ma6814fc7bb" x="517.014215" y="297.18" style="fill: #262626; stroke: #262626"/>
      </g>
     </g>
     <g id="text_13">
      <!-- 0 -->
      <g style="fill: #262626" transform="translate(510.897184 321.227187) scale(0.22 -0.22)">
       <use xlink:href="#ArialMT-30"/>
      </g>
     </g>
    </g>
    <g id="xtick_5">
     <g id="line2d_13">
      <g>
       <use xlink:href="#ma6814fc7bb" x="661.143982" y="297.18" style="fill: #262626; stroke: #262626"/>
      </g>
     </g>
     <g id="text_14">
      <!-- 50 -->
      <g style="fill: #262626" transform="translate(648.909919 321.227187) scale(0.22 -0.22)">
       <use xlink:href="#ArialMT-35"/>
       <use xlink:href="#ArialMT-30" x="55.615234"/>
      </g>
     </g>
    </g>
    <g id="xtick_6">
     <g id="line2d_14">
      <g>
       <use xlink:href="#ma6814fc7bb" x="805.273748" y="297.18" style="fill: #262626; stroke: #262626"/>
      </g>
     </g>
     <g id="text_15">
      <!-- 100 -->
      <g style="fill: #262626" transform="translate(786.922655 321.227187) scale(0.22 -0.22)">
       <use xlink:href="#ArialMT-31"/>
       <use xlink:href="#ArialMT-30" x="55.615234"/>
       <use xlink:href="#ArialMT-30" x="111.230469"/>
      </g>
     </g>
    </g>
    <g id="text_16">
     <!-- Epoch -->
     <g style="fill: #262626" transform="translate(625.678934 346.778437) scale(0.24 -0.24)">
      <use xlink:href="#ArialMT-45"/>
      <use xlink:href="#ArialMT-70" x="66.699219"/>
      <use xlink:href="#ArialMT-6f" x="122.314453"/>
      <use xlink:href="#ArialMT-63" x="177.929688"/>
      <use xlink:href="#ArialMT-68" x="227.929688"/>
     </g>
    </g>
   </g>
   <g id="matplotlib.axis_4">
    <g id="ytick_5">
     <g id="line2d_15">
      <g>
       <use xlink:href="#m6d3f9349ca" x="502.745368" y="285.739091" style="fill: #262626; stroke: #262626"/>
      </g>
     </g>
     <g id="text_17">
      <!-- 0.0 -->
      <g style="fill: #262626" transform="translate(463.865368 293.612685) scale(0.22 -0.22)">
       <defs>
        <path id="ArialMT-2e" d="M 581 0 
L 581 641 
L 1222 641 
L 1222 0 
L 581 0 
z
" transform="scale(0.015625)"/>
       </defs>
       <use xlink:href="#ArialMT-30"/>
       <use xlink:href="#ArialMT-2e" x="55.615234"/>
       <use xlink:href="#ArialMT-30" x="83.398438"/>
      </g>
     </g>
    </g>
    <g id="ytick_6">
     <g id="line2d_16">
      <g>
       <use xlink:href="#m6d3f9349ca" x="502.745368" y="235.248488" style="fill: #262626; stroke: #262626"/>
      </g>
     </g>
     <g id="text_18">
      <!-- 0.2 -->
      <g style="fill: #262626" transform="translate(463.865368 243.122082) scale(0.22 -0.22)">
       <use xlink:href="#ArialMT-30"/>
       <use xlink:href="#ArialMT-2e" x="55.615234"/>
       <use xlink:href="#ArialMT-32" x="83.398438"/>
      </g>
     </g>
    </g>
    <g id="ytick_7">
     <g id="line2d_17">
      <g>
       <use xlink:href="#m6d3f9349ca" x="502.745368" y="184.757885" style="fill: #262626; stroke: #262626"/>
      </g>
     </g>
     <g id="text_19">
      <!-- 0.4 -->
      <g style="fill: #262626" transform="translate(463.865368 192.631479) scale(0.22 -0.22)">
       <defs>
        <path id="ArialMT-34" d="M 2069 0 
L 2069 1097 
L 81 1097 
L 81 1613 
L 2172 4581 
L 2631 4581 
L 2631 1613 
L 3250 1613 
L 3250 1097 
L 2631 1097 
L 2631 0 
L 2069 0 
z
M 2069 1613 
L 2069 3678 
L 634 1613 
L 2069 1613 
z
" transform="scale(0.015625)"/>
       </defs>
       <use xlink:href="#ArialMT-30"/>
       <use xlink:href="#ArialMT-2e" x="55.615234"/>
       <use xlink:href="#ArialMT-34" x="83.398438"/>
      </g>
     </g>
    </g>
    <g id="ytick_8">
     <g id="line2d_18">
      <g>
       <use xlink:href="#m6d3f9349ca" x="502.745368" y="134.267282" style="fill: #262626; stroke: #262626"/>
      </g>
     </g>
     <g id="text_20">
      <!-- 0.6 -->
      <g style="fill: #262626" transform="translate(463.865368 142.140876) scale(0.22 -0.22)">
       <use xlink:href="#ArialMT-30"/>
       <use xlink:href="#ArialMT-2e" x="55.615234"/>
       <use xlink:href="#ArialMT-36" x="83.398438"/>
      </g>
     </g>
    </g>
    <g id="ytick_9">
     <g id="line2d_19">
      <g>
       <use xlink:href="#m6d3f9349ca" x="502.745368" y="83.77668" style="fill: #262626; stroke: #262626"/>
      </g>
     </g>
     <g id="text_21">
      <!-- 0.8 -->
      <g style="fill: #262626" transform="translate(463.865368 91.650273) scale(0.22 -0.22)">
       <defs>
        <path id="ArialMT-38" d="M 1131 2484 
Q 781 2613 612 2850 
Q 444 3088 444 3419 
Q 444 3919 803 4259 
Q 1163 4600 1759 4600 
Q 2359 4600 2725 4251 
Q 3091 3903 3091 3403 
Q 3091 3084 2923 2848 
Q 2756 2613 2416 2484 
Q 2838 2347 3058 2040 
Q 3278 1734 3278 1309 
Q 3278 722 2862 322 
Q 2447 -78 1769 -78 
Q 1091 -78 675 323 
Q 259 725 259 1325 
Q 259 1772 486 2073 
Q 713 2375 1131 2484 
z
M 1019 3438 
Q 1019 3113 1228 2906 
Q 1438 2700 1772 2700 
Q 2097 2700 2305 2904 
Q 2513 3109 2513 3406 
Q 2513 3716 2298 3927 
Q 2084 4138 1766 4138 
Q 1444 4138 1231 3931 
Q 1019 3725 1019 3438 
z
M 838 1322 
Q 838 1081 952 856 
Q 1066 631 1291 507 
Q 1516 384 1775 384 
Q 2178 384 2440 643 
Q 2703 903 2703 1303 
Q 2703 1709 2433 1975 
Q 2163 2241 1756 2241 
Q 1359 2241 1098 1978 
Q 838 1716 838 1322 
z
" transform="scale(0.015625)"/>
       </defs>
       <use xlink:href="#ArialMT-30"/>
       <use xlink:href="#ArialMT-2e" x="55.615234"/>
       <use xlink:href="#ArialMT-38" x="83.398438"/>
      </g>
     </g>
    </g>
    <g id="text_22">
     <!-- AUC -->
     <g style="fill: #262626" transform="translate(455.095368 196.666875) rotate(-90) scale(0.24 -0.24)">
      <defs>
       <path id="ArialMT-41" d="M -9 0 
L 1750 4581 
L 2403 4581 
L 4278 0 
L 3588 0 
L 3053 1388 
L 1138 1388 
L 634 0 
L -9 0 
z
M 1313 1881 
L 2866 1881 
L 2388 3150 
Q 2169 3728 2063 4100 
Q 1975 3659 1816 3225 
L 1313 1881 
z
" transform="scale(0.015625)"/>
       <path id="ArialMT-55" d="M 3500 4581 
L 4106 4581 
L 4106 1934 
Q 4106 1244 3950 837 
Q 3794 431 3386 176 
Q 2978 -78 2316 -78 
Q 1672 -78 1262 144 
Q 853 366 678 786 
Q 503 1206 503 1934 
L 503 4581 
L 1109 4581 
L 1109 1938 
Q 1109 1341 1220 1058 
Q 1331 775 1601 622 
Q 1872 469 2263 469 
Q 2931 469 3215 772 
Q 3500 1075 3500 1938 
L 3500 4581 
z
" transform="scale(0.015625)"/>
       <path id="ArialMT-43" d="M 3763 1606 
L 4369 1453 
Q 4178 706 3683 314 
Q 3188 -78 2472 -78 
Q 1731 -78 1267 223 
Q 803 525 561 1097 
Q 319 1669 319 2325 
Q 319 3041 592 3573 
Q 866 4106 1370 4382 
Q 1875 4659 2481 4659 
Q 3169 4659 3637 4309 
Q 4106 3959 4291 3325 
L 3694 3184 
Q 3534 3684 3231 3912 
Q 2928 4141 2469 4141 
Q 1941 4141 1586 3887 
Q 1231 3634 1087 3207 
Q 944 2781 944 2328 
Q 944 1744 1114 1308 
Q 1284 872 1643 656 
Q 2003 441 2422 441 
Q 2931 441 3284 734 
Q 3638 1028 3763 1606 
z
" transform="scale(0.015625)"/>
      </defs>
      <use xlink:href="#ArialMT-41"/>
      <use xlink:href="#ArialMT-55" x="66.699219"/>
      <use xlink:href="#ArialMT-43" x="138.916016"/>
     </g>
    </g>
   </g>
   <g id="line2d_20">
    <path d="M 517.014215 285.739091 
L 519.89681 285.739091 
L 522.779406 285.739091 
L 525.662001 285.739091 
L 528.544596 285.739091 
L 531.427192 285.739091 
L 534.309787 285.739091 
L 537.192382 285.739091 
L 540.074978 285.739091 
L 542.957573 285.739091 
L 545.840168 285.739091 
L 548.722764 285.739091 
L 551.605359 285.739091 
L 554.487954 285.739091 
L 557.37055 285.739091 
L 560.253145 285.739091 
L 563.13574 285.739091 
L 566.018336 285.739091 
L 568.900931 285.739091 
L 571.783526 285.739091 
L 574.666122 285.739091 
L 577.548717 285.739091 
L 580.431312 285.739091 
L 583.313908 285.739091 
L 586.196503 285.739091 
L 589.079098 285.739091 
L 591.961694 285.739091 
L 594.844289 285.739091 
L 597.726884 285.739091 
L 600.60948 285.739091 
L 603.492075 285.739091 
L 606.37467 285.739091 
L 609.257266 285.739091 
L 612.139861 285.739091 
L 615.022456 285.739091 
L 617.905052 285.739091 
L 620.787647 285.739091 
L 623.670242 285.739091 
L 626.552838 285.739091 
L 629.435433 285.739091 
L 632.318028 285.739091 
L 635.200624 285.739091 
L 638.083219 285.739091 
L 640.965814 285.739091 
L 643.84841 285.739091 
L 646.731005 285.739091 
L 649.6136 285.739091 
L 652.496196 285.739091 
L 655.378791 285.739091 
L 658.261386 285.739091 
L 661.143982 285.739091 
L 664.026577 285.739091 
L 666.909172 285.739091 
L 669.791768 285.739091 
L 672.674363 285.739091 
L 675.556958 285.739091 
L 678.439554 285.739091 
L 681.322149 285.739091 
L 684.204744 285.739091 
L 687.08734 285.739091 
L 689.969935 285.739091 
L 692.85253 285.739091 
L 695.735126 285.739091 
L 698.617721 285.739091 
L 701.500316 285.739091 
L 704.382912 285.739091 
L 707.265507 285.739091 
L 710.148102 285.739091 
L 713.030698 285.739091 
L 715.913293 285.739091 
L 718.795888 285.739091 
L 721.678484 285.739091 
L 724.561079 285.739091 
L 727.443674 285.739091 
L 730.32627 285.739091 
L 733.208865 285.739091 
L 736.09146 285.739091 
L 738.974056 285.739091 
L 741.856651 285.739091 
L 744.739246 285.739091 
L 747.621842 285.739091 
L 750.504437 285.739091 
L 753.387032 285.739091 
L 756.269628 285.739091 
L 759.152223 285.739091 
L 762.034818 285.739091 
L 764.917414 285.739091 
L 767.800009 285.739091 
L 770.682604 285.739091 
L 773.5652 285.739091 
L 776.447795 285.739091 
L 779.33039 285.739091 
L 782.212986 285.739091 
L 785.095581 285.739091 
L 787.978176 285.739091 
L 790.860772 285.739091 
L 793.743367 285.739091 
L 796.625962 285.739091 
L 799.508558 285.739091 
L 802.391153 285.739091 
" clip-path="url(#peb13061766)" style="fill: none; stroke: #0c2e8a; stroke-width: 2; stroke-linecap: round"/>
   </g>
   <g id="line2d_21">
    <path d="M 517.014215 56.920909 
L 519.89681 157.603795 
L 522.779406 159.502171 
L 525.662001 159.511786 
L 528.544596 159.512584 
L 531.427192 159.512584 
L 534.309787 159.512584 
L 537.192382 159.512584 
L 540.074978 159.512584 
L 542.957573 159.512584 
L 545.840168 159.512584 
L 548.722764 159.512584 
L 551.605359 159.512584 
L 554.487954 159.512584 
L 557.37055 159.512584 
L 560.253145 159.512584 
L 563.13574 159.512584 
L 566.018336 159.512584 
L 568.900931 159.512584 
L 571.783526 159.512584 
L 574.666122 159.512584 
L 577.548717 159.512584 
L 580.431312 159.512584 
L 583.313908 159.512584 
L 586.196503 159.512584 
L 589.079098 159.512584 
L 591.961694 159.512584 
L 594.844289 159.512584 
L 597.726884 159.512584 
L 600.60948 159.512584 
L 603.492075 159.512584 
L 606.37467 159.512584 
L 609.257266 159.512584 
L 612.139861 159.512584 
L 615.022456 159.512584 
L 617.905052 159.512584 
L 620.787647 159.512584 
L 623.670242 159.512584 
L 626.552838 159.512584 
L 629.435433 159.512584 
L 632.318028 159.512584 
L 635.200624 159.512584 
L 638.083219 159.512584 
L 640.965814 159.512584 
L 643.84841 159.512584 
L 646.731005 159.512584 
L 649.6136 159.512584 
L 652.496196 159.512584 
L 655.378791 159.512584 
L 658.261386 159.512584 
L 661.143982 159.512584 
L 664.026577 159.512584 
L 666.909172 159.512584 
L 669.791768 159.512584 
L 672.674363 159.512584 
L 675.556958 159.512584 
L 678.439554 159.512584 
L 681.322149 159.512584 
L 684.204744 159.512584 
L 687.08734 159.512584 
L 689.969935 159.512584 
L 692.85253 159.512584 
L 695.735126 159.512584 
L 698.617721 159.512584 
L 701.500316 159.512584 
L 704.382912 159.512584 
L 707.265507 159.512584 
L 710.148102 159.512584 
L 713.030698 159.512584 
L 715.913293 159.512584 
L 718.795888 159.512584 
L 721.678484 159.512584 
L 724.561079 159.512584 
L 727.443674 159.512584 
L 730.32627 159.512584 
L 733.208865 159.512584 
L 736.09146 159.512584 
L 738.974056 159.512584 
L 741.856651 159.512584 
L 744.739246 159.512584 
L 747.621842 159.512584 
L 750.504437 159.512584 
L 753.387032 159.512584 
L 756.269628 159.512584 
L 759.152223 159.512584 
L 762.034818 159.512584 
L 764.917414 159.512584 
L 767.800009 159.512584 
L 770.682604 159.512584 
L 773.5652 159.512584 
L 776.447795 159.512584 
L 779.33039 159.512584 
L 782.212986 159.512584 
L 785.095581 159.512584 
L 787.978176 159.512584 
L 790.860772 159.512584 
L 793.743367 159.512584 
L 796.625962 159.512584 
L 799.508558 159.512584 
L 802.391153 159.512584 
" clip-path="url(#peb13061766)" style="fill: none; stroke-dasharray: 7.4,3.2; stroke-dashoffset: 0; stroke: #ffc640; stroke-width: 2"/>
   </g>
   <g id="patch_9">
    <path d="M 502.745368 297.18 
L 502.745368 45.48 
" style="fill: none; stroke: #9d9d9d; stroke-width: 0.6; stroke-linejoin: miter; stroke-linecap: square"/>
   </g>
   <g id="patch_10">
    <path d="M 816.66 297.18 
L 816.66 45.48 
" style="fill: none; stroke: #9d9d9d; stroke-width: 0.6; stroke-linejoin: miter; stroke-linecap: square"/>
   </g>
   <g id="patch_11">
    <path d="M 502.745368 297.18 
L 816.66 297.18 
" style="fill: none; stroke: #9d9d9d; stroke-width: 0.6; stroke-linejoin: miter; stroke-linecap: square"/>
   </g>
   <g id="patch_12">
    <path d="M 502.745368 45.48 
L 816.66 45.48 
" style="fill: none; stroke: #9d9d9d; stroke-width: 0.6; stroke-linejoin: miter; stroke-linecap: square"/>
   </g>
   <g id="legend_2">
    <g id="patch_13">
     <path d="M 688.066562 125.319375 
L 801.26 125.319375 
Q 805.66 125.319375 805.66 120.919375 
L 805.66 60.88 
Q 805.66 56.48 801.26 56.48 
L 688.066562 56.48 
Q 683.666562 56.48 683.666562 60.88 
L 683.666562 120.919375 
Q 683.666562 125.319375 688.066562 125.319375 
z
" style="fill: #ffffff; opacity: 0.8; stroke: #cccccc; stroke-width: 0.8; stroke-linejoin: miter"/>
    </g>
    <g id="line2d_22">
     <path d="M 692.466562 73.327187 
L 714.466562 73.327187 
L 736.466562 73.327187 
" style="fill: none; stroke: #0c2e8a; stroke-width: 2; stroke-linecap: round"/>
    </g>
    <g id="text_23">
     <!-- train -->
     <g style="fill: #262626" transform="translate(754.066562 81.027187) scale(0.22 -0.22)">
      <use xlink:href="#ArialMT-74"/>
      <use xlink:href="#ArialMT-72" x="27.783203"/>
      <use xlink:href="#ArialMT-61" x="61.083984"/>
      <use xlink:href="#ArialMT-69" x="116.699219"/>
      <use xlink:href="#ArialMT-6e" x="138.916016"/>
     </g>
    </g>
    <g id="line2d_23">
     <path d="M 692.466562 104.446875 
L 714.466562 104.446875 
L 736.466562 104.446875 
" style="fill: none; stroke-dasharray: 7.4,3.2; stroke-dashoffset: 0; stroke: #ffc640; stroke-width: 2"/>
    </g>
    <g id="text_24">
     <!-- val -->
     <g style="fill: #262626" transform="translate(754.066562 112.146875) scale(0.22 -0.22)">
      <use xlink:href="#ArialMT-76"/>
      <use xlink:href="#ArialMT-61" x="50"/>
      <use xlink:href="#ArialMT-6c" x="105.615234"/>
     </g>
    </g>
   </g>
  </g>
  <g id="axes_3">
   <g id="patch_14">
    <path d="M 91.14 638.58 
L 405.054632 638.58 
L 405.054632 386.88 
L 91.14 386.88 
z
" style="fill: #ffffff"/>
   </g>
   <g id="matplotlib.axis_5">
    <g id="xtick_7">
     <g id="line2d_24">
      <g>
       <use xlink:href="#ma6814fc7bb" x="105.408847" y="638.58" style="fill: #262626; stroke: #262626"/>
      </g>
     </g>
     <g id="text_25">
      <!-- 0 -->
      <g style="fill: #262626" transform="translate(99.291816 662.627187) scale(0.22 -0.22)">
       <use xlink:href="#ArialMT-30"/>
      </g>
     </g>
    </g>
    <g id="xtick_8">
     <g id="line2d_25">
      <g>
       <use xlink:href="#ma6814fc7bb" x="249.538614" y="638.58" style="fill: #262626; stroke: #262626"/>
      </g>
     </g>
     <g id="text_26">
      <!-- 50 -->
      <g style="fill: #262626" transform="translate(237.304551 662.627187) scale(0.22 -0.22)">
       <use xlink:href="#ArialMT-35"/>
       <use xlink:href="#ArialMT-30" x="55.615234"/>
      </g>
     </g>
    </g>
    <g id="xtick_9">
     <g id="line2d_26">
      <g>
       <use xlink:href="#ma6814fc7bb" x="393.66838" y="638.58" style="fill: #262626; stroke: #262626"/>
      </g>
     </g>
     <g id="text_27">
      <!-- 100 -->
      <g style="fill: #262626" transform="translate(375.317287 662.627187) scale(0.22 -0.22)">
       <use xlink:href="#ArialMT-31"/>
       <use xlink:href="#ArialMT-30" x="55.615234"/>
       <use xlink:href="#ArialMT-30" x="111.230469"/>
      </g>
     </g>
    </g>
    <g id="text_28">
     <!-- Epoch -->
     <g style="fill: #262626" transform="translate(214.073566 688.178437) scale(0.24 -0.24)">
      <use xlink:href="#ArialMT-45"/>
      <use xlink:href="#ArialMT-70" x="66.699219"/>
      <use xlink:href="#ArialMT-6f" x="122.314453"/>
      <use xlink:href="#ArialMT-63" x="177.929688"/>
      <use xlink:href="#ArialMT-68" x="227.929688"/>
     </g>
    </g>
   </g>
   <g id="matplotlib.axis_6">
    <g id="ytick_10">
     <g id="line2d_27">
      <g>
       <use xlink:href="#m6d3f9349ca" x="91.14" y="627.173925" style="fill: #262626; stroke: #262626"/>
      </g>
     </g>
     <g id="text_29">
      <!-- 0.00 -->
      <g style="fill: #262626" transform="translate(40.025938 635.047519) scale(0.22 -0.22)">
       <use xlink:href="#ArialMT-30"/>
       <use xlink:href="#ArialMT-2e" x="55.615234"/>
       <use xlink:href="#ArialMT-30" x="83.398438"/>
       <use xlink:href="#ArialMT-30" x="139.013672"/>
      </g>
     </g>
    </g>
    <g id="ytick_11">
     <g id="line2d_28">
      <g>
       <use xlink:href="#m6d3f9349ca" x="91.14" y="569.960671" style="fill: #262626; stroke: #262626"/>
      </g>
     </g>
     <g id="text_30">
      <!-- 0.25 -->
      <g style="fill: #262626" transform="translate(40.025938 577.834265) scale(0.22 -0.22)">
       <use xlink:href="#ArialMT-30"/>
       <use xlink:href="#ArialMT-2e" x="55.615234"/>
       <use xlink:href="#ArialMT-32" x="83.398438"/>
       <use xlink:href="#ArialMT-35" x="139.013672"/>
      </g>
     </g>
    </g>
    <g id="ytick_12">
     <g id="line2d_29">
      <g>
       <use xlink:href="#m6d3f9349ca" x="91.14" y="512.747417" style="fill: #262626; stroke: #262626"/>
      </g>
     </g>
     <g id="text_31">
      <!-- 0.50 -->
      <g style="fill: #262626" transform="translate(40.025938 520.621011) scale(0.22 -0.22)">
       <use xlink:href="#ArialMT-30"/>
       <use xlink:href="#ArialMT-2e" x="55.615234"/>
       <use xlink:href="#ArialMT-35" x="83.398438"/>
       <use xlink:href="#ArialMT-30" x="139.013672"/>
      </g>
     </g>
    </g>
    <g id="ytick_13">
     <g id="line2d_30">
      <g>
       <use xlink:href="#m6d3f9349ca" x="91.14" y="455.534163" style="fill: #262626; stroke: #262626"/>
      </g>
     </g>
     <g id="text_32">
      <!-- 0.75 -->
      <g style="fill: #262626" transform="translate(40.025938 463.407757) scale(0.22 -0.22)">
       <defs>
        <path id="ArialMT-37" d="M 303 3981 
L 303 4522 
L 3269 4522 
L 3269 4084 
Q 2831 3619 2401 2847 
Q 1972 2075 1738 1259 
Q 1569 684 1522 0 
L 944 0 
Q 953 541 1156 1306 
Q 1359 2072 1739 2783 
Q 2119 3494 2547 3981 
L 303 3981 
z
" transform="scale(0.015625)"/>
       </defs>
       <use xlink:href="#ArialMT-30"/>
       <use xlink:href="#ArialMT-2e" x="55.615234"/>
       <use xlink:href="#ArialMT-37" x="83.398438"/>
       <use xlink:href="#ArialMT-35" x="139.013672"/>
      </g>
     </g>
    </g>
    <g id="ytick_14">
     <g id="line2d_31">
      <g>
       <use xlink:href="#m6d3f9349ca" x="91.14" y="398.320909" style="fill: #262626; stroke: #262626"/>
      </g>
     </g>
     <g id="text_33">
      <!-- 1.00 -->
      <g style="fill: #262626" transform="translate(40.025938 406.194503) scale(0.22 -0.22)">
       <use xlink:href="#ArialMT-31"/>
       <use xlink:href="#ArialMT-2e" x="55.615234"/>
       <use xlink:href="#ArialMT-30" x="83.398438"/>
       <use xlink:href="#ArialMT-30" x="139.013672"/>
      </g>
     </g>
    </g>
    <g id="text_34">
     <!-- Precision -->
     <g style="fill: #262626" transform="translate(31.255938 562.081875) rotate(-90) scale(0.24 -0.24)">
      <defs>
       <path id="ArialMT-50" d="M 494 0 
L 494 4581 
L 2222 4581 
Q 2678 4581 2919 4538 
Q 3256 4481 3484 4323 
Q 3713 4166 3852 3881 
Q 3991 3597 3991 3256 
Q 3991 2672 3619 2267 
Q 3247 1863 2275 1863 
L 1100 1863 
L 1100 0 
L 494 0 
z
M 1100 2403 
L 2284 2403 
Q 2872 2403 3119 2622 
Q 3366 2841 3366 3238 
Q 3366 3525 3220 3729 
Q 3075 3934 2838 4000 
Q 2684 4041 2272 4041 
L 1100 4041 
L 1100 2403 
z
" transform="scale(0.015625)"/>
      </defs>
      <use xlink:href="#ArialMT-50"/>
      <use xlink:href="#ArialMT-72" x="66.699219"/>
      <use xlink:href="#ArialMT-65" x="100"/>
      <use xlink:href="#ArialMT-63" x="155.615234"/>
      <use xlink:href="#ArialMT-69" x="205.615234"/>
      <use xlink:href="#ArialMT-73" x="227.832031"/>
      <use xlink:href="#ArialMT-69" x="277.832031"/>
      <use xlink:href="#ArialMT-6f" x="300.048828"/>
      <use xlink:href="#ArialMT-6e" x="355.664062"/>
     </g>
    </g>
   </g>
   <g id="line2d_32">
    <path d="M 105.408847 398.320909 
L 108.291442 398.320909 
L 111.174038 398.320909 
L 114.056633 398.320909 
L 116.939228 398.320909 
L 119.821824 398.320909 
L 122.704419 398.320909 
L 125.587014 398.320909 
L 128.46961 398.320909 
L 131.352205 398.320909 
L 134.2348 398.320909 
L 137.117396 398.320909 
L 139.999991 398.320909 
L 142.882586 398.320909 
L 145.765182 398.320909 
L 148.647777 398.320909 
L 151.530372 398.320909 
L 154.412968 398.320909 
L 157.295563 398.320909 
L 160.178158 398.320909 
L 163.060754 398.320909 
L 165.943349 398.320909 
L 168.825944 398.320909 
L 171.70854 398.320909 
L 174.591135 398.320909 
L 177.47373 398.320909 
L 180.356326 398.320909 
L 183.238921 398.320909 
L 186.121516 398.320909 
L 189.004112 398.320909 
L 191.886707 398.320909 
L 194.769302 398.320909 
L 197.651898 398.320909 
L 200.534493 398.320909 
L 203.417088 398.320909 
L 206.299684 398.320909 
L 209.182279 398.320909 
L 212.064874 398.320909 
L 214.94747 398.320909 
L 217.830065 398.320909 
L 220.71266 398.320909 
L 223.595256 398.320909 
L 226.477851 398.320909 
L 229.360446 398.320909 
L 232.243042 398.320909 
L 235.125637 398.320909 
L 238.008232 398.320909 
L 240.890828 398.320909 
L 243.773423 398.320909 
L 246.656018 398.320909 
L 249.538614 398.320909 
L 252.421209 398.320909 
L 255.303804 398.320909 
L 258.1864 398.320909 
L 261.068995 398.320909 
L 263.95159 398.320909 
L 266.834186 398.320909 
L 269.716781 398.320909 
L 272.599376 398.320909 
L 275.481972 398.320909 
L 278.364567 398.320909 
L 281.247162 398.320909 
L 284.129758 398.320909 
L 287.012353 398.320909 
L 289.894948 398.320909 
L 292.777544 398.320909 
L 295.660139 398.320909 
L 298.542734 398.320909 
L 301.42533 398.320909 
L 304.307925 398.320909 
L 307.19052 398.320909 
L 310.073116 398.320909 
L 312.955711 398.320909 
L 315.838306 398.320909 
L 318.720902 398.320909 
L 321.603497 398.320909 
L 324.486092 398.320909 
L 327.368688 398.320909 
L 330.251283 398.320909 
L 333.133878 398.320909 
L 336.016474 398.320909 
L 338.899069 398.320909 
L 341.781664 398.320909 
L 344.66426 398.320909 
L 347.546855 398.320909 
L 350.42945 398.320909 
L 353.312046 398.320909 
L 356.194641 398.320909 
L 359.077236 398.320909 
L 361.959832 398.320909 
L 364.842427 398.320909 
L 367.725022 398.320909 
L 370.607618 398.320909 
L 373.490213 398.320909 
L 376.372808 398.320909 
L 379.255404 398.320909 
L 382.137999 398.320909 
L 385.020594 398.320909 
L 387.90319 398.320909 
L 390.785785 398.320909 
" clip-path="url(#p4ca767b392)" style="fill: none; stroke: #0c2e8a; stroke-width: 2; stroke-linecap: round"/>
   </g>
   <g id="line2d_33">
    <path d="M 105.408847 627.138973 
L 108.291442 627.13909 
L 111.174038 627.139091 
L 114.056633 627.139091 
L 116.939228 627.139091 
L 119.821824 627.139091 
L 122.704419 627.139091 
L 125.587014 627.139091 
L 128.46961 627.139091 
L 131.352205 627.139091 
L 134.2348 627.139091 
L 137.117396 627.139091 
L 139.999991 627.139091 
L 142.882586 627.139091 
L 145.765182 627.139091 
L 148.647777 627.139091 
L 151.530372 627.139091 
L 154.412968 627.139091 
L 157.295563 627.139091 
L 160.178158 627.139091 
L 163.060754 627.139091 
L 165.943349 627.139091 
L 168.825944 627.139091 
L 171.70854 627.139091 
L 174.591135 627.139091 
L 177.47373 627.139091 
L 180.356326 627.139091 
L 183.238921 627.139091 
L 186.121516 627.139091 
L 189.004112 627.139091 
L 191.886707 627.139091 
L 194.769302 627.139091 
L 197.651898 627.139091 
L 200.534493 627.139091 
L 203.417088 627.139091 
L 206.299684 627.139091 
L 209.182279 627.139091 
L 212.064874 627.139091 
L 214.94747 627.139091 
L 217.830065 627.139091 
L 220.71266 627.139091 
L 223.595256 627.139091 
L 226.477851 627.139091 
L 229.360446 627.139091 
L 232.243042 627.139091 
L 235.125637 627.139091 
L 238.008232 627.139091 
L 240.890828 627.139091 
L 243.773423 627.139091 
L 246.656018 627.139091 
L 249.538614 627.139091 
L 252.421209 627.139091 
L 255.303804 627.139091 
L 258.1864 627.139091 
L 261.068995 627.139091 
L 263.95159 627.139091 
L 266.834186 627.139091 
L 269.716781 627.139091 
L 272.599376 627.139091 
L 275.481972 627.139091 
L 278.364567 627.139091 
L 281.247162 627.139091 
L 284.129758 627.139091 
L 287.012353 627.139091 
L 289.894948 627.139091 
L 292.777544 627.139091 
L 295.660139 627.139091 
L 298.542734 627.139091 
L 301.42533 627.139091 
L 304.307925 627.139091 
L 307.19052 627.139091 
L 310.073116 627.139091 
L 312.955711 627.139091 
L 315.838306 627.139091 
L 318.720902 627.139091 
L 321.603497 627.139091 
L 324.486092 627.139091 
L 327.368688 627.139091 
L 330.251283 627.139091 
L 333.133878 627.139091 
L 336.016474 627.139091 
L 338.899069 627.139091 
L 341.781664 627.139091 
L 344.66426 627.139091 
L 347.546855 627.139091 
L 350.42945 627.139091 
L 353.312046 627.139091 
L 356.194641 627.139091 
L 359.077236 627.139091 
L 361.959832 627.139091 
L 364.842427 627.139091 
L 367.725022 627.139091 
L 370.607618 627.139091 
L 373.490213 627.139091 
L 376.372808 627.139091 
L 379.255404 627.139091 
L 382.137999 627.139091 
L 385.020594 627.139091 
L 387.90319 627.139091 
L 390.785785 627.139091 
" clip-path="url(#p4ca767b392)" style="fill: none; stroke-dasharray: 7.4,3.2; stroke-dashoffset: 0; stroke: #ffc640; stroke-width: 2"/>
   </g>
   <g id="patch_15">
    <path d="M 91.14 638.58 
L 91.14 386.88 
" style="fill: none; stroke: #9d9d9d; stroke-width: 0.6; stroke-linejoin: miter; stroke-linecap: square"/>
   </g>
   <g id="patch_16">
    <path d="M 405.054632 638.58 
L 405.054632 386.88 
" style="fill: none; stroke: #9d9d9d; stroke-width: 0.6; stroke-linejoin: miter; stroke-linecap: square"/>
   </g>
   <g id="patch_17">
    <path d="M 91.14 638.58 
L 405.054632 638.58 
" style="fill: none; stroke: #9d9d9d; stroke-width: 0.6; stroke-linejoin: miter; stroke-linecap: square"/>
   </g>
   <g id="patch_18">
    <path d="M 91.14 386.88 
L 405.054632 386.88 
" style="fill: none; stroke: #9d9d9d; stroke-width: 0.6; stroke-linejoin: miter; stroke-linecap: square"/>
   </g>
   <g id="legend_3">
    <g id="patch_19">
     <path d="M 276.461194 547.149688 
L 389.654632 547.149688 
Q 394.054632 547.149688 394.054632 542.749688 
L 394.054632 482.710312 
Q 394.054632 478.310313 389.654632 478.310313 
L 276.461194 478.310313 
Q 272.061194 478.310313 272.061194 482.710312 
L 272.061194 542.749688 
Q 272.061194 547.149688 276.461194 547.149688 
z
" style="fill: #ffffff; opacity: 0.8; stroke: #cccccc; stroke-width: 0.8; stroke-linejoin: miter"/>
    </g>
    <g id="line2d_34">
     <path d="M 280.861194 495.1575 
L 302.861194 495.1575 
L 324.861194 495.1575 
" style="fill: none; stroke: #0c2e8a; stroke-width: 2; stroke-linecap: round"/>
    </g>
    <g id="text_35">
     <!-- train -->
     <g style="fill: #262626" transform="translate(342.461194 502.8575) scale(0.22 -0.22)">
      <use xlink:href="#ArialMT-74"/>
      <use xlink:href="#ArialMT-72" x="27.783203"/>
      <use xlink:href="#ArialMT-61" x="61.083984"/>
      <use xlink:href="#ArialMT-69" x="116.699219"/>
      <use xlink:href="#ArialMT-6e" x="138.916016"/>
     </g>
    </g>
    <g id="line2d_35">
     <path d="M 280.861194 526.277187 
L 302.861194 526.277187 
L 324.861194 526.277187 
" style="fill: none; stroke-dasharray: 7.4,3.2; stroke-dashoffset: 0; stroke: #ffc640; stroke-width: 2"/>
    </g>
    <g id="text_36">
     <!-- val -->
     <g style="fill: #262626" transform="translate(342.461194 533.977188) scale(0.22 -0.22)">
      <use xlink:href="#ArialMT-76"/>
      <use xlink:href="#ArialMT-61" x="50"/>
      <use xlink:href="#ArialMT-6c" x="105.615234"/>
     </g>
    </g>
   </g>
  </g>
  <g id="axes_4">
   <g id="patch_20">
    <path d="M 502.745368 638.58 
L 816.66 638.58 
L 816.66 386.88 
L 502.745368 386.88 
z
" style="fill: #ffffff"/>
   </g>
   <g id="matplotlib.axis_7">
    <g id="xtick_10">
     <g id="line2d_36">
      <g>
       <use xlink:href="#ma6814fc7bb" x="517.014215" y="638.58" style="fill: #262626; stroke: #262626"/>
      </g>
     </g>
     <g id="text_37">
      <!-- 0 -->
      <g style="fill: #262626" transform="translate(510.897184 662.627187) scale(0.22 -0.22)">
       <use xlink:href="#ArialMT-30"/>
      </g>
     </g>
    </g>
    <g id="xtick_11">
     <g id="line2d_37">
      <g>
       <use xlink:href="#ma6814fc7bb" x="661.143982" y="638.58" style="fill: #262626; stroke: #262626"/>
      </g>
     </g>
     <g id="text_38">
      <!-- 50 -->
      <g style="fill: #262626" transform="translate(648.909919 662.627187) scale(0.22 -0.22)">
       <use xlink:href="#ArialMT-35"/>
       <use xlink:href="#ArialMT-30" x="55.615234"/>
      </g>
     </g>
    </g>
    <g id="xtick_12">
     <g id="line2d_38">
      <g>
       <use xlink:href="#ma6814fc7bb" x="805.273748" y="638.58" style="fill: #262626; stroke: #262626"/>
      </g>
     </g>
     <g id="text_39">
      <!-- 100 -->
      <g style="fill: #262626" transform="translate(786.922655 662.627187) scale(0.22 -0.22)">
       <use xlink:href="#ArialMT-31"/>
       <use xlink:href="#ArialMT-30" x="55.615234"/>
       <use xlink:href="#ArialMT-30" x="111.230469"/>
      </g>
     </g>
    </g>
    <g id="text_40">
     <!-- Epoch -->
     <g style="fill: #262626" transform="translate(625.678934 688.178437) scale(0.24 -0.24)">
      <use xlink:href="#ArialMT-45"/>
      <use xlink:href="#ArialMT-70" x="66.699219"/>
      <use xlink:href="#ArialMT-6f" x="122.314453"/>
      <use xlink:href="#ArialMT-63" x="177.929688"/>
      <use xlink:href="#ArialMT-68" x="227.929688"/>
     </g>
    </g>
   </g>
   <g id="matplotlib.axis_8">
    <g id="ytick_15">
     <g id="line2d_39">
      <g>
       <use xlink:href="#m6d3f9349ca" x="502.745368" y="568.604237" style="fill: #262626; stroke: #262626"/>
      </g>
     </g>
     <g id="text_41">
      <!-- 0.90 -->
      <g style="fill: #262626" transform="translate(451.631306 576.477831) scale(0.22 -0.22)">
       <defs>
        <path id="ArialMT-39" d="M 350 1059 
L 891 1109 
Q 959 728 1153 556 
Q 1347 384 1650 384 
Q 1909 384 2104 503 
Q 2300 622 2425 820 
Q 2550 1019 2634 1356 
Q 2719 1694 2719 2044 
Q 2719 2081 2716 2156 
Q 2547 1888 2255 1720 
Q 1963 1553 1622 1553 
Q 1053 1553 659 1965 
Q 266 2378 266 3053 
Q 266 3750 677 4175 
Q 1088 4600 1706 4600 
Q 2153 4600 2523 4359 
Q 2894 4119 3086 3673 
Q 3278 3228 3278 2384 
Q 3278 1506 3087 986 
Q 2897 466 2520 194 
Q 2144 -78 1638 -78 
Q 1100 -78 759 220 
Q 419 519 350 1059 
z
M 2653 3081 
Q 2653 3566 2395 3850 
Q 2138 4134 1775 4134 
Q 1400 4134 1122 3828 
Q 844 3522 844 3034 
Q 844 2597 1108 2323 
Q 1372 2050 1759 2050 
Q 2150 2050 2401 2323 
Q 2653 2597 2653 3081 
z
" transform="scale(0.015625)"/>
       </defs>
       <use xlink:href="#ArialMT-30"/>
       <use xlink:href="#ArialMT-2e" x="55.615234"/>
       <use xlink:href="#ArialMT-39" x="83.398438"/>
       <use xlink:href="#ArialMT-30" x="139.013672"/>
      </g>
     </g>
    </g>
    <g id="ytick_16">
     <g id="line2d_40">
      <g>
       <use xlink:href="#m6d3f9349ca" x="502.745368" y="483.462573" style="fill: #262626; stroke: #262626"/>
      </g>
     </g>
     <g id="text_42">
      <!-- 0.95 -->
      <g style="fill: #262626" transform="translate(451.631306 491.336167) scale(0.22 -0.22)">
       <use xlink:href="#ArialMT-30"/>
       <use xlink:href="#ArialMT-2e" x="55.615234"/>
       <use xlink:href="#ArialMT-39" x="83.398438"/>
       <use xlink:href="#ArialMT-35" x="139.013672"/>
      </g>
     </g>
    </g>
    <g id="ytick_17">
     <g id="line2d_41">
      <g>
       <use xlink:href="#m6d3f9349ca" x="502.745368" y="398.320909" style="fill: #262626; stroke: #262626"/>
      </g>
     </g>
     <g id="text_43">
      <!-- 1.00 -->
      <g style="fill: #262626" transform="translate(451.631306 406.194503) scale(0.22 -0.22)">
       <use xlink:href="#ArialMT-31"/>
       <use xlink:href="#ArialMT-2e" x="55.615234"/>
       <use xlink:href="#ArialMT-30" x="83.398438"/>
       <use xlink:href="#ArialMT-30" x="139.013672"/>
      </g>
     </g>
    </g>
    <g id="text_44">
     <!-- Recall -->
     <g style="fill: #262626" transform="translate(442.861306 546.075) rotate(-90) scale(0.24 -0.24)">
      <defs>
       <path id="ArialMT-52" d="M 503 0 
L 503 4581 
L 2534 4581 
Q 3147 4581 3465 4457 
Q 3784 4334 3975 4021 
Q 4166 3709 4166 3331 
Q 4166 2844 3850 2509 
Q 3534 2175 2875 2084 
Q 3116 1969 3241 1856 
Q 3506 1613 3744 1247 
L 4541 0 
L 3778 0 
L 3172 953 
Q 2906 1366 2734 1584 
Q 2563 1803 2427 1890 
Q 2291 1978 2150 2013 
Q 2047 2034 1813 2034 
L 1109 2034 
L 1109 0 
L 503 0 
z
M 1109 2559 
L 2413 2559 
Q 2828 2559 3062 2645 
Q 3297 2731 3419 2920 
Q 3541 3109 3541 3331 
Q 3541 3656 3305 3865 
Q 3069 4075 2559 4075 
L 1109 4075 
L 1109 2559 
z
" transform="scale(0.015625)"/>
      </defs>
      <use xlink:href="#ArialMT-52"/>
      <use xlink:href="#ArialMT-65" x="72.216797"/>
      <use xlink:href="#ArialMT-63" x="127.832031"/>
      <use xlink:href="#ArialMT-61" x="177.832031"/>
      <use xlink:href="#ArialMT-6c" x="233.447266"/>
      <use xlink:href="#ArialMT-6c" x="255.664062"/>
     </g>
    </g>
   </g>
   <g id="line2d_42">
    <path d="M 517.014215 627.139091 
L 519.89681 398.320909 
L 522.779406 398.320909 
L 525.662001 398.320909 
L 528.544596 398.320909 
L 531.427192 398.320909 
L 534.309787 398.320909 
L 537.192382 398.320909 
L 540.074978 398.320909 
L 542.957573 398.320909 
L 545.840168 398.320909 
L 548.722764 398.320909 
L 551.605359 398.320909 
L 554.487954 398.320909 
L 557.37055 398.320909 
L 560.253145 398.320909 
L 563.13574 398.320909 
L 566.018336 398.320909 
L 568.900931 398.320909 
L 571.783526 398.320909 
L 574.666122 398.320909 
L 577.548717 398.320909 
L 580.431312 398.320909 
L 583.313908 398.320909 
L 586.196503 398.320909 
L 589.079098 398.320909 
L 591.961694 398.320909 
L 594.844289 398.320909 
L 597.726884 398.320909 
L 600.60948 398.320909 
L 603.492075 398.320909 
L 606.37467 398.320909 
L 609.257266 398.320909 
L 612.139861 398.320909 
L 615.022456 398.320909 
L 617.905052 398.320909 
L 620.787647 398.320909 
L 623.670242 398.320909 
L 626.552838 398.320909 
L 629.435433 398.320909 
L 632.318028 398.320909 
L 635.200624 398.320909 
L 638.083219 398.320909 
L 640.965814 398.320909 
L 643.84841 398.320909 
L 646.731005 398.320909 
L 649.6136 398.320909 
L 652.496196 398.320909 
L 655.378791 398.320909 
L 658.261386 398.320909 
L 661.143982 398.320909 
L 664.026577 398.320909 
L 666.909172 398.320909 
L 669.791768 398.320909 
L 672.674363 398.320909 
L 675.556958 398.320909 
L 678.439554 398.320909 
L 681.322149 398.320909 
L 684.204744 398.320909 
L 687.08734 398.320909 
L 689.969935 398.320909 
L 692.85253 398.320909 
L 695.735126 398.320909 
L 698.617721 398.320909 
L 701.500316 398.320909 
L 704.382912 398.320909 
L 707.265507 398.320909 
L 710.148102 398.320909 
L 713.030698 398.320909 
L 715.913293 398.320909 
L 718.795888 398.320909 
L 721.678484 398.320909 
L 724.561079 398.320909 
L 727.443674 398.320909 
L 730.32627 398.320909 
L 733.208865 398.320909 
L 736.09146 398.320909 
L 738.974056 398.320909 
L 741.856651 398.320909 
L 744.739246 398.320909 
L 747.621842 398.320909 
L 750.504437 398.320909 
L 753.387032 398.320909 
L 756.269628 398.320909 
L 759.152223 398.320909 
L 762.034818 398.320909 
L 764.917414 398.320909 
L 767.800009 398.320909 
L 770.682604 398.320909 
L 773.5652 398.320909 
L 776.447795 398.320909 
L 779.33039 398.320909 
L 782.212986 398.320909 
L 785.095581 398.320909 
L 787.978176 398.320909 
L 790.860772 398.320909 
L 793.743367 398.320909 
L 796.625962 398.320909 
L 799.508558 398.320909 
L 802.391153 398.320909 
" clip-path="url(#p5ecfbed27b)" style="fill: none; stroke: #0c2e8a; stroke-width: 2; stroke-linecap: round"/>
   </g>
   <g id="line2d_43">
    <path d="M 517.014215 398.320909 
L 519.89681 398.320909 
L 522.779406 398.320909 
L 525.662001 398.320909 
L 528.544596 398.320909 
L 531.427192 398.320909 
L 534.309787 398.320909 
L 537.192382 398.320909 
L 540.074978 398.320909 
L 542.957573 398.320909 
L 545.840168 398.320909 
L 548.722764 398.320909 
L 551.605359 398.320909 
L 554.487954 398.320909 
L 557.37055 398.320909 
L 560.253145 398.320909 
L 563.13574 398.320909 
L 566.018336 398.320909 
L 568.900931 398.320909 
L 571.783526 398.320909 
L 574.666122 398.320909 
L 577.548717 398.320909 
L 580.431312 398.320909 
L 583.313908 398.320909 
L 586.196503 398.320909 
L 589.079098 398.320909 
L 591.961694 398.320909 
L 594.844289 398.320909 
L 597.726884 398.320909 
L 600.60948 398.320909 
L 603.492075 398.320909 
L 606.37467 398.320909 
L 609.257266 398.320909 
L 612.139861 398.320909 
L 615.022456 398.320909 
L 617.905052 398.320909 
L 620.787647 398.320909 
L 623.670242 398.320909 
L 626.552838 398.320909 
L 629.435433 398.320909 
L 632.318028 398.320909 
L 635.200624 398.320909 
L 638.083219 398.320909 
L 640.965814 398.320909 
L 643.84841 398.320909 
L 646.731005 398.320909 
L 649.6136 398.320909 
L 652.496196 398.320909 
L 655.378791 398.320909 
L 658.261386 398.320909 
L 661.143982 398.320909 
L 664.026577 398.320909 
L 666.909172 398.320909 
L 669.791768 398.320909 
L 672.674363 398.320909 
L 675.556958 398.320909 
L 678.439554 398.320909 
L 681.322149 398.320909 
L 684.204744 398.320909 
L 687.08734 398.320909 
L 689.969935 398.320909 
L 692.85253 398.320909 
L 695.735126 398.320909 
L 698.617721 398.320909 
L 701.500316 398.320909 
L 704.382912 398.320909 
L 707.265507 398.320909 
L 710.148102 398.320909 
L 713.030698 398.320909 
L 715.913293 398.320909 
L 718.795888 398.320909 
L 721.678484 398.320909 
L 724.561079 398.320909 
L 727.443674 398.320909 
L 730.32627 398.320909 
L 733.208865 398.320909 
L 736.09146 398.320909 
L 738.974056 398.320909 
L 741.856651 398.320909 
L 744.739246 398.320909 
L 747.621842 398.320909 
L 750.504437 398.320909 
L 753.387032 398.320909 
L 756.269628 398.320909 
L 759.152223 398.320909 
L 762.034818 398.320909 
L 764.917414 398.320909 
L 767.800009 398.320909 
L 770.682604 398.320909 
L 773.5652 398.320909 
L 776.447795 398.320909 
L 779.33039 398.320909 
L 782.212986 398.320909 
L 785.095581 398.320909 
L 787.978176 398.320909 
L 790.860772 398.320909 
L 793.743367 398.320909 
L 796.625962 398.320909 
L 799.508558 398.320909 
L 802.391153 398.320909 
" clip-path="url(#p5ecfbed27b)" style="fill: none; stroke-dasharray: 7.4,3.2; stroke-dashoffset: 0; stroke: #ffc640; stroke-width: 2"/>
   </g>
   <g id="patch_21">
    <path d="M 502.745368 638.58 
L 502.745368 386.88 
" style="fill: none; stroke: #9d9d9d; stroke-width: 0.6; stroke-linejoin: miter; stroke-linecap: square"/>
   </g>
   <g id="patch_22">
    <path d="M 816.66 638.58 
L 816.66 386.88 
" style="fill: none; stroke: #9d9d9d; stroke-width: 0.6; stroke-linejoin: miter; stroke-linecap: square"/>
   </g>
   <g id="patch_23">
    <path d="M 502.745368 638.58 
L 816.66 638.58 
" style="fill: none; stroke: #9d9d9d; stroke-width: 0.6; stroke-linejoin: miter; stroke-linecap: square"/>
   </g>
   <g id="patch_24">
    <path d="M 502.745368 386.88 
L 816.66 386.88 
" style="fill: none; stroke: #9d9d9d; stroke-width: 0.6; stroke-linejoin: miter; stroke-linecap: square"/>
   </g>
   <g id="legend_4">
    <g id="patch_25">
     <path d="M 688.066562 627.58 
L 801.26 627.58 
Q 805.66 627.58 805.66 623.18 
L 805.66 563.140625 
Q 805.66 558.740625 801.26 558.740625 
L 688.066562 558.740625 
Q 683.666562 558.740625 683.666562 563.140625 
L 683.666562 623.18 
Q 683.666562 627.58 688.066562 627.58 
z
" style="fill: #ffffff; opacity: 0.8; stroke: #cccccc; stroke-width: 0.8; stroke-linejoin: miter"/>
    </g>
    <g id="line2d_44">
     <path d="M 692.466562 575.587812 
L 714.466562 575.587812 
L 736.466562 575.587812 
" style="fill: none; stroke: #0c2e8a; stroke-width: 2; stroke-linecap: round"/>
    </g>
    <g id="text_45">
     <!-- train -->
     <g style="fill: #262626" transform="translate(754.066562 583.287812) scale(0.22 -0.22)">
      <use xlink:href="#ArialMT-74"/>
      <use xlink:href="#ArialMT-72" x="27.783203"/>
      <use xlink:href="#ArialMT-61" x="61.083984"/>
      <use xlink:href="#ArialMT-69" x="116.699219"/>
      <use xlink:href="#ArialMT-6e" x="138.916016"/>
     </g>
    </g>
    <g id="line2d_45">
     <path d="M 692.466562 606.7075 
L 714.466562 606.7075 
L 736.466562 606.7075 
" style="fill: none; stroke-dasharray: 7.4,3.2; stroke-dashoffset: 0; stroke: #ffc640; stroke-width: 2"/>
    </g>
    <g id="text_46">
     <!-- val -->
     <g style="fill: #262626" transform="translate(754.066562 614.4075) scale(0.22 -0.22)">
      <use xlink:href="#ArialMT-76"/>
      <use xlink:href="#ArialMT-61" x="50"/>
      <use xlink:href="#ArialMT-6c" x="105.615234"/>
     </g>
    </g>
   </g>
  </g>
 </g>
 <defs>
  <clipPath id="p0b9a4f6f7d">
   <rect x="91.14" y="45.48" width="313.914632" height="251.7"/>
  </clipPath>
  <clipPath id="peb13061766">
   <rect x="502.745368" y="45.48" width="313.914632" height="251.7"/>
  </clipPath>
  <clipPath id="p4ca767b392">
   <rect x="91.14" y="386.88" width="313.914632" height="251.7"/>
  </clipPath>
  <clipPath id="p5ecfbed27b">
   <rect x="502.745368" y="386.88" width="313.914632" height="251.7"/>
  </clipPath>
 </defs>
</svg>
