<?xml version="1.0" encoding="utf-8" standalone="no"?>
<!DOCTYPE svg PUBLIC "-//W3C//DTD SVG 1.1//EN"
  "http://www.w3.org/Graphics/SVG/1.1/DTD/svg11.dtd">
<svg xmlns:xlink="http://www.w3.org/1999/xlink" width="864pt" height="720pt" viewBox="0 0 864 720" xmlns="http://www.w3.org/2000/svg" version="1.1">
 <metadata>
  <rdf:RDF xmlns:dc="http://purl.org/dc/elements/1.1/" xmlns:cc="http://creativecommons.org/ns#" xmlns:rdf="http://www.w3.org/1999/02/22-rdf-syntax-ns#">
   <cc:Work>
    <dc:type rdf:resource="http://purl.org/dc/dcmitype/StillImage"/>
    <dc:date>2024-10-15T11:05:13.443459</dc:date>
    <dc:format>image/svg+xml</dc:format>
    <dc:creator>
     <cc:Agent>
      <dc:title>Matplotlib v3.9.2, https://matplotlib.org/</dc:title>
     </cc:Agent>
    </dc:creator>
   </cc:Work>
  </rdf:RDF>
 </metadata>
 <defs>
  <style type="text/css">*{stroke-linejoin: round; stroke-linecap: butt}</style>
 </defs>
 <g id="figure_1">
  <g id="patch_1">
   <path d="M 0 720 
L 864 720 
L 864 0 
L 0 0 
z
" style="fill: #ffffff"/>
  </g>
  <g id="axes_1">
   <g id="patch_2">
    <path d="M 104.01 297.18 
L 411.272135 297.18 
L 411.272135 45.48 
L 104.01 45.48 
z
" style="fill: #ffffff"/>
   </g>
   <g id="matplotlib.axis_1">
    <g id="xtick_1">
     <g id="line2d_1">
      <defs>
       <path id="me2ca7d9948" d="M 0 0 
L 0 4.8 
" style="stroke: #262626"/>
      </defs>
      <g>
       <use xlink:href="#me2ca7d9948" x="117.976461" y="297.18" style="fill: #262626; stroke: #262626"/>
      </g>
     </g>
     <g id="text_1">
      <!-- 0 -->
      <g style="fill: #262626" transform="translate(111.859429 321.227187) scale(0.22 -0.22)">
       <defs>
        <path id="ArialMT-30" d="M 266 2259 
Q 266 3072 433 3567 
Q 600 4063 929 4331 
Q 1259 4600 1759 4600 
Q 2128 4600 2406 4451 
Q 2684 4303 2865 4023 
Q 3047 3744 3150 3342 
Q 3253 2941 3253 2259 
Q 3253 1453 3087 958 
Q 2922 463 2592 192 
Q 2263 -78 1759 -78 
Q 1097 -78 719 397 
Q 266 969 266 2259 
z
M 844 2259 
Q 844 1131 1108 757 
Q 1372 384 1759 384 
Q 2147 384 2411 759 
Q 2675 1134 2675 2259 
Q 2675 3391 2411 3762 
Q 2147 4134 1753 4134 
Q 1366 4134 1134 3806 
Q 844 3388 844 2259 
z
" transform="scale(0.015625)"/>
       </defs>
       <use xlink:href="#ArialMT-30"/>
      </g>
     </g>
    </g>
    <g id="xtick_2">
     <g id="line2d_2">
      <g>
       <use xlink:href="#me2ca7d9948" x="259.051821" y="297.18" style="fill: #262626; stroke: #262626"/>
      </g>
     </g>
     <g id="text_2">
      <!-- 50 -->
      <g style="fill: #262626" transform="translate(246.817759 321.227187) scale(0.22 -0.22)">
       <defs>
        <path id="ArialMT-35" d="M 266 1200 
L 856 1250 
Q 922 819 1161 601 
Q 1400 384 1738 384 
Q 2144 384 2425 690 
Q 2706 997 2706 1503 
Q 2706 1984 2436 2262 
Q 2166 2541 1728 2541 
Q 1456 2541 1237 2417 
Q 1019 2294 894 2097 
L 366 2166 
L 809 4519 
L 3088 4519 
L 3088 3981 
L 1259 3981 
L 1013 2750 
Q 1425 3038 1878 3038 
Q 2478 3038 2890 2622 
Q 3303 2206 3303 1553 
Q 3303 931 2941 478 
Q 2500 -78 1738 -78 
Q 1113 -78 717 272 
Q 322 622 266 1200 
z
" transform="scale(0.015625)"/>
       </defs>
       <use xlink:href="#ArialMT-35"/>
       <use xlink:href="#ArialMT-30" x="55.615234"/>
      </g>
     </g>
    </g>
    <g id="xtick_3">
     <g id="line2d_3">
      <g>
       <use xlink:href="#me2ca7d9948" x="400.127182" y="297.18" style="fill: #262626; stroke: #262626"/>
      </g>
     </g>
     <g id="text_3">
      <!-- 100 -->
      <g style="fill: #262626" transform="translate(381.776088 321.227187) scale(0.22 -0.22)">
       <defs>
        <path id="ArialMT-31" d="M 2384 0 
L 1822 0 
L 1822 3584 
Q 1619 3391 1289 3197 
Q 959 3003 697 2906 
L 697 3450 
Q 1169 3672 1522 3987 
Q 1875 4303 2022 4600 
L 2384 4600 
L 2384 0 
z
" transform="scale(0.015625)"/>
       </defs>
       <use xlink:href="#ArialMT-31"/>
       <use xlink:href="#ArialMT-30" x="55.615234"/>
       <use xlink:href="#ArialMT-30" x="111.230469"/>
      </g>
     </g>
    </g>
    <g id="text_4">
     <!-- Epoch -->
     <g style="fill: #262626" transform="translate(223.617318 346.778437) scale(0.24 -0.24)">
      <defs>
       <path id="ArialMT-45" d="M 506 0 
L 506 4581 
L 3819 4581 
L 3819 4041 
L 1113 4041 
L 1113 2638 
L 3647 2638 
L 3647 2100 
L 1113 2100 
L 1113 541 
L 3925 541 
L 3925 0 
L 506 0 
z
" transform="scale(0.015625)"/>
       <path id="ArialMT-70" d="M 422 -1272 
L 422 3319 
L 934 3319 
L 934 2888 
Q 1116 3141 1344 3267 
Q 1572 3394 1897 3394 
Q 2322 3394 2647 3175 
Q 2972 2956 3137 2557 
Q 3303 2159 3303 1684 
Q 3303 1175 3120 767 
Q 2938 359 2589 142 
Q 2241 -75 1856 -75 
Q 1575 -75 1351 44 
Q 1128 163 984 344 
L 984 -1272 
L 422 -1272 
z
M 931 1641 
Q 931 1000 1190 694 
Q 1450 388 1819 388 
Q 2194 388 2461 705 
Q 2728 1022 2728 1688 
Q 2728 2322 2467 2637 
Q 2206 2953 1844 2953 
Q 1484 2953 1207 2617 
Q 931 2281 931 1641 
z
" transform="scale(0.015625)"/>
       <path id="ArialMT-6f" d="M 213 1659 
Q 213 2581 725 3025 
Q 1153 3394 1769 3394 
Q 2453 3394 2887 2945 
Q 3322 2497 3322 1706 
Q 3322 1066 3130 698 
Q 2938 331 2570 128 
Q 2203 -75 1769 -75 
Q 1072 -75 642 372 
Q 213 819 213 1659 
z
M 791 1659 
Q 791 1022 1069 705 
Q 1347 388 1769 388 
Q 2188 388 2466 706 
Q 2744 1025 2744 1678 
Q 2744 2294 2464 2611 
Q 2184 2928 1769 2928 
Q 1347 2928 1069 2612 
Q 791 2297 791 1659 
z
" transform="scale(0.015625)"/>
       <path id="ArialMT-63" d="M 2588 1216 
L 3141 1144 
Q 3050 572 2676 248 
Q 2303 -75 1759 -75 
Q 1078 -75 664 370 
Q 250 816 250 1647 
Q 250 2184 428 2587 
Q 606 2991 970 3192 
Q 1334 3394 1763 3394 
Q 2303 3394 2647 3120 
Q 2991 2847 3088 2344 
L 2541 2259 
Q 2463 2594 2264 2762 
Q 2066 2931 1784 2931 
Q 1359 2931 1093 2626 
Q 828 2322 828 1663 
Q 828 994 1084 691 
Q 1341 388 1753 388 
Q 2084 388 2306 591 
Q 2528 794 2588 1216 
z
" transform="scale(0.015625)"/>
       <path id="ArialMT-68" d="M 422 0 
L 422 4581 
L 984 4581 
L 984 2938 
Q 1378 3394 1978 3394 
Q 2347 3394 2619 3248 
Q 2891 3103 3008 2847 
Q 3125 2591 3125 2103 
L 3125 0 
L 2563 0 
L 2563 2103 
Q 2563 2525 2380 2717 
Q 2197 2909 1863 2909 
Q 1613 2909 1392 2779 
Q 1172 2650 1078 2428 
Q 984 2206 984 1816 
L 984 0 
L 422 0 
z
" transform="scale(0.015625)"/>
      </defs>
      <use xlink:href="#ArialMT-45"/>
      <use xlink:href="#ArialMT-70" x="66.699219"/>
      <use xlink:href="#ArialMT-6f" x="122.314453"/>
      <use xlink:href="#ArialMT-63" x="177.929688"/>
      <use xlink:href="#ArialMT-68" x="227.929688"/>
     </g>
    </g>
   </g>
   <g id="matplotlib.axis_2">
    <g id="ytick_1">
     <g id="line2d_4">
      <defs>
       <path id="m5b9ee0b9bb" d="M 0 0 
L -4.8 0 
" style="stroke: #262626"/>
      </defs>
      <g>
       <use xlink:href="#m5b9ee0b9bb" x="104.01" y="266.465679" style="fill: #262626; stroke: #262626"/>
      </g>
     </g>
     <g id="text_5">
      <!-- −1.5 -->
      <g style="fill: #262626" transform="translate(52.280625 274.339273) scale(0.22 -0.22)">
       <defs>
        <path id="ArialMT-2212" d="M 3381 1997 
L 356 1997 
L 356 2522 
L 3381 2522 
L 3381 1997 
z
" transform="scale(0.015625)"/>
        <path id="ArialMT-2e" d="M 581 0 
L 581 641 
L 1222 641 
L 1222 0 
L 581 0 
z
" transform="scale(0.015625)"/>
       </defs>
       <use xlink:href="#ArialMT-2212"/>
       <use xlink:href="#ArialMT-31" x="58.398438"/>
       <use xlink:href="#ArialMT-2e" x="114.013672"/>
       <use xlink:href="#ArialMT-35" x="141.796875"/>
      </g>
     </g>
    </g>
    <g id="ytick_2">
     <g id="line2d_5">
      <g>
       <use xlink:href="#m5b9ee0b9bb" x="104.01" y="196.805473" style="fill: #262626; stroke: #262626"/>
      </g>
     </g>
     <g id="text_6">
      <!-- −1.0 -->
      <g style="fill: #262626" transform="translate(52.280625 204.679067) scale(0.22 -0.22)">
       <use xlink:href="#ArialMT-2212"/>
       <use xlink:href="#ArialMT-31" x="58.398438"/>
       <use xlink:href="#ArialMT-2e" x="114.013672"/>
       <use xlink:href="#ArialMT-30" x="141.796875"/>
      </g>
     </g>
    </g>
    <g id="ytick_3">
     <g id="line2d_6">
      <g>
       <use xlink:href="#m5b9ee0b9bb" x="104.01" y="127.145266" style="fill: #262626; stroke: #262626"/>
      </g>
     </g>
     <g id="text_7">
      <!-- −0.5 -->
      <g style="fill: #262626" transform="translate(52.280625 135.01886) scale(0.22 -0.22)">
       <use xlink:href="#ArialMT-2212"/>
       <use xlink:href="#ArialMT-30" x="58.398438"/>
       <use xlink:href="#ArialMT-2e" x="114.013672"/>
       <use xlink:href="#ArialMT-35" x="141.796875"/>
      </g>
     </g>
    </g>
    <g id="ytick_4">
     <g id="line2d_7">
      <g>
       <use xlink:href="#m5b9ee0b9bb" x="104.01" y="57.48506" style="fill: #262626; stroke: #262626"/>
      </g>
     </g>
     <g id="text_8">
      <!-- 0.0 -->
      <g style="fill: #262626" transform="translate(65.13 65.358654) scale(0.22 -0.22)">
       <use xlink:href="#ArialMT-30"/>
       <use xlink:href="#ArialMT-2e" x="55.615234"/>
       <use xlink:href="#ArialMT-30" x="83.398438"/>
      </g>
     </g>
    </g>
    <g id="text_9">
     <!-- Loss -->
     <g style="fill: #262626" transform="translate(43.510625 196.67625) rotate(-90) scale(0.24 -0.24)">
      <defs>
       <path id="ArialMT-4c" d="M 469 0 
L 469 4581 
L 1075 4581 
L 1075 541 
L 3331 541 
L 3331 0 
L 469 0 
z
" transform="scale(0.015625)"/>
       <path id="ArialMT-73" d="M 197 991 
L 753 1078 
Q 800 744 1014 566 
Q 1228 388 1613 388 
Q 2000 388 2187 545 
Q 2375 703 2375 916 
Q 2375 1106 2209 1216 
Q 2094 1291 1634 1406 
Q 1016 1563 777 1677 
Q 538 1791 414 1992 
Q 291 2194 291 2438 
Q 291 2659 392 2848 
Q 494 3038 669 3163 
Q 800 3259 1026 3326 
Q 1253 3394 1513 3394 
Q 1903 3394 2198 3281 
Q 2494 3169 2634 2976 
Q 2775 2784 2828 2463 
L 2278 2388 
Q 2241 2644 2061 2787 
Q 1881 2931 1553 2931 
Q 1166 2931 1000 2803 
Q 834 2675 834 2503 
Q 834 2394 903 2306 
Q 972 2216 1119 2156 
Q 1203 2125 1616 2013 
Q 2213 1853 2448 1751 
Q 2684 1650 2818 1456 
Q 2953 1263 2953 975 
Q 2953 694 2789 445 
Q 2625 197 2315 61 
Q 2006 -75 1616 -75 
Q 969 -75 630 194 
Q 291 463 197 991 
z
" transform="scale(0.015625)"/>
      </defs>
      <use xlink:href="#ArialMT-4c"/>
      <use xlink:href="#ArialMT-6f" x="55.615234"/>
      <use xlink:href="#ArialMT-73" x="111.230469"/>
      <use xlink:href="#ArialMT-73" x="161.230469"/>
     </g>
    </g>
    <g id="text_10">
     <!-- 1e6 -->
     <g style="fill: #262626" transform="translate(104.01 42.48) scale(0.22 -0.22)">
      <defs>
       <path id="ArialMT-65" d="M 2694 1069 
L 3275 997 
Q 3138 488 2766 206 
Q 2394 -75 1816 -75 
Q 1088 -75 661 373 
Q 234 822 234 1631 
Q 234 2469 665 2931 
Q 1097 3394 1784 3394 
Q 2450 3394 2872 2941 
Q 3294 2488 3294 1666 
Q 3294 1616 3291 1516 
L 816 1516 
Q 847 969 1125 678 
Q 1403 388 1819 388 
Q 2128 388 2347 550 
Q 2566 713 2694 1069 
z
M 847 1978 
L 2700 1978 
Q 2663 2397 2488 2606 
Q 2219 2931 1791 2931 
Q 1403 2931 1139 2672 
Q 875 2413 847 1978 
z
" transform="scale(0.015625)"/>
       <path id="ArialMT-36" d="M 3184 3459 
L 2625 3416 
Q 2550 3747 2413 3897 
Q 2184 4138 1850 4138 
Q 1581 4138 1378 3988 
Q 1113 3794 959 3422 
Q 806 3050 800 2363 
Q 1003 2672 1297 2822 
Q 1591 2972 1913 2972 
Q 2475 2972 2870 2558 
Q 3266 2144 3266 1488 
Q 3266 1056 3080 686 
Q 2894 316 2569 119 
Q 2244 -78 1831 -78 
Q 1128 -78 684 439 
Q 241 956 241 2144 
Q 241 3472 731 4075 
Q 1159 4600 1884 4600 
Q 2425 4600 2770 4297 
Q 3116 3994 3184 3459 
z
M 888 1484 
Q 888 1194 1011 928 
Q 1134 663 1356 523 
Q 1578 384 1822 384 
Q 2178 384 2434 671 
Q 2691 959 2691 1453 
Q 2691 1928 2437 2201 
Q 2184 2475 1800 2475 
Q 1419 2475 1153 2201 
Q 888 1928 888 1484 
z
" transform="scale(0.015625)"/>
      </defs>
      <use xlink:href="#ArialMT-31"/>
      <use xlink:href="#ArialMT-65" x="55.615234"/>
      <use xlink:href="#ArialMT-36" x="111.230469"/>
     </g>
    </g>
   </g>
   <g id="line2d_8">
    <path d="M 117.976461 57.539705 
L 120.797968 57.667492 
L 123.619475 57.8032 
L 126.440982 57.987629 
L 129.26249 58.225508 
L 132.083997 58.55149 
L 134.905504 58.776595 
L 137.727011 59.129638 
L 140.548518 59.693653 
L 143.370026 59.927884 
L 146.191533 60.566459 
L 149.01304 61.172998 
L 151.834547 61.988921 
L 154.656054 62.508308 
L 157.477562 63.418872 
L 160.299069 64.057253 
L 163.120576 64.984262 
L 165.942083 66.039796 
L 168.76359 67.599823 
L 171.585098 68.311622 
L 174.406605 69.204494 
L 177.228112 70.380325 
L 180.049619 72.567384 
L 182.871127 72.563901 
L 185.692634 74.834806 
L 188.514141 74.251178 
L 191.335648 77.67832 
L 194.157155 78.806103 
L 196.978663 79.043394 
L 199.80017 81.746983 
L 202.621677 82.655968 
L 205.443184 83.679468 
L 208.264691 87.722226 
L 211.086199 88.85026 
L 213.907706 88.035728 
L 216.729213 94.324181 
L 219.55072 95.547384 
L 222.372227 95.540905 
L 225.193735 97.816748 
L 228.015242 100.683017 
L 230.836749 103.323971 
L 233.658256 106.109273 
L 236.479764 106.104253 
L 239.301271 106.412944 
L 242.122778 111.233704 
L 244.944285 116.078611 
L 247.765792 117.495038 
L 250.5873 117.886824 
L 253.408807 123.377955 
L 256.230314 121.624787 
L 259.051821 128.220467 
L 261.873328 129.932463 
L 264.694836 130.783427 
L 267.516343 134.245958 
L 270.33785 137.584493 
L 273.159357 138.837749 
L 275.980864 142.226762 
L 278.802372 143.36285 
L 281.623879 147.826502 
L 284.445386 149.074326 
L 287.266893 152.579148 
L 290.0884 152.103979 
L 292.909908 156.511702 
L 295.731415 159.665289 
L 298.552922 165.309769 
L 301.374429 166.87735 
L 304.195937 166.807298 
L 307.017444 177.771527 
L 309.838951 177.198545 
L 312.660458 179.457608 
L 315.481965 184.736198 
L 318.303473 186.611677 
L 321.12498 191.913594 
L 323.946487 188.316201 
L 326.767994 195.444365 
L 329.589501 194.769166 
L 332.411009 199.734728 
L 335.232516 209.503187 
L 338.054023 209.682597 
L 340.87553 213.960622 
L 343.697037 210.878785 
L 346.518545 214.980604 
L 349.340052 234.038244 
L 352.161559 232.366712 
L 354.983066 228.539998 
L 357.804574 236.580353 
L 360.626081 236.600781 
L 363.447588 246.578126 
L 366.269095 243.354251 
L 369.090602 242.698575 
L 371.91211 241.958714 
L 374.733617 265.609294 
L 377.555124 264.973941 
L 380.376631 264.382665 
L 383.198138 275.844102 
L 386.019646 269.895974 
L 388.841153 275.043324 
L 391.66266 275.202549 
L 394.484167 279.175776 
L 397.305674 285.739091 
" clip-path="url(#p9180866529)" style="fill: none; stroke: #0c2e8a; stroke-width: 2; stroke-linecap: round"/>
   </g>
   <g id="line2d_9">
    <path d="M 117.976461 57.484902 
L 120.797968 57.484829 
L 123.619475 57.484731 
L 126.440982 57.484619 
L 129.26249 57.484487 
L 132.083997 57.484328 
L 134.905504 57.484152 
L 137.727011 57.483935 
L 140.548518 57.483673 
L 143.370026 57.483368 
L 146.191533 57.482954 
L 149.01304 57.482443 
L 151.834547 57.481786 
L 154.656054 57.48089 
L 157.477562 57.479706 
L 160.299069 57.478195 
L 163.120576 57.476348 
L 165.942083 57.474205 
L 168.76359 57.471943 
L 171.585098 57.46934 
L 174.406605 57.466528 
L 177.228112 57.463588 
L 180.049619 57.460644 
L 182.871127 57.457521 
L 185.692634 57.454363 
L 188.514141 57.450955 
L 191.335648 57.447466 
L 194.157155 57.443817 
L 196.978663 57.439926 
L 199.80017 57.435964 
L 202.621677 57.431869 
L 205.443184 57.42763 
L 208.264691 57.423569 
L 211.086199 57.419182 
L 213.907706 57.414362 
L 216.729213 57.409967 
L 219.55072 57.405443 
L 222.372227 57.400527 
L 225.193735 57.395591 
L 228.015242 57.390619 
L 230.836749 57.385606 
L 233.658256 57.380318 
L 236.479764 57.374966 
L 239.301271 57.369412 
L 242.122778 57.363974 
L 244.944285 57.358393 
L 247.765792 57.352674 
L 250.5873 57.346831 
L 253.408807 57.34079 
L 256.230314 57.334553 
L 259.051821 57.328716 
L 261.873328 57.322903 
L 264.694836 57.31663 
L 267.516343 57.310201 
L 270.33785 57.303645 
L 273.159357 57.297097 
L 275.980864 57.290512 
L 278.802372 57.283912 
L 281.623879 57.277041 
L 284.445386 57.270352 
L 287.266893 57.263175 
L 290.0884 57.255842 
L 292.909908 57.248802 
L 295.731415 57.241427 
L 298.552922 57.23389 
L 301.374429 57.22653 
L 304.195937 57.218675 
L 307.017444 57.21075 
L 309.838951 57.202929 
L 312.660458 57.194891 
L 315.481965 57.186636 
L 318.303473 57.178987 
L 321.12498 57.170838 
L 323.946487 57.162362 
L 326.767994 57.153834 
L 329.589501 57.144983 
L 332.411009 57.136716 
L 335.232516 57.128561 
L 338.054023 57.120105 
L 340.87553 57.111589 
L 343.697037 57.102899 
L 346.518545 57.093525 
L 349.340052 57.084702 
L 352.161559 57.076067 
L 354.983066 57.066714 
L 357.804574 57.057276 
L 360.626081 57.048319 
L 363.447588 57.039157 
L 366.269095 57.029791 
L 369.090602 57.020109 
L 371.91211 57.010404 
L 374.733617 57.001018 
L 377.555124 56.991651 
L 380.376631 56.981729 
L 383.198138 56.972076 
L 386.019646 56.962041 
L 388.841153 56.952057 
L 391.66266 56.942092 
L 394.484167 56.931362 
L 397.305674 56.920909 
" clip-path="url(#p9180866529)" style="fill: none; stroke-dasharray: 7.4,3.2; stroke-dashoffset: 0; stroke: #ffc640; stroke-width: 2"/>
   </g>
   <g id="patch_3">
    <path d="M 104.01 297.18 
L 104.01 45.48 
" style="fill: none; stroke: #9d9d9d; stroke-width: 0.6; stroke-linejoin: miter; stroke-linecap: square"/>
   </g>
   <g id="patch_4">
    <path d="M 411.272135 297.18 
L 411.272135 45.48 
" style="fill: none; stroke: #9d9d9d; stroke-width: 0.6; stroke-linejoin: miter; stroke-linecap: square"/>
   </g>
   <g id="patch_5">
    <path d="M 104.01 297.18 
L 411.272135 297.18 
" style="fill: none; stroke: #9d9d9d; stroke-width: 0.6; stroke-linejoin: miter; stroke-linecap: square"/>
   </g>
   <g id="patch_6">
    <path d="M 104.01 45.48 
L 411.272135 45.48 
" style="fill: none; stroke: #9d9d9d; stroke-width: 0.6; stroke-linejoin: miter; stroke-linecap: square"/>
   </g>
   <g id="legend_1">
    <g id="patch_7">
     <path d="M 119.41 286.18 
L 232.603438 286.18 
Q 237.003438 286.18 237.003438 281.78 
L 237.003438 221.740625 
Q 237.003438 217.340625 232.603438 217.340625 
L 119.41 217.340625 
Q 115.01 217.340625 115.01 221.740625 
L 115.01 281.78 
Q 115.01 286.18 119.41 286.18 
z
" style="fill: #ffffff; opacity: 0.8; stroke: #cccccc; stroke-width: 0.8; stroke-linejoin: miter"/>
    </g>
    <g id="line2d_10">
     <path d="M 123.81 234.187812 
L 145.81 234.187812 
L 167.81 234.187812 
" style="fill: none; stroke: #0c2e8a; stroke-width: 2; stroke-linecap: round"/>
    </g>
    <g id="text_11">
     <!-- train -->
     <g style="fill: #262626" transform="translate(185.41 241.887812) scale(0.22 -0.22)">
      <defs>
       <path id="ArialMT-74" d="M 1650 503 
L 1731 6 
Q 1494 -44 1306 -44 
Q 1000 -44 831 53 
Q 663 150 594 308 
Q 525 466 525 972 
L 525 2881 
L 113 2881 
L 113 3319 
L 525 3319 
L 525 4141 
L 1084 4478 
L 1084 3319 
L 1650 3319 
L 1650 2881 
L 1084 2881 
L 1084 941 
Q 1084 700 1114 631 
Q 1144 563 1211 522 
Q 1278 481 1403 481 
Q 1497 481 1650 503 
z
" transform="scale(0.015625)"/>
       <path id="ArialMT-72" d="M 416 0 
L 416 3319 
L 922 3319 
L 922 2816 
Q 1116 3169 1280 3281 
Q 1444 3394 1641 3394 
Q 1925 3394 2219 3213 
L 2025 2691 
Q 1819 2813 1613 2813 
Q 1428 2813 1281 2702 
Q 1134 2591 1072 2394 
Q 978 2094 978 1738 
L 978 0 
L 416 0 
z
" transform="scale(0.015625)"/>
       <path id="ArialMT-61" d="M 2588 409 
Q 2275 144 1986 34 
Q 1697 -75 1366 -75 
Q 819 -75 525 192 
Q 231 459 231 875 
Q 231 1119 342 1320 
Q 453 1522 633 1644 
Q 813 1766 1038 1828 
Q 1203 1872 1538 1913 
Q 2219 1994 2541 2106 
Q 2544 2222 2544 2253 
Q 2544 2597 2384 2738 
Q 2169 2928 1744 2928 
Q 1347 2928 1158 2789 
Q 969 2650 878 2297 
L 328 2372 
Q 403 2725 575 2942 
Q 747 3159 1072 3276 
Q 1397 3394 1825 3394 
Q 2250 3394 2515 3294 
Q 2781 3194 2906 3042 
Q 3031 2891 3081 2659 
Q 3109 2516 3109 2141 
L 3109 1391 
Q 3109 606 3145 398 
Q 3181 191 3288 0 
L 2700 0 
Q 2613 175 2588 409 
z
M 2541 1666 
Q 2234 1541 1622 1453 
Q 1275 1403 1131 1340 
Q 988 1278 909 1158 
Q 831 1038 831 891 
Q 831 666 1001 516 
Q 1172 366 1500 366 
Q 1825 366 2078 508 
Q 2331 650 2450 897 
Q 2541 1088 2541 1459 
L 2541 1666 
z
" transform="scale(0.015625)"/>
       <path id="ArialMT-69" d="M 425 3934 
L 425 4581 
L 988 4581 
L 988 3934 
L 425 3934 
z
M 425 0 
L 425 3319 
L 988 3319 
L 988 0 
L 425 0 
z
" transform="scale(0.015625)"/>
       <path id="ArialMT-6e" d="M 422 0 
L 422 3319 
L 928 3319 
L 928 2847 
Q 1294 3394 1984 3394 
Q 2284 3394 2536 3286 
Q 2788 3178 2913 3003 
Q 3038 2828 3088 2588 
Q 3119 2431 3119 2041 
L 3119 0 
L 2556 0 
L 2556 2019 
Q 2556 2363 2490 2533 
Q 2425 2703 2258 2804 
Q 2091 2906 1866 2906 
Q 1506 2906 1245 2678 
Q 984 2450 984 1813 
L 984 0 
L 422 0 
z
" transform="scale(0.015625)"/>
      </defs>
      <use xlink:href="#ArialMT-74"/>
      <use xlink:href="#ArialMT-72" x="27.783203"/>
      <use xlink:href="#ArialMT-61" x="61.083984"/>
      <use xlink:href="#ArialMT-69" x="116.699219"/>
      <use xlink:href="#ArialMT-6e" x="138.916016"/>
     </g>
    </g>
    <g id="line2d_11">
     <path d="M 123.81 265.3075 
L 145.81 265.3075 
L 167.81 265.3075 
" style="fill: none; stroke-dasharray: 7.4,3.2; stroke-dashoffset: 0; stroke: #ffc640; stroke-width: 2"/>
    </g>
    <g id="text_12">
     <!-- val -->
     <g style="fill: #262626" transform="translate(185.41 273.0075) scale(0.22 -0.22)">
      <defs>
       <path id="ArialMT-76" d="M 1344 0 
L 81 3319 
L 675 3319 
L 1388 1331 
Q 1503 1009 1600 663 
Q 1675 925 1809 1294 
L 2547 3319 
L 3125 3319 
L 1869 0 
L 1344 0 
z
" transform="scale(0.015625)"/>
       <path id="ArialMT-6c" d="M 409 0 
L 409 4581 
L 972 4581 
L 972 0 
L 409 0 
z
" transform="scale(0.015625)"/>
      </defs>
      <use xlink:href="#ArialMT-76"/>
      <use xlink:href="#ArialMT-61" x="50"/>
      <use xlink:href="#ArialMT-6c" x="105.615234"/>
     </g>
    </g>
   </g>
  </g>
  <g id="axes_2">
   <g id="patch_8">
    <path d="M 509.397865 297.18 
L 816.66 297.18 
L 816.66 45.48 
L 509.397865 45.48 
z
" style="fill: #ffffff"/>
   </g>
   <g id="matplotlib.axis_3">
    <g id="xtick_4">
     <g id="line2d_12">
      <g>
       <use xlink:href="#me2ca7d9948" x="523.364326" y="297.18" style="fill: #262626; stroke: #262626"/>
      </g>
     </g>
     <g id="text_13">
      <!-- 0 -->
      <g style="fill: #262626" transform="translate(517.247294 321.227187) scale(0.22 -0.22)">
       <use xlink:href="#ArialMT-30"/>
      </g>
     </g>
    </g>
    <g id="xtick_5">
     <g id="line2d_13">
      <g>
       <use xlink:href="#me2ca7d9948" x="664.439686" y="297.18" style="fill: #262626; stroke: #262626"/>
      </g>
     </g>
     <g id="text_14">
      <!-- 50 -->
      <g style="fill: #262626" transform="translate(652.205624 321.227187) scale(0.22 -0.22)">
       <use xlink:href="#ArialMT-35"/>
       <use xlink:href="#ArialMT-30" x="55.615234"/>
      </g>
     </g>
    </g>
    <g id="xtick_6">
     <g id="line2d_14">
      <g>
       <use xlink:href="#me2ca7d9948" x="805.515047" y="297.18" style="fill: #262626; stroke: #262626"/>
      </g>
     </g>
     <g id="text_15">
      <!-- 100 -->
      <g style="fill: #262626" transform="translate(787.163953 321.227187) scale(0.22 -0.22)">
       <use xlink:href="#ArialMT-31"/>
       <use xlink:href="#ArialMT-30" x="55.615234"/>
       <use xlink:href="#ArialMT-30" x="111.230469"/>
      </g>
     </g>
    </g>
    <g id="text_16">
     <!-- Epoch -->
     <g style="fill: #262626" transform="translate(629.005182 346.778437) scale(0.24 -0.24)">
      <use xlink:href="#ArialMT-45"/>
      <use xlink:href="#ArialMT-70" x="66.699219"/>
      <use xlink:href="#ArialMT-6f" x="122.314453"/>
      <use xlink:href="#ArialMT-63" x="177.929688"/>
      <use xlink:href="#ArialMT-68" x="227.929688"/>
     </g>
    </g>
   </g>
   <g id="matplotlib.axis_4">
    <g id="ytick_5">
     <g id="line2d_15">
      <g>
       <use xlink:href="#m5b9ee0b9bb" x="509.397865" y="285.739091" style="fill: #262626; stroke: #262626"/>
      </g>
     </g>
     <g id="text_17">
      <!-- 0.00 -->
      <g style="fill: #262626" transform="translate(458.283802 293.612685) scale(0.22 -0.22)">
       <use xlink:href="#ArialMT-30"/>
       <use xlink:href="#ArialMT-2e" x="55.615234"/>
       <use xlink:href="#ArialMT-30" x="83.398438"/>
       <use xlink:href="#ArialMT-30" x="139.013672"/>
      </g>
     </g>
    </g>
    <g id="ytick_6">
     <g id="line2d_16">
      <g>
       <use xlink:href="#m5b9ee0b9bb" x="509.397865" y="227.903854" style="fill: #262626; stroke: #262626"/>
      </g>
     </g>
     <g id="text_18">
      <!-- 0.25 -->
      <g style="fill: #262626" transform="translate(458.283802 235.777448) scale(0.22 -0.22)">
       <defs>
        <path id="ArialMT-32" d="M 3222 541 
L 3222 0 
L 194 0 
Q 188 203 259 391 
Q 375 700 629 1000 
Q 884 1300 1366 1694 
Q 2113 2306 2375 2664 
Q 2638 3022 2638 3341 
Q 2638 3675 2398 3904 
Q 2159 4134 1775 4134 
Q 1369 4134 1125 3890 
Q 881 3647 878 3216 
L 300 3275 
Q 359 3922 746 4261 
Q 1134 4600 1788 4600 
Q 2447 4600 2831 4234 
Q 3216 3869 3216 3328 
Q 3216 3053 3103 2787 
Q 2991 2522 2730 2228 
Q 2469 1934 1863 1422 
Q 1356 997 1212 845 
Q 1069 694 975 541 
L 3222 541 
z
" transform="scale(0.015625)"/>
       </defs>
       <use xlink:href="#ArialMT-30"/>
       <use xlink:href="#ArialMT-2e" x="55.615234"/>
       <use xlink:href="#ArialMT-32" x="83.398438"/>
       <use xlink:href="#ArialMT-35" x="139.013672"/>
      </g>
     </g>
    </g>
    <g id="ytick_7">
     <g id="line2d_17">
      <g>
       <use xlink:href="#m5b9ee0b9bb" x="509.397865" y="170.068617" style="fill: #262626; stroke: #262626"/>
      </g>
     </g>
     <g id="text_19">
      <!-- 0.50 -->
      <g style="fill: #262626" transform="translate(458.283802 177.942211) scale(0.22 -0.22)">
       <use xlink:href="#ArialMT-30"/>
       <use xlink:href="#ArialMT-2e" x="55.615234"/>
       <use xlink:href="#ArialMT-35" x="83.398438"/>
       <use xlink:href="#ArialMT-30" x="139.013672"/>
      </g>
     </g>
    </g>
    <g id="ytick_8">
     <g id="line2d_18">
      <g>
       <use xlink:href="#m5b9ee0b9bb" x="509.397865" y="112.23338" style="fill: #262626; stroke: #262626"/>
      </g>
     </g>
     <g id="text_20">
      <!-- 0.75 -->
      <g style="fill: #262626" transform="translate(458.283802 120.106974) scale(0.22 -0.22)">
       <defs>
        <path id="ArialMT-37" d="M 303 3981 
L 303 4522 
L 3269 4522 
L 3269 4084 
Q 2831 3619 2401 2847 
Q 1972 2075 1738 1259 
Q 1569 684 1522 0 
L 944 0 
Q 953 541 1156 1306 
Q 1359 2072 1739 2783 
Q 2119 3494 2547 3981 
L 303 3981 
z
" transform="scale(0.015625)"/>
       </defs>
       <use xlink:href="#ArialMT-30"/>
       <use xlink:href="#ArialMT-2e" x="55.615234"/>
       <use xlink:href="#ArialMT-37" x="83.398438"/>
       <use xlink:href="#ArialMT-35" x="139.013672"/>
      </g>
     </g>
    </g>
    <g id="ytick_9">
     <g id="line2d_19">
      <g>
       <use xlink:href="#m5b9ee0b9bb" x="509.397865" y="54.398144" style="fill: #262626; stroke: #262626"/>
      </g>
     </g>
     <g id="text_21">
      <!-- 1.00 -->
      <g style="fill: #262626" transform="translate(458.283802 62.271737) scale(0.22 -0.22)">
       <use xlink:href="#ArialMT-31"/>
       <use xlink:href="#ArialMT-2e" x="55.615234"/>
       <use xlink:href="#ArialMT-30" x="83.398438"/>
       <use xlink:href="#ArialMT-30" x="139.013672"/>
      </g>
     </g>
    </g>
    <g id="text_22">
     <!-- AUC -->
     <g style="fill: #262626" transform="translate(449.513802 196.666875) rotate(-90) scale(0.24 -0.24)">
      <defs>
       <path id="ArialMT-41" d="M -9 0 
L 1750 4581 
L 2403 4581 
L 4278 0 
L 3588 0 
L 3053 1388 
L 1138 1388 
L 634 0 
L -9 0 
z
M 1313 1881 
L 2866 1881 
L 2388 3150 
Q 2169 3728 2063 4100 
Q 1975 3659 1816 3225 
L 1313 1881 
z
" transform="scale(0.015625)"/>
       <path id="ArialMT-55" d="M 3500 4581 
L 4106 4581 
L 4106 1934 
Q 4106 1244 3950 837 
Q 3794 431 3386 176 
Q 2978 -78 2316 -78 
Q 1672 -78 1262 144 
Q 853 366 678 786 
Q 503 1206 503 1934 
L 503 4581 
L 1109 4581 
L 1109 1938 
Q 1109 1341 1220 1058 
Q 1331 775 1601 622 
Q 1872 469 2263 469 
Q 2931 469 3215 772 
Q 3500 1075 3500 1938 
L 3500 4581 
z
" transform="scale(0.015625)"/>
       <path id="ArialMT-43" d="M 3763 1606 
L 4369 1453 
Q 4178 706 3683 314 
Q 3188 -78 2472 -78 
Q 1731 -78 1267 223 
Q 803 525 561 1097 
Q 319 1669 319 2325 
Q 319 3041 592 3573 
Q 866 4106 1370 4382 
Q 1875 4659 2481 4659 
Q 3169 4659 3637 4309 
Q 4106 3959 4291 3325 
L 3694 3184 
Q 3534 3684 3231 3912 
Q 2928 4141 2469 4141 
Q 1941 4141 1586 3887 
Q 1231 3634 1087 3207 
Q 944 2781 944 2328 
Q 944 1744 1114 1308 
Q 1284 872 1643 656 
Q 2003 441 2422 441 
Q 2931 441 3284 734 
Q 3638 1028 3763 1606 
z
" transform="scale(0.015625)"/>
      </defs>
      <use xlink:href="#ArialMT-41"/>
      <use xlink:href="#ArialMT-55" x="66.699219"/>
      <use xlink:href="#ArialMT-43" x="138.916016"/>
     </g>
    </g>
   </g>
   <g id="line2d_20">
    <path d="M 523.364326 285.739091 
L 526.185833 285.739091 
L 529.00734 285.739091 
L 531.828847 285.739091 
L 534.650354 285.739091 
L 537.471862 285.739091 
L 540.293369 285.739091 
L 543.114876 285.739091 
L 545.936383 285.739091 
L 548.75789 285.739091 
L 551.579398 285.739091 
L 554.400905 285.739091 
L 557.222412 285.739091 
L 560.043919 285.739091 
L 562.865426 285.739091 
L 565.686934 285.739091 
L 568.508441 285.739091 
L 571.329948 285.739091 
L 574.151455 285.739091 
L 576.972963 285.739091 
L 579.79447 285.739091 
L 582.615977 285.739091 
L 585.437484 285.739091 
L 588.258991 285.739091 
L 591.080499 285.739091 
L 593.902006 285.739091 
L 596.723513 285.739091 
L 599.54502 285.739091 
L 602.366527 285.739091 
L 605.188035 285.739091 
L 608.009542 285.739091 
L 610.831049 285.739091 
L 613.652556 285.739091 
L 616.474063 285.739091 
L 619.295571 285.739091 
L 622.117078 285.739091 
L 624.938585 285.739091 
L 627.760092 285.739091 
L 630.5816 285.739091 
L 633.403107 285.739091 
L 636.224614 285.739091 
L 639.046121 285.739091 
L 641.867628 285.739091 
L 644.689136 285.739091 
L 647.510643 285.739091 
L 650.33215 285.739091 
L 653.153657 285.739091 
L 655.975164 285.739091 
L 658.796672 285.739091 
L 661.618179 285.739091 
L 664.439686 285.739091 
L 667.261193 285.739091 
L 670.0827 285.739091 
L 672.904208 285.739091 
L 675.725715 285.739091 
L 678.547222 285.739091 
L 681.368729 285.739091 
L 684.190236 285.739091 
L 687.011744 285.739091 
L 689.833251 285.739091 
L 692.654758 285.739091 
L 695.476265 285.739091 
L 698.297773 285.739091 
L 701.11928 285.739091 
L 703.940787 285.739091 
L 706.762294 285.739091 
L 709.583801 285.739091 
L 712.405309 285.739091 
L 715.226816 285.739091 
L 718.048323 285.739091 
L 720.86983 285.739091 
L 723.691337 285.739091 
L 726.512845 285.739091 
L 729.334352 285.739091 
L 732.155859 285.739091 
L 734.977366 285.739091 
L 737.798873 285.739091 
L 740.620381 285.739091 
L 743.441888 285.739091 
L 746.263395 285.739091 
L 749.084902 285.739091 
L 751.90641 285.739091 
L 754.727917 285.739091 
L 757.549424 285.739091 
L 760.370931 285.739091 
L 763.192438 285.739091 
L 766.013946 285.739091 
L 768.835453 285.739091 
L 771.65696 285.739091 
L 774.478467 285.739091 
L 777.299974 285.739091 
L 780.121482 285.739091 
L 782.942989 285.739091 
L 785.764496 285.739091 
L 788.586003 285.739091 
L 791.40751 285.739091 
L 794.229018 285.739091 
L 797.050525 285.739091 
L 799.872032 285.739091 
L 802.693539 285.739091 
" clip-path="url(#p5477c98c83)" style="fill: none; stroke: #0c2e8a; stroke-width: 2; stroke-linecap: round"/>
   </g>
   <g id="line2d_21">
    <path d="M 523.364326 56.920909 
L 526.185833 58.885276 
L 529.00734 60.837908 
L 531.828847 63.745179 
L 534.650354 65.697067 
L 537.471862 66.66493 
L 540.293369 67.420719 
L 543.114876 68.173611 
L 545.936383 68.924271 
L 548.75789 71.317158 
L 551.579398 76.102945 
L 554.400905 84.701528 
L 557.222412 96.062819 
L 560.043919 118.519769 
L 562.865426 144.473237 
L 565.686934 154.996542 
L 568.508441 160.489706 
L 571.329948 162.677868 
L 574.151455 164.0031 
L 576.972963 164.884383 
L 579.79447 165.549191 
L 582.615977 165.912421 
L 585.437484 166.092202 
L 588.258991 166.329207 
L 591.080499 166.490649 
L 593.902006 166.608048 
L 596.723513 166.710059 
L 599.54502 166.771696 
L 602.366527 166.865627 
L 605.188035 166.948526 
L 608.009542 167.139324 
L 610.831049 167.375599 
L 613.652556 167.523831 
L 616.474063 167.723413 
L 619.295571 167.967781 
L 622.117078 168.025005 
L 624.938585 168.065366 
L 627.760092 168.168825 
L 630.5816 168.226794 
L 633.403107 168.334665 
L 636.224614 168.324392 
L 639.046121 168.358892 
L 641.867628 168.430788 
L 644.689136 168.499774 
L 647.510643 168.561411 
L 650.33215 168.611313 
L 653.153657 168.634065 
L 655.975164 168.613506 
L 658.796672 168.665615 
L 661.618179 168.693496 
L 664.439686 168.736793 
L 667.261193 168.756594 
L 670.0827 168.825567 
L 672.904208 168.8175 
L 675.725715 168.857861 
L 678.547222 168.923165 
L 681.368729 168.989945 
L 684.190236 169.020019 
L 687.011744 169.039103 
L 689.833251 169.055981 
L 692.654758 169.069191 
L 695.476265 169.107359 
L 698.297773 169.125698 
L 701.11928 169.133765 
L 703.940787 169.134496 
L 706.762294 169.146975 
L 709.583801 169.174856 
L 712.405309 169.178538 
L 715.226816 169.198339 
L 718.048323 169.218153 
L 720.86983 169.216678 
L 723.691337 169.22109 
L 726.512845 169.223297 
L 729.334352 169.235762 
L 732.155859 169.238699 
L 734.977366 169.243842 
L 737.798873 169.251909 
L 740.620381 169.254101 
L 743.441888 169.275391 
L 746.263395 169.290808 
L 749.084902 169.296668 
L 751.90641 169.304734 
L 754.727917 169.309878 
L 757.549424 169.313546 
L 760.370931 169.304004 
L 763.192438 169.316483 
L 766.013946 169.33849 
L 768.835453 169.34657 
L 771.65696 169.3517 
L 774.478467 169.360511 
L 777.299974 169.377389 
L 780.121482 169.375182 
L 782.942989 169.383994 
L 785.764496 169.388392 
L 788.586003 169.394997 
L 791.40751 169.409669 
L 794.229018 169.416274 
L 797.050525 169.427291 
L 799.872032 169.434627 
L 802.693539 169.438295 
" clip-path="url(#p5477c98c83)" style="fill: none; stroke-dasharray: 7.4,3.2; stroke-dashoffset: 0; stroke: #ffc640; stroke-width: 2"/>
   </g>
   <g id="patch_9">
    <path d="M 509.397865 297.18 
L 509.397865 45.48 
" style="fill: none; stroke: #9d9d9d; stroke-width: 0.6; stroke-linejoin: miter; stroke-linecap: square"/>
   </g>
   <g id="patch_10">
    <path d="M 816.66 297.18 
L 816.66 45.48 
" style="fill: none; stroke: #9d9d9d; stroke-width: 0.6; stroke-linejoin: miter; stroke-linecap: square"/>
   </g>
   <g id="patch_11">
    <path d="M 509.397865 297.18 
L 816.66 297.18 
" style="fill: none; stroke: #9d9d9d; stroke-width: 0.6; stroke-linejoin: miter; stroke-linecap: square"/>
   </g>
   <g id="patch_12">
    <path d="M 509.397865 45.48 
L 816.66 45.48 
" style="fill: none; stroke: #9d9d9d; stroke-width: 0.6; stroke-linejoin: miter; stroke-linecap: square"/>
   </g>
   <g id="legend_2">
    <g id="patch_13">
     <path d="M 688.066562 125.319375 
L 801.26 125.319375 
Q 805.66 125.319375 805.66 120.919375 
L 805.66 60.88 
Q 805.66 56.48 801.26 56.48 
L 688.066562 56.48 
Q 683.666562 56.48 683.666562 60.88 
L 683.666562 120.919375 
Q 683.666562 125.319375 688.066562 125.319375 
z
" style="fill: #ffffff; opacity: 0.8; stroke: #cccccc; stroke-width: 0.8; stroke-linejoin: miter"/>
    </g>
    <g id="line2d_22">
     <path d="M 692.466562 73.327187 
L 714.466562 73.327187 
L 736.466562 73.327187 
" style="fill: none; stroke: #0c2e8a; stroke-width: 2; stroke-linecap: round"/>
    </g>
    <g id="text_23">
     <!-- train -->
     <g style="fill: #262626" transform="translate(754.066562 81.027187) scale(0.22 -0.22)">
      <use xlink:href="#ArialMT-74"/>
      <use xlink:href="#ArialMT-72" x="27.783203"/>
      <use xlink:href="#ArialMT-61" x="61.083984"/>
      <use xlink:href="#ArialMT-69" x="116.699219"/>
      <use xlink:href="#ArialMT-6e" x="138.916016"/>
     </g>
    </g>
    <g id="line2d_23">
     <path d="M 692.466562 104.446875 
L 714.466562 104.446875 
L 736.466562 104.446875 
" style="fill: none; stroke-dasharray: 7.4,3.2; stroke-dashoffset: 0; stroke: #ffc640; stroke-width: 2"/>
    </g>
    <g id="text_24">
     <!-- val -->
     <g style="fill: #262626" transform="translate(754.066562 112.146875) scale(0.22 -0.22)">
      <use xlink:href="#ArialMT-76"/>
      <use xlink:href="#ArialMT-61" x="50"/>
      <use xlink:href="#ArialMT-6c" x="105.615234"/>
     </g>
    </g>
   </g>
  </g>
  <g id="axes_3">
   <g id="patch_14">
    <path d="M 104.01 638.58 
L 411.272135 638.58 
L 411.272135 386.88 
L 104.01 386.88 
z
" style="fill: #ffffff"/>
   </g>
   <g id="matplotlib.axis_5">
    <g id="xtick_7">
     <g id="line2d_24">
      <g>
       <use xlink:href="#me2ca7d9948" x="117.976461" y="638.58" style="fill: #262626; stroke: #262626"/>
      </g>
     </g>
     <g id="text_25">
      <!-- 0 -->
      <g style="fill: #262626" transform="translate(111.859429 662.627187) scale(0.22 -0.22)">
       <use xlink:href="#ArialMT-30"/>
      </g>
     </g>
    </g>
    <g id="xtick_8">
     <g id="line2d_25">
      <g>
       <use xlink:href="#me2ca7d9948" x="259.051821" y="638.58" style="fill: #262626; stroke: #262626"/>
      </g>
     </g>
     <g id="text_26">
      <!-- 50 -->
      <g style="fill: #262626" transform="translate(246.817759 662.627187) scale(0.22 -0.22)">
       <use xlink:href="#ArialMT-35"/>
       <use xlink:href="#ArialMT-30" x="55.615234"/>
      </g>
     </g>
    </g>
    <g id="xtick_9">
     <g id="line2d_26">
      <g>
       <use xlink:href="#me2ca7d9948" x="400.127182" y="638.58" style="fill: #262626; stroke: #262626"/>
      </g>
     </g>
     <g id="text_27">
      <!-- 100 -->
      <g style="fill: #262626" transform="translate(381.776088 662.627187) scale(0.22 -0.22)">
       <use xlink:href="#ArialMT-31"/>
       <use xlink:href="#ArialMT-30" x="55.615234"/>
       <use xlink:href="#ArialMT-30" x="111.230469"/>
      </g>
     </g>
    </g>
    <g id="text_28">
     <!-- Epoch -->
     <g style="fill: #262626" transform="translate(223.617318 688.178437) scale(0.24 -0.24)">
      <use xlink:href="#ArialMT-45"/>
      <use xlink:href="#ArialMT-70" x="66.699219"/>
      <use xlink:href="#ArialMT-6f" x="122.314453"/>
      <use xlink:href="#ArialMT-63" x="177.929688"/>
      <use xlink:href="#ArialMT-68" x="227.929688"/>
     </g>
    </g>
   </g>
   <g id="matplotlib.axis_6">
    <g id="ytick_10">
     <g id="line2d_27">
      <g>
       <use xlink:href="#m5b9ee0b9bb" x="104.01" y="627.197154" style="fill: #262626; stroke: #262626"/>
      </g>
     </g>
     <g id="text_29">
      <!-- 0.00 -->
      <g style="fill: #262626" transform="translate(52.895938 635.070748) scale(0.22 -0.22)">
       <use xlink:href="#ArialMT-30"/>
       <use xlink:href="#ArialMT-2e" x="55.615234"/>
       <use xlink:href="#ArialMT-30" x="83.398438"/>
       <use xlink:href="#ArialMT-30" x="139.013672"/>
      </g>
     </g>
    </g>
    <g id="ytick_11">
     <g id="line2d_28">
      <g>
       <use xlink:href="#m5b9ee0b9bb" x="104.01" y="569.978093" style="fill: #262626; stroke: #262626"/>
      </g>
     </g>
     <g id="text_30">
      <!-- 0.25 -->
      <g style="fill: #262626" transform="translate(52.895938 577.851687) scale(0.22 -0.22)">
       <use xlink:href="#ArialMT-30"/>
       <use xlink:href="#ArialMT-2e" x="55.615234"/>
       <use xlink:href="#ArialMT-32" x="83.398438"/>
       <use xlink:href="#ArialMT-35" x="139.013672"/>
      </g>
     </g>
    </g>
    <g id="ytick_12">
     <g id="line2d_29">
      <g>
       <use xlink:href="#m5b9ee0b9bb" x="104.01" y="512.759032" style="fill: #262626; stroke: #262626"/>
      </g>
     </g>
     <g id="text_31">
      <!-- 0.50 -->
      <g style="fill: #262626" transform="translate(52.895938 520.632625) scale(0.22 -0.22)">
       <use xlink:href="#ArialMT-30"/>
       <use xlink:href="#ArialMT-2e" x="55.615234"/>
       <use xlink:href="#ArialMT-35" x="83.398438"/>
       <use xlink:href="#ArialMT-30" x="139.013672"/>
      </g>
     </g>
    </g>
    <g id="ytick_13">
     <g id="line2d_30">
      <g>
       <use xlink:href="#m5b9ee0b9bb" x="104.01" y="455.53997" style="fill: #262626; stroke: #262626"/>
      </g>
     </g>
     <g id="text_32">
      <!-- 0.75 -->
      <g style="fill: #262626" transform="translate(52.895938 463.413564) scale(0.22 -0.22)">
       <use xlink:href="#ArialMT-30"/>
       <use xlink:href="#ArialMT-2e" x="55.615234"/>
       <use xlink:href="#ArialMT-37" x="83.398438"/>
       <use xlink:href="#ArialMT-35" x="139.013672"/>
      </g>
     </g>
    </g>
    <g id="ytick_14">
     <g id="line2d_31">
      <g>
       <use xlink:href="#m5b9ee0b9bb" x="104.01" y="398.320909" style="fill: #262626; stroke: #262626"/>
      </g>
     </g>
     <g id="text_33">
      <!-- 1.00 -->
      <g style="fill: #262626" transform="translate(52.895938 406.194503) scale(0.22 -0.22)">
       <use xlink:href="#ArialMT-31"/>
       <use xlink:href="#ArialMT-2e" x="55.615234"/>
       <use xlink:href="#ArialMT-30" x="83.398438"/>
       <use xlink:href="#ArialMT-30" x="139.013672"/>
      </g>
     </g>
    </g>
    <g id="text_34">
     <!-- Precision -->
     <g style="fill: #262626" transform="translate(44.125938 562.081875) rotate(-90) scale(0.24 -0.24)">
      <defs>
       <path id="ArialMT-50" d="M 494 0 
L 494 4581 
L 2222 4581 
Q 2678 4581 2919 4538 
Q 3256 4481 3484 4323 
Q 3713 4166 3852 3881 
Q 3991 3597 3991 3256 
Q 3991 2672 3619 2267 
Q 3247 1863 2275 1863 
L 1100 1863 
L 1100 0 
L 494 0 
z
M 1100 2403 
L 2284 2403 
Q 2872 2403 3119 2622 
Q 3366 2841 3366 3238 
Q 3366 3525 3220 3729 
Q 3075 3934 2838 4000 
Q 2684 4041 2272 4041 
L 1100 4041 
L 1100 2403 
z
" transform="scale(0.015625)"/>
      </defs>
      <use xlink:href="#ArialMT-50"/>
      <use xlink:href="#ArialMT-72" x="66.699219"/>
      <use xlink:href="#ArialMT-65" x="100"/>
      <use xlink:href="#ArialMT-63" x="155.615234"/>
      <use xlink:href="#ArialMT-69" x="205.615234"/>
      <use xlink:href="#ArialMT-73" x="227.832031"/>
      <use xlink:href="#ArialMT-69" x="277.832031"/>
      <use xlink:href="#ArialMT-6f" x="300.048828"/>
      <use xlink:href="#ArialMT-6e" x="355.664062"/>
     </g>
    </g>
   </g>
   <g id="line2d_32">
    <path d="M 117.976461 398.320909 
L 120.797968 398.320909 
L 123.619475 398.320909 
L 126.440982 398.320909 
L 129.26249 398.320909 
L 132.083997 398.320909 
L 134.905504 398.320909 
L 137.727011 398.320909 
L 140.548518 398.320909 
L 143.370026 398.320909 
L 146.191533 398.320909 
L 149.01304 398.320909 
L 151.834547 398.320909 
L 154.656054 398.320909 
L 157.477562 398.320909 
L 160.299069 398.320909 
L 163.120576 398.320909 
L 165.942083 398.320909 
L 168.76359 398.320909 
L 171.585098 398.320909 
L 174.406605 398.320909 
L 177.228112 398.320909 
L 180.049619 398.320909 
L 182.871127 398.320909 
L 185.692634 398.320909 
L 188.514141 398.320909 
L 191.335648 398.320909 
L 194.157155 398.320909 
L 196.978663 398.320909 
L 199.80017 398.320909 
L 202.621677 398.320909 
L 205.443184 398.320909 
L 208.264691 398.320909 
L 211.086199 398.320909 
L 213.907706 398.320909 
L 216.729213 398.320909 
L 219.55072 398.320909 
L 222.372227 398.320909 
L 225.193735 398.320909 
L 228.015242 398.320909 
L 230.836749 398.320909 
L 233.658256 398.320909 
L 236.479764 398.320909 
L 239.301271 398.320909 
L 242.122778 398.320909 
L 244.944285 398.320909 
L 247.765792 398.320909 
L 250.5873 398.320909 
L 253.408807 398.320909 
L 256.230314 398.320909 
L 259.051821 398.320909 
L 261.873328 398.320909 
L 264.694836 398.320909 
L 267.516343 398.320909 
L 270.33785 398.320909 
L 273.159357 398.320909 
L 275.980864 398.320909 
L 278.802372 398.320909 
L 281.623879 398.320909 
L 284.445386 398.320909 
L 287.266893 398.320909 
L 290.0884 398.320909 
L 292.909908 398.320909 
L 295.731415 398.320909 
L 298.552922 398.320909 
L 301.374429 398.320909 
L 304.195937 398.320909 
L 307.017444 398.320909 
L 309.838951 398.320909 
L 312.660458 398.320909 
L 315.481965 398.320909 
L 318.303473 398.320909 
L 321.12498 398.320909 
L 323.946487 398.320909 
L 326.767994 398.320909 
L 329.589501 398.320909 
L 332.411009 398.320909 
L 335.232516 398.320909 
L 338.054023 398.320909 
L 340.87553 398.320909 
L 343.697037 398.320909 
L 346.518545 398.320909 
L 349.340052 398.320909 
L 352.161559 398.320909 
L 354.983066 398.320909 
L 357.804574 398.320909 
L 360.626081 398.320909 
L 363.447588 398.320909 
L 366.269095 398.320909 
L 369.090602 398.320909 
L 371.91211 398.320909 
L 374.733617 398.320909 
L 377.555124 398.320909 
L 380.376631 398.320909 
L 383.198138 398.320909 
L 386.019646 398.320909 
L 388.841153 398.320909 
L 391.66266 398.320909 
L 394.484167 398.320909 
L 397.305674 398.320909 
" clip-path="url(#p6ab3505c5c)" style="fill: none; stroke: #0c2e8a; stroke-width: 2; stroke-linecap: round"/>
   </g>
   <g id="line2d_33">
    <path d="M 117.976461 627.106518 
L 120.797968 627.128294 
L 123.619475 627.137627 
L 126.440982 627.138255 
L 129.26249 627.138619 
L 132.083997 627.139072 
L 134.905504 627.139091 
L 137.727011 627.139091 
L 140.548518 627.139091 
L 143.370026 627.139091 
L 146.191533 627.139091 
L 149.01304 627.139091 
L 151.834547 627.139091 
L 154.656054 627.139091 
L 157.477562 627.139091 
L 160.299069 627.139091 
L 163.120576 627.139091 
L 165.942083 627.139091 
L 168.76359 627.139091 
L 171.585098 627.139091 
L 174.406605 627.139091 
L 177.228112 627.139091 
L 180.049619 627.139091 
L 182.871127 627.139091 
L 185.692634 627.139091 
L 188.514141 627.139091 
L 191.335648 627.139091 
L 194.157155 627.139091 
L 196.978663 627.139091 
L 199.80017 627.139091 
L 202.621677 627.139091 
L 205.443184 627.139091 
L 208.264691 627.139091 
L 211.086199 627.139091 
L 213.907706 627.139091 
L 216.729213 627.139091 
L 219.55072 627.139091 
L 222.372227 627.139091 
L 225.193735 627.139091 
L 228.015242 627.139091 
L 230.836749 627.139091 
L 233.658256 627.139091 
L 236.479764 627.139091 
L 239.301271 627.139091 
L 242.122778 627.139091 
L 244.944285 627.139091 
L 247.765792 627.139091 
L 250.5873 627.139091 
L 253.408807 627.139091 
L 256.230314 627.139091 
L 259.051821 627.139091 
L 261.873328 627.139091 
L 264.694836 627.139091 
L 267.516343 627.139091 
L 270.33785 627.139091 
L 273.159357 627.139091 
L 275.980864 627.139091 
L 278.802372 627.139091 
L 281.623879 627.139091 
L 284.445386 627.139091 
L 287.266893 627.139091 
L 290.0884 627.139091 
L 292.909908 627.139091 
L 295.731415 627.139091 
L 298.552922 627.139091 
L 301.374429 627.139091 
L 304.195937 627.139091 
L 307.017444 627.139091 
L 309.838951 627.139091 
L 312.660458 627.139091 
L 315.481965 627.139091 
L 318.303473 627.139091 
L 321.12498 627.139091 
L 323.946487 627.139091 
L 326.767994 627.139091 
L 329.589501 627.139091 
L 332.411009 627.139091 
L 335.232516 627.139091 
L 338.054023 627.139091 
L 340.87553 627.139091 
L 343.697037 627.139091 
L 346.518545 627.139091 
L 349.340052 627.139091 
L 352.161559 627.139091 
L 354.983066 627.139091 
L 357.804574 627.139091 
L 360.626081 627.139091 
L 363.447588 627.139091 
L 366.269095 627.139091 
L 369.090602 627.139091 
L 371.91211 627.139091 
L 374.733617 627.139091 
L 377.555124 627.139091 
L 380.376631 627.139091 
L 383.198138 627.139091 
L 386.019646 627.139091 
L 388.841153 627.139091 
L 391.66266 627.139091 
L 394.484167 627.139091 
L 397.305674 627.139091 
" clip-path="url(#p6ab3505c5c)" style="fill: none; stroke-dasharray: 7.4,3.2; stroke-dashoffset: 0; stroke: #ffc640; stroke-width: 2"/>
   </g>
   <g id="patch_15">
    <path d="M 104.01 638.58 
L 104.01 386.88 
" style="fill: none; stroke: #9d9d9d; stroke-width: 0.6; stroke-linejoin: miter; stroke-linecap: square"/>
   </g>
   <g id="patch_16">
    <path d="M 411.272135 638.58 
L 411.272135 386.88 
" style="fill: none; stroke: #9d9d9d; stroke-width: 0.6; stroke-linejoin: miter; stroke-linecap: square"/>
   </g>
   <g id="patch_17">
    <path d="M 104.01 638.58 
L 411.272135 638.58 
" style="fill: none; stroke: #9d9d9d; stroke-width: 0.6; stroke-linejoin: miter; stroke-linecap: square"/>
   </g>
   <g id="patch_18">
    <path d="M 104.01 386.88 
L 411.272135 386.88 
" style="fill: none; stroke: #9d9d9d; stroke-width: 0.6; stroke-linejoin: miter; stroke-linecap: square"/>
   </g>
   <g id="legend_3">
    <g id="patch_19">
     <path d="M 282.678698 547.149688 
L 395.872135 547.149688 
Q 400.272135 547.149688 400.272135 542.749688 
L 400.272135 482.710312 
Q 400.272135 478.310313 395.872135 478.310313 
L 282.678698 478.310313 
Q 278.278698 478.310313 278.278698 482.710312 
L 278.278698 542.749688 
Q 278.278698 547.149688 282.678698 547.149688 
z
" style="fill: #ffffff; opacity: 0.8; stroke: #cccccc; stroke-width: 0.8; stroke-linejoin: miter"/>
    </g>
    <g id="line2d_34">
     <path d="M 287.078698 495.1575 
L 309.078698 495.1575 
L 331.078698 495.1575 
" style="fill: none; stroke: #0c2e8a; stroke-width: 2; stroke-linecap: round"/>
    </g>
    <g id="text_35">
     <!-- train -->
     <g style="fill: #262626" transform="translate(348.678698 502.8575) scale(0.22 -0.22)">
      <use xlink:href="#ArialMT-74"/>
      <use xlink:href="#ArialMT-72" x="27.783203"/>
      <use xlink:href="#ArialMT-61" x="61.083984"/>
      <use xlink:href="#ArialMT-69" x="116.699219"/>
      <use xlink:href="#ArialMT-6e" x="138.916016"/>
     </g>
    </g>
    <g id="line2d_35">
     <path d="M 287.078698 526.277187 
L 309.078698 526.277187 
L 331.078698 526.277187 
" style="fill: none; stroke-dasharray: 7.4,3.2; stroke-dashoffset: 0; stroke: #ffc640; stroke-width: 2"/>
    </g>
    <g id="text_36">
     <!-- val -->
     <g style="fill: #262626" transform="translate(348.678698 533.977188) scale(0.22 -0.22)">
      <use xlink:href="#ArialMT-76"/>
      <use xlink:href="#ArialMT-61" x="50"/>
      <use xlink:href="#ArialMT-6c" x="105.615234"/>
     </g>
    </g>
   </g>
  </g>
  <g id="axes_4">
   <g id="patch_20">
    <path d="M 509.397865 638.58 
L 816.66 638.58 
L 816.66 386.88 
L 509.397865 386.88 
z
" style="fill: #ffffff"/>
   </g>
   <g id="matplotlib.axis_7">
    <g id="xtick_10">
     <g id="line2d_36">
      <g>
       <use xlink:href="#me2ca7d9948" x="523.364326" y="638.58" style="fill: #262626; stroke: #262626"/>
      </g>
     </g>
     <g id="text_37">
      <!-- 0 -->
      <g style="fill: #262626" transform="translate(517.247294 662.627187) scale(0.22 -0.22)">
       <use xlink:href="#ArialMT-30"/>
      </g>
     </g>
    </g>
    <g id="xtick_11">
     <g id="line2d_37">
      <g>
       <use xlink:href="#me2ca7d9948" x="664.439686" y="638.58" style="fill: #262626; stroke: #262626"/>
      </g>
     </g>
     <g id="text_38">
      <!-- 50 -->
      <g style="fill: #262626" transform="translate(652.205624 662.627187) scale(0.22 -0.22)">
       <use xlink:href="#ArialMT-35"/>
       <use xlink:href="#ArialMT-30" x="55.615234"/>
      </g>
     </g>
    </g>
    <g id="xtick_12">
     <g id="line2d_38">
      <g>
       <use xlink:href="#me2ca7d9948" x="805.515047" y="638.58" style="fill: #262626; stroke: #262626"/>
      </g>
     </g>
     <g id="text_39">
      <!-- 100 -->
      <g style="fill: #262626" transform="translate(787.163953 662.627187) scale(0.22 -0.22)">
       <use xlink:href="#ArialMT-31"/>
       <use xlink:href="#ArialMT-30" x="55.615234"/>
       <use xlink:href="#ArialMT-30" x="111.230469"/>
      </g>
     </g>
    </g>
    <g id="text_40">
     <!-- Epoch -->
     <g style="fill: #262626" transform="translate(629.005182 688.178437) scale(0.24 -0.24)">
      <use xlink:href="#ArialMT-45"/>
      <use xlink:href="#ArialMT-70" x="66.699219"/>
      <use xlink:href="#ArialMT-6f" x="122.314453"/>
      <use xlink:href="#ArialMT-63" x="177.929688"/>
      <use xlink:href="#ArialMT-68" x="227.929688"/>
     </g>
    </g>
   </g>
   <g id="matplotlib.axis_8">
    <g id="ytick_15">
     <g id="line2d_39">
      <g>
       <use xlink:href="#m5b9ee0b9bb" x="509.397865" y="576.910693" style="fill: #262626; stroke: #262626"/>
      </g>
     </g>
     <g id="text_41">
      <!-- 0.8 -->
      <g style="fill: #262626" transform="translate(470.517865 584.784287) scale(0.22 -0.22)">
       <defs>
        <path id="ArialMT-38" d="M 1131 2484 
Q 781 2613 612 2850 
Q 444 3088 444 3419 
Q 444 3919 803 4259 
Q 1163 4600 1759 4600 
Q 2359 4600 2725 4251 
Q 3091 3903 3091 3403 
Q 3091 3084 2923 2848 
Q 2756 2613 2416 2484 
Q 2838 2347 3058 2040 
Q 3278 1734 3278 1309 
Q 3278 722 2862 322 
Q 2447 -78 1769 -78 
Q 1091 -78 675 323 
Q 259 725 259 1325 
Q 259 1772 486 2073 
Q 713 2375 1131 2484 
z
M 1019 3438 
Q 1019 3113 1228 2906 
Q 1438 2700 1772 2700 
Q 2097 2700 2305 2904 
Q 2513 3109 2513 3406 
Q 2513 3716 2298 3927 
Q 2084 4138 1766 4138 
Q 1444 4138 1231 3931 
Q 1019 3725 1019 3438 
z
M 838 1322 
Q 838 1081 952 856 
Q 1066 631 1291 507 
Q 1516 384 1775 384 
Q 2178 384 2440 643 
Q 2703 903 2703 1303 
Q 2703 1709 2433 1975 
Q 2163 2241 1756 2241 
Q 1359 2241 1098 1978 
Q 838 1716 838 1322 
z
" transform="scale(0.015625)"/>
       </defs>
       <use xlink:href="#ArialMT-30"/>
       <use xlink:href="#ArialMT-2e" x="55.615234"/>
       <use xlink:href="#ArialMT-38" x="83.398438"/>
      </g>
     </g>
    </g>
    <g id="ytick_16">
     <g id="line2d_40">
      <g>
       <use xlink:href="#m5b9ee0b9bb" x="509.397865" y="487.615801" style="fill: #262626; stroke: #262626"/>
      </g>
     </g>
     <g id="text_42">
      <!-- 0.9 -->
      <g style="fill: #262626" transform="translate(470.517865 495.489395) scale(0.22 -0.22)">
       <defs>
        <path id="ArialMT-39" d="M 350 1059 
L 891 1109 
Q 959 728 1153 556 
Q 1347 384 1650 384 
Q 1909 384 2104 503 
Q 2300 622 2425 820 
Q 2550 1019 2634 1356 
Q 2719 1694 2719 2044 
Q 2719 2081 2716 2156 
Q 2547 1888 2255 1720 
Q 1963 1553 1622 1553 
Q 1053 1553 659 1965 
Q 266 2378 266 3053 
Q 266 3750 677 4175 
Q 1088 4600 1706 4600 
Q 2153 4600 2523 4359 
Q 2894 4119 3086 3673 
Q 3278 3228 3278 2384 
Q 3278 1506 3087 986 
Q 2897 466 2520 194 
Q 2144 -78 1638 -78 
Q 1100 -78 759 220 
Q 419 519 350 1059 
z
M 2653 3081 
Q 2653 3566 2395 3850 
Q 2138 4134 1775 4134 
Q 1400 4134 1122 3828 
Q 844 3522 844 3034 
Q 844 2597 1108 2323 
Q 1372 2050 1759 2050 
Q 2150 2050 2401 2323 
Q 2653 2597 2653 3081 
z
" transform="scale(0.015625)"/>
       </defs>
       <use xlink:href="#ArialMT-30"/>
       <use xlink:href="#ArialMT-2e" x="55.615234"/>
       <use xlink:href="#ArialMT-39" x="83.398438"/>
      </g>
     </g>
    </g>
    <g id="ytick_17">
     <g id="line2d_41">
      <g>
       <use xlink:href="#m5b9ee0b9bb" x="509.397865" y="398.320909" style="fill: #262626; stroke: #262626"/>
      </g>
     </g>
     <g id="text_43">
      <!-- 1.0 -->
      <g style="fill: #262626" transform="translate(470.517865 406.194503) scale(0.22 -0.22)">
       <use xlink:href="#ArialMT-31"/>
       <use xlink:href="#ArialMT-2e" x="55.615234"/>
       <use xlink:href="#ArialMT-30" x="83.398438"/>
      </g>
     </g>
    </g>
    <g id="text_44">
     <!-- Recall -->
     <g style="fill: #262626" transform="translate(461.747865 546.075) rotate(-90) scale(0.24 -0.24)">
      <defs>
       <path id="ArialMT-52" d="M 503 0 
L 503 4581 
L 2534 4581 
Q 3147 4581 3465 4457 
Q 3784 4334 3975 4021 
Q 4166 3709 4166 3331 
Q 4166 2844 3850 2509 
Q 3534 2175 2875 2084 
Q 3116 1969 3241 1856 
Q 3506 1613 3744 1247 
L 4541 0 
L 3778 0 
L 3172 953 
Q 2906 1366 2734 1584 
Q 2563 1803 2427 1890 
Q 2291 1978 2150 2013 
Q 2047 2034 1813 2034 
L 1109 2034 
L 1109 0 
L 503 0 
z
M 1109 2559 
L 2413 2559 
Q 2828 2559 3062 2645 
Q 3297 2731 3419 2920 
Q 3541 3109 3541 3331 
Q 3541 3656 3305 3865 
Q 3069 4075 2559 4075 
L 1109 4075 
L 1109 2559 
z
" transform="scale(0.015625)"/>
      </defs>
      <use xlink:href="#ArialMT-52"/>
      <use xlink:href="#ArialMT-65" x="72.216797"/>
      <use xlink:href="#ArialMT-63" x="127.832031"/>
      <use xlink:href="#ArialMT-61" x="177.832031"/>
      <use xlink:href="#ArialMT-6c" x="233.447266"/>
      <use xlink:href="#ArialMT-6c" x="255.664062"/>
     </g>
    </g>
   </g>
   <g id="line2d_42">
    <path d="M 523.364326 627.139091 
L 526.185833 512.73 
L 529.00734 435.527132 
L 531.828847 410.412901 
L 534.650354 400.181244 
L 537.471862 399.25105 
L 540.293369 398.320909 
L 543.114876 398.320909 
L 545.936383 398.320909 
L 548.75789 398.320909 
L 551.579398 398.320909 
L 554.400905 398.320909 
L 557.222412 398.320909 
L 560.043919 398.320909 
L 562.865426 398.320909 
L 565.686934 398.320909 
L 568.508441 398.320909 
L 571.329948 398.320909 
L 574.151455 398.320909 
L 576.972963 398.320909 
L 579.79447 398.320909 
L 582.615977 398.320909 
L 585.437484 398.320909 
L 588.258991 398.320909 
L 591.080499 398.320909 
L 593.902006 398.320909 
L 596.723513 398.320909 
L 599.54502 398.320909 
L 602.366527 398.320909 
L 605.188035 398.320909 
L 608.009542 398.320909 
L 610.831049 398.320909 
L 613.652556 398.320909 
L 616.474063 398.320909 
L 619.295571 398.320909 
L 622.117078 398.320909 
L 624.938585 398.320909 
L 627.760092 398.320909 
L 630.5816 398.320909 
L 633.403107 398.320909 
L 636.224614 398.320909 
L 639.046121 398.320909 
L 641.867628 398.320909 
L 644.689136 398.320909 
L 647.510643 398.320909 
L 650.33215 398.320909 
L 653.153657 398.320909 
L 655.975164 398.320909 
L 658.796672 398.320909 
L 661.618179 398.320909 
L 664.439686 398.320909 
L 667.261193 398.320909 
L 670.0827 398.320909 
L 672.904208 398.320909 
L 675.725715 398.320909 
L 678.547222 398.320909 
L 681.368729 398.320909 
L 684.190236 398.320909 
L 687.011744 398.320909 
L 689.833251 398.320909 
L 692.654758 398.320909 
L 695.476265 398.320909 
L 698.297773 398.320909 
L 701.11928 398.320909 
L 703.940787 398.320909 
L 706.762294 398.320909 
L 709.583801 398.320909 
L 712.405309 398.320909 
L 715.226816 398.320909 
L 718.048323 398.320909 
L 720.86983 398.320909 
L 723.691337 398.320909 
L 726.512845 398.320909 
L 729.334352 398.320909 
L 732.155859 398.320909 
L 734.977366 398.320909 
L 737.798873 398.320909 
L 740.620381 398.320909 
L 743.441888 398.320909 
L 746.263395 398.320909 
L 749.084902 398.320909 
L 751.90641 398.320909 
L 754.727917 398.320909 
L 757.549424 398.320909 
L 760.370931 398.320909 
L 763.192438 398.320909 
L 766.013946 398.320909 
L 768.835453 398.320909 
L 771.65696 398.320909 
L 774.478467 398.320909 
L 777.299974 398.320909 
L 780.121482 398.320909 
L 782.942989 398.320909 
L 785.764496 398.320909 
L 788.586003 398.320909 
L 791.40751 398.320909 
L 794.229018 398.320909 
L 797.050525 398.320909 
L 799.872032 398.320909 
L 802.693539 398.320909 
" clip-path="url(#p66d99c9710)" style="fill: none; stroke: #0c2e8a; stroke-width: 2; stroke-linecap: round"/>
   </g>
   <g id="line2d_43">
    <path d="M 523.364326 398.320909 
L 526.185833 398.320909 
L 529.00734 398.320909 
L 531.828847 398.320909 
L 534.650354 398.320909 
L 537.471862 398.320909 
L 540.293369 398.320909 
L 543.114876 398.320909 
L 545.936383 398.320909 
L 548.75789 398.320909 
L 551.579398 398.320909 
L 554.400905 398.320909 
L 557.222412 398.320909 
L 560.043919 398.320909 
L 562.865426 398.320909 
L 565.686934 398.320909 
L 568.508441 398.320909 
L 571.329948 398.320909 
L 574.151455 398.320909 
L 576.972963 398.320909 
L 579.79447 398.320909 
L 582.615977 398.320909 
L 585.437484 398.320909 
L 588.258991 398.320909 
L 591.080499 398.320909 
L 593.902006 398.320909 
L 596.723513 398.320909 
L 599.54502 398.320909 
L 602.366527 398.320909 
L 605.188035 398.320909 
L 608.009542 398.320909 
L 610.831049 398.320909 
L 613.652556 398.320909 
L 616.474063 398.320909 
L 619.295571 398.320909 
L 622.117078 398.320909 
L 624.938585 398.320909 
L 627.760092 398.320909 
L 630.5816 398.320909 
L 633.403107 398.320909 
L 636.224614 398.320909 
L 639.046121 398.320909 
L 641.867628 398.320909 
L 644.689136 398.320909 
L 647.510643 398.320909 
L 650.33215 398.320909 
L 653.153657 398.320909 
L 655.975164 398.320909 
L 658.796672 398.320909 
L 661.618179 398.320909 
L 664.439686 398.320909 
L 667.261193 398.320909 
L 670.0827 398.320909 
L 672.904208 398.320909 
L 675.725715 398.320909 
L 678.547222 398.320909 
L 681.368729 398.320909 
L 684.190236 398.320909 
L 687.011744 398.320909 
L 689.833251 398.320909 
L 692.654758 398.320909 
L 695.476265 398.320909 
L 698.297773 398.320909 
L 701.11928 398.320909 
L 703.940787 398.320909 
L 706.762294 398.320909 
L 709.583801 398.320909 
L 712.405309 398.320909 
L 715.226816 398.320909 
L 718.048323 398.320909 
L 720.86983 398.320909 
L 723.691337 398.320909 
L 726.512845 398.320909 
L 729.334352 398.320909 
L 732.155859 398.320909 
L 734.977366 398.320909 
L 737.798873 398.320909 
L 740.620381 398.320909 
L 743.441888 398.320909 
L 746.263395 398.320909 
L 749.084902 398.320909 
L 751.90641 398.320909 
L 754.727917 398.320909 
L 757.549424 398.320909 
L 760.370931 398.320909 
L 763.192438 398.320909 
L 766.013946 398.320909 
L 768.835453 398.320909 
L 771.65696 398.320909 
L 774.478467 398.320909 
L 777.299974 398.320909 
L 780.121482 398.320909 
L 782.942989 398.320909 
L 785.764496 398.320909 
L 788.586003 398.320909 
L 791.40751 398.320909 
L 794.229018 398.320909 
L 797.050525 398.320909 
L 799.872032 398.320909 
L 802.693539 398.320909 
" clip-path="url(#p66d99c9710)" style="fill: none; stroke-dasharray: 7.4,3.2; stroke-dashoffset: 0; stroke: #ffc640; stroke-width: 2"/>
   </g>
   <g id="patch_21">
    <path d="M 509.397865 638.58 
L 509.397865 386.88 
" style="fill: none; stroke: #9d9d9d; stroke-width: 0.6; stroke-linejoin: miter; stroke-linecap: square"/>
   </g>
   <g id="patch_22">
    <path d="M 816.66 638.58 
L 816.66 386.88 
" style="fill: none; stroke: #9d9d9d; stroke-width: 0.6; stroke-linejoin: miter; stroke-linecap: square"/>
   </g>
   <g id="patch_23">
    <path d="M 509.397865 638.58 
L 816.66 638.58 
" style="fill: none; stroke: #9d9d9d; stroke-width: 0.6; stroke-linejoin: miter; stroke-linecap: square"/>
   </g>
   <g id="patch_24">
    <path d="M 509.397865 386.88 
L 816.66 386.88 
" style="fill: none; stroke: #9d9d9d; stroke-width: 0.6; stroke-linejoin: miter; stroke-linecap: square"/>
   </g>
   <g id="legend_4">
    <g id="patch_25">
     <path d="M 688.066562 627.58 
L 801.26 627.58 
Q 805.66 627.58 805.66 623.18 
L 805.66 563.140625 
Q 805.66 558.740625 801.26 558.740625 
L 688.066562 558.740625 
Q 683.666562 558.740625 683.666562 563.140625 
L 683.666562 623.18 
Q 683.666562 627.58 688.066562 627.58 
z
" style="fill: #ffffff; opacity: 0.8; stroke: #cccccc; stroke-width: 0.8; stroke-linejoin: miter"/>
    </g>
    <g id="line2d_44">
     <path d="M 692.466562 575.587812 
L 714.466562 575.587812 
L 736.466562 575.587812 
" style="fill: none; stroke: #0c2e8a; stroke-width: 2; stroke-linecap: round"/>
    </g>
    <g id="text_45">
     <!-- train -->
     <g style="fill: #262626" transform="translate(754.066562 583.287812) scale(0.22 -0.22)">
      <use xlink:href="#ArialMT-74"/>
      <use xlink:href="#ArialMT-72" x="27.783203"/>
      <use xlink:href="#ArialMT-61" x="61.083984"/>
      <use xlink:href="#ArialMT-69" x="116.699219"/>
      <use xlink:href="#ArialMT-6e" x="138.916016"/>
     </g>
    </g>
    <g id="line2d_45">
     <path d="M 692.466562 606.7075 
L 714.466562 606.7075 
L 736.466562 606.7075 
" style="fill: none; stroke-dasharray: 7.4,3.2; stroke-dashoffset: 0; stroke: #ffc640; stroke-width: 2"/>
    </g>
    <g id="text_46">
     <!-- val -->
     <g style="fill: #262626" transform="translate(754.066562 614.4075) scale(0.22 -0.22)">
      <use xlink:href="#ArialMT-76"/>
      <use xlink:href="#ArialMT-61" x="50"/>
      <use xlink:href="#ArialMT-6c" x="105.615234"/>
     </g>
    </g>
   </g>
  </g>
 </g>
 <defs>
  <clipPath id="p9180866529">
   <rect x="104.01" y="45.48" width="307.262135" height="251.7"/>
  </clipPath>
  <clipPath id="p5477c98c83">
   <rect x="509.397865" y="45.48" width="307.262135" height="251.7"/>
  </clipPath>
  <clipPath id="p6ab3505c5c">
   <rect x="104.01" y="386.88" width="307.262135" height="251.7"/>
  </clipPath>
  <clipPath id="p66d99c9710">
   <rect x="509.397865" y="386.88" width="307.262135" height="251.7"/>
  </clipPath>
 </defs>
</svg>
