<?xml version="1.0" encoding="utf-8" standalone="no"?>
<!DOCTYPE svg PUBLIC "-//W3C//DTD SVG 1.1//EN"
  "http://www.w3.org/Graphics/SVG/1.1/DTD/svg11.dtd">
<svg xmlns:xlink="http://www.w3.org/1999/xlink" width="864pt" height="720pt" viewBox="0 0 864 720" xmlns="http://www.w3.org/2000/svg" version="1.1">
 <metadata>
  <rdf:RDF xmlns:dc="http://purl.org/dc/elements/1.1/" xmlns:cc="http://creativecommons.org/ns#" xmlns:rdf="http://www.w3.org/1999/02/22-rdf-syntax-ns#">
   <cc:Work>
    <dc:type rdf:resource="http://purl.org/dc/dcmitype/StillImage"/>
    <dc:date>2024-10-15T01:00:04.527871</dc:date>
    <dc:format>image/svg+xml</dc:format>
    <dc:creator>
     <cc:Agent>
      <dc:title>Matplotlib v3.9.2, https://matplotlib.org/</dc:title>
     </cc:Agent>
    </dc:creator>
   </cc:Work>
  </rdf:RDF>
 </metadata>
 <defs>
  <style type="text/css">*{stroke-linejoin: round; stroke-linecap: butt}</style>
 </defs>
 <g id="figure_1">
  <g id="patch_1">
   <path d="M 0 720 
L 864 720 
L 864 0 
L 0 0 
z
" style="fill: #ffffff"/>
  </g>
  <g id="axes_1">
   <g id="patch_2">
    <path d="M 104.01 297.18 
L 411.317951 297.18 
L 411.317951 45.48 
L 104.01 45.48 
z
" style="fill: #ffffff"/>
   </g>
   <g id="matplotlib.axis_1">
    <g id="xtick_1">
     <g id="line2d_1">
      <defs>
       <path id="m50a6679274" d="M 0 0 
L 0 4.8 
" style="stroke: #262626"/>
      </defs>
      <g>
       <use xlink:href="#m50a6679274" x="117.978543" y="297.18" style="fill: #262626; stroke: #262626"/>
      </g>
     </g>
     <g id="text_1">
      <!-- 0 -->
      <g style="fill: #262626" transform="translate(111.861512 321.227187) scale(0.22 -0.22)">
       <defs>
        <path id="ArialMT-30" d="M 266 2259 
Q 266 3072 433 3567 
Q 600 4063 929 4331 
Q 1259 4600 1759 4600 
Q 2128 4600 2406 4451 
Q 2684 4303 2865 4023 
Q 3047 3744 3150 3342 
Q 3253 2941 3253 2259 
Q 3253 1453 3087 958 
Q 2922 463 2592 192 
Q 2263 -78 1759 -78 
Q 1097 -78 719 397 
Q 266 969 266 2259 
z
M 844 2259 
Q 844 1131 1108 757 
Q 1372 384 1759 384 
Q 2147 384 2411 759 
Q 2675 1134 2675 2259 
Q 2675 3391 2411 3762 
Q 2147 4134 1753 4134 
Q 1366 4134 1134 3806 
Q 844 3388 844 2259 
z
" transform="scale(0.015625)"/>
       </defs>
       <use xlink:href="#ArialMT-30"/>
      </g>
     </g>
    </g>
    <g id="xtick_2">
     <g id="line2d_2">
      <g>
       <use xlink:href="#m50a6679274" x="259.07494" y="297.18" style="fill: #262626; stroke: #262626"/>
      </g>
     </g>
     <g id="text_2">
      <!-- 50 -->
      <g style="fill: #262626" transform="translate(246.840877 321.227187) scale(0.22 -0.22)">
       <defs>
        <path id="ArialMT-35" d="M 266 1200 
L 856 1250 
Q 922 819 1161 601 
Q 1400 384 1738 384 
Q 2144 384 2425 690 
Q 2706 997 2706 1503 
Q 2706 1984 2436 2262 
Q 2166 2541 1728 2541 
Q 1456 2541 1237 2417 
Q 1019 2294 894 2097 
L 366 2166 
L 809 4519 
L 3088 4519 
L 3088 3981 
L 1259 3981 
L 1013 2750 
Q 1425 3038 1878 3038 
Q 2478 3038 2890 2622 
Q 3303 2206 3303 1553 
Q 3303 931 2941 478 
Q 2500 -78 1738 -78 
Q 1113 -78 717 272 
Q 322 622 266 1200 
z
" transform="scale(0.015625)"/>
       </defs>
       <use xlink:href="#ArialMT-35"/>
       <use xlink:href="#ArialMT-30" x="55.615234"/>
      </g>
     </g>
    </g>
    <g id="xtick_3">
     <g id="line2d_3">
      <g>
       <use xlink:href="#m50a6679274" x="400.171336" y="297.18" style="fill: #262626; stroke: #262626"/>
      </g>
     </g>
     <g id="text_3">
      <!-- 100 -->
      <g style="fill: #262626" transform="translate(381.820242 321.227187) scale(0.22 -0.22)">
       <defs>
        <path id="ArialMT-31" d="M 2384 0 
L 1822 0 
L 1822 3584 
Q 1619 3391 1289 3197 
Q 959 3003 697 2906 
L 697 3450 
Q 1169 3672 1522 3987 
Q 1875 4303 2022 4600 
L 2384 4600 
L 2384 0 
z
" transform="scale(0.015625)"/>
       </defs>
       <use xlink:href="#ArialMT-31"/>
       <use xlink:href="#ArialMT-30" x="55.615234"/>
       <use xlink:href="#ArialMT-30" x="111.230469"/>
      </g>
     </g>
    </g>
    <g id="text_4">
     <!-- Epoch -->
     <g style="fill: #262626" transform="translate(223.640226 346.778437) scale(0.24 -0.24)">
      <defs>
       <path id="ArialMT-45" d="M 506 0 
L 506 4581 
L 3819 4581 
L 3819 4041 
L 1113 4041 
L 1113 2638 
L 3647 2638 
L 3647 2100 
L 1113 2100 
L 1113 541 
L 3925 541 
L 3925 0 
L 506 0 
z
" transform="scale(0.015625)"/>
       <path id="ArialMT-70" d="M 422 -1272 
L 422 3319 
L 934 3319 
L 934 2888 
Q 1116 3141 1344 3267 
Q 1572 3394 1897 3394 
Q 2322 3394 2647 3175 
Q 2972 2956 3137 2557 
Q 3303 2159 3303 1684 
Q 3303 1175 3120 767 
Q 2938 359 2589 142 
Q 2241 -75 1856 -75 
Q 1575 -75 1351 44 
Q 1128 163 984 344 
L 984 -1272 
L 422 -1272 
z
M 931 1641 
Q 931 1000 1190 694 
Q 1450 388 1819 388 
Q 2194 388 2461 705 
Q 2728 1022 2728 1688 
Q 2728 2322 2467 2637 
Q 2206 2953 1844 2953 
Q 1484 2953 1207 2617 
Q 931 2281 931 1641 
z
" transform="scale(0.015625)"/>
       <path id="ArialMT-6f" d="M 213 1659 
Q 213 2581 725 3025 
Q 1153 3394 1769 3394 
Q 2453 3394 2887 2945 
Q 3322 2497 3322 1706 
Q 3322 1066 3130 698 
Q 2938 331 2570 128 
Q 2203 -75 1769 -75 
Q 1072 -75 642 372 
Q 213 819 213 1659 
z
M 791 1659 
Q 791 1022 1069 705 
Q 1347 388 1769 388 
Q 2188 388 2466 706 
Q 2744 1025 2744 1678 
Q 2744 2294 2464 2611 
Q 2184 2928 1769 2928 
Q 1347 2928 1069 2612 
Q 791 2297 791 1659 
z
" transform="scale(0.015625)"/>
       <path id="ArialMT-63" d="M 2588 1216 
L 3141 1144 
Q 3050 572 2676 248 
Q 2303 -75 1759 -75 
Q 1078 -75 664 370 
Q 250 816 250 1647 
Q 250 2184 428 2587 
Q 606 2991 970 3192 
Q 1334 3394 1763 3394 
Q 2303 3394 2647 3120 
Q 2991 2847 3088 2344 
L 2541 2259 
Q 2463 2594 2264 2762 
Q 2066 2931 1784 2931 
Q 1359 2931 1093 2626 
Q 828 2322 828 1663 
Q 828 994 1084 691 
Q 1341 388 1753 388 
Q 2084 388 2306 591 
Q 2528 794 2588 1216 
z
" transform="scale(0.015625)"/>
       <path id="ArialMT-68" d="M 422 0 
L 422 4581 
L 984 4581 
L 984 2938 
Q 1378 3394 1978 3394 
Q 2347 3394 2619 3248 
Q 2891 3103 3008 2847 
Q 3125 2591 3125 2103 
L 3125 0 
L 2563 0 
L 2563 2103 
Q 2563 2525 2380 2717 
Q 2197 2909 1863 2909 
Q 1613 2909 1392 2779 
Q 1172 2650 1078 2428 
Q 984 2206 984 1816 
L 984 0 
L 422 0 
z
" transform="scale(0.015625)"/>
      </defs>
      <use xlink:href="#ArialMT-45"/>
      <use xlink:href="#ArialMT-70" x="66.699219"/>
      <use xlink:href="#ArialMT-6f" x="122.314453"/>
      <use xlink:href="#ArialMT-63" x="177.929688"/>
      <use xlink:href="#ArialMT-68" x="227.929688"/>
     </g>
    </g>
   </g>
   <g id="matplotlib.axis_2">
    <g id="ytick_1">
     <g id="line2d_4">
      <defs>
       <path id="m0cc0b178fa" d="M 0 0 
L -4.8 0 
" style="stroke: #262626"/>
      </defs>
      <g>
       <use xlink:href="#m0cc0b178fa" x="104.01" y="269.062939" style="fill: #262626; stroke: #262626"/>
      </g>
     </g>
     <g id="text_5">
      <!-- −2.0 -->
      <g style="fill: #262626" transform="translate(52.280625 276.936533) scale(0.22 -0.22)">
       <defs>
        <path id="ArialMT-2212" d="M 3381 1997 
L 356 1997 
L 356 2522 
L 3381 2522 
L 3381 1997 
z
" transform="scale(0.015625)"/>
        <path id="ArialMT-32" d="M 3222 541 
L 3222 0 
L 194 0 
Q 188 203 259 391 
Q 375 700 629 1000 
Q 884 1300 1366 1694 
Q 2113 2306 2375 2664 
Q 2638 3022 2638 3341 
Q 2638 3675 2398 3904 
Q 2159 4134 1775 4134 
Q 1369 4134 1125 3890 
Q 881 3647 878 3216 
L 300 3275 
Q 359 3922 746 4261 
Q 1134 4600 1788 4600 
Q 2447 4600 2831 4234 
Q 3216 3869 3216 3328 
Q 3216 3053 3103 2787 
Q 2991 2522 2730 2228 
Q 2469 1934 1863 1422 
Q 1356 997 1212 845 
Q 1069 694 975 541 
L 3222 541 
z
" transform="scale(0.015625)"/>
        <path id="ArialMT-2e" d="M 581 0 
L 581 641 
L 1222 641 
L 1222 0 
L 581 0 
z
" transform="scale(0.015625)"/>
       </defs>
       <use xlink:href="#ArialMT-2212"/>
       <use xlink:href="#ArialMT-32" x="58.398438"/>
       <use xlink:href="#ArialMT-2e" x="114.013672"/>
       <use xlink:href="#ArialMT-30" x="141.796875"/>
      </g>
     </g>
    </g>
    <g id="ytick_2">
     <g id="line2d_5">
      <g>
       <use xlink:href="#m0cc0b178fa" x="104.01" y="216.241664" style="fill: #262626; stroke: #262626"/>
      </g>
     </g>
     <g id="text_6">
      <!-- −1.5 -->
      <g style="fill: #262626" transform="translate(52.280625 224.115258) scale(0.22 -0.22)">
       <use xlink:href="#ArialMT-2212"/>
       <use xlink:href="#ArialMT-31" x="58.398438"/>
       <use xlink:href="#ArialMT-2e" x="114.013672"/>
       <use xlink:href="#ArialMT-35" x="141.796875"/>
      </g>
     </g>
    </g>
    <g id="ytick_3">
     <g id="line2d_6">
      <g>
       <use xlink:href="#m0cc0b178fa" x="104.01" y="163.420389" style="fill: #262626; stroke: #262626"/>
      </g>
     </g>
     <g id="text_7">
      <!-- −1.0 -->
      <g style="fill: #262626" transform="translate(52.280625 171.293983) scale(0.22 -0.22)">
       <use xlink:href="#ArialMT-2212"/>
       <use xlink:href="#ArialMT-31" x="58.398438"/>
       <use xlink:href="#ArialMT-2e" x="114.013672"/>
       <use xlink:href="#ArialMT-30" x="141.796875"/>
      </g>
     </g>
    </g>
    <g id="ytick_4">
     <g id="line2d_7">
      <g>
       <use xlink:href="#m0cc0b178fa" x="104.01" y="110.599114" style="fill: #262626; stroke: #262626"/>
      </g>
     </g>
     <g id="text_8">
      <!-- −0.5 -->
      <g style="fill: #262626" transform="translate(52.280625 118.472708) scale(0.22 -0.22)">
       <use xlink:href="#ArialMT-2212"/>
       <use xlink:href="#ArialMT-30" x="58.398438"/>
       <use xlink:href="#ArialMT-2e" x="114.013672"/>
       <use xlink:href="#ArialMT-35" x="141.796875"/>
      </g>
     </g>
    </g>
    <g id="ytick_5">
     <g id="line2d_8">
      <g>
       <use xlink:href="#m0cc0b178fa" x="104.01" y="57.777839" style="fill: #262626; stroke: #262626"/>
      </g>
     </g>
     <g id="text_9">
      <!-- 0.0 -->
      <g style="fill: #262626" transform="translate(65.13 65.651433) scale(0.22 -0.22)">
       <use xlink:href="#ArialMT-30"/>
       <use xlink:href="#ArialMT-2e" x="55.615234"/>
       <use xlink:href="#ArialMT-30" x="83.398438"/>
      </g>
     </g>
    </g>
    <g id="text_10">
     <!-- Loss -->
     <g style="fill: #262626" transform="translate(43.510625 196.67625) rotate(-90) scale(0.24 -0.24)">
      <defs>
       <path id="ArialMT-4c" d="M 469 0 
L 469 4581 
L 1075 4581 
L 1075 541 
L 3331 541 
L 3331 0 
L 469 0 
z
" transform="scale(0.015625)"/>
       <path id="ArialMT-73" d="M 197 991 
L 753 1078 
Q 800 744 1014 566 
Q 1228 388 1613 388 
Q 2000 388 2187 545 
Q 2375 703 2375 916 
Q 2375 1106 2209 1216 
Q 2094 1291 1634 1406 
Q 1016 1563 777 1677 
Q 538 1791 414 1992 
Q 291 2194 291 2438 
Q 291 2659 392 2848 
Q 494 3038 669 3163 
Q 800 3259 1026 3326 
Q 1253 3394 1513 3394 
Q 1903 3394 2198 3281 
Q 2494 3169 2634 2976 
Q 2775 2784 2828 2463 
L 2278 2388 
Q 2241 2644 2061 2787 
Q 1881 2931 1553 2931 
Q 1166 2931 1000 2803 
Q 834 2675 834 2503 
Q 834 2394 903 2306 
Q 972 2216 1119 2156 
Q 1203 2125 1616 2013 
Q 2213 1853 2448 1751 
Q 2684 1650 2818 1456 
Q 2953 1263 2953 975 
Q 2953 694 2789 445 
Q 2625 197 2315 61 
Q 2006 -75 1616 -75 
Q 969 -75 630 194 
Q 291 463 197 991 
z
" transform="scale(0.015625)"/>
      </defs>
      <use xlink:href="#ArialMT-4c"/>
      <use xlink:href="#ArialMT-6f" x="55.615234"/>
      <use xlink:href="#ArialMT-73" x="111.230469"/>
      <use xlink:href="#ArialMT-73" x="161.230469"/>
     </g>
    </g>
    <g id="text_11">
     <!-- 1e6 -->
     <g style="fill: #262626" transform="translate(104.01 42.48) scale(0.22 -0.22)">
      <defs>
       <path id="ArialMT-65" d="M 2694 1069 
L 3275 997 
Q 3138 488 2766 206 
Q 2394 -75 1816 -75 
Q 1088 -75 661 373 
Q 234 822 234 1631 
Q 234 2469 665 2931 
Q 1097 3394 1784 3394 
Q 2450 3394 2872 2941 
Q 3294 2488 3294 1666 
Q 3294 1616 3291 1516 
L 816 1516 
Q 847 969 1125 678 
Q 1403 388 1819 388 
Q 2128 388 2347 550 
Q 2566 713 2694 1069 
z
M 847 1978 
L 2700 1978 
Q 2663 2397 2488 2606 
Q 2219 2931 1791 2931 
Q 1403 2931 1139 2672 
Q 875 2413 847 1978 
z
" transform="scale(0.015625)"/>
       <path id="ArialMT-36" d="M 3184 3459 
L 2625 3416 
Q 2550 3747 2413 3897 
Q 2184 4138 1850 4138 
Q 1581 4138 1378 3988 
Q 1113 3794 959 3422 
Q 806 3050 800 2363 
Q 1003 2672 1297 2822 
Q 1591 2972 1913 2972 
Q 2475 2972 2870 2558 
Q 3266 2144 3266 1488 
Q 3266 1056 3080 686 
Q 2894 316 2569 119 
Q 2244 -78 1831 -78 
Q 1128 -78 684 439 
Q 241 956 241 2144 
Q 241 3472 731 4075 
Q 1159 4600 1884 4600 
Q 2425 4600 2770 4297 
Q 3116 3994 3184 3459 
z
M 888 1484 
Q 888 1194 1011 928 
Q 1134 663 1356 523 
Q 1578 384 1822 384 
Q 2178 384 2434 671 
Q 2691 959 2691 1453 
Q 2691 1928 2437 2201 
Q 2184 2475 1800 2475 
Q 1419 2475 1153 2201 
Q 888 1928 888 1484 
z
" transform="scale(0.015625)"/>
      </defs>
      <use xlink:href="#ArialMT-31"/>
      <use xlink:href="#ArialMT-65" x="55.615234"/>
      <use xlink:href="#ArialMT-36" x="111.230469"/>
     </g>
    </g>
   </g>
   <g id="line2d_9">
    <path d="M 117.978543 57.819386 
L 120.800471 57.939471 
L 123.622399 58.108501 
L 126.444327 58.304587 
L 129.266255 58.538796 
L 132.088183 58.811406 
L 134.910111 59.106293 
L 137.732039 59.51591 
L 140.553967 60.008309 
L 143.375895 60.482317 
L 146.197823 61.153786 
L 149.01975 61.788624 
L 151.841678 62.404976 
L 154.663606 62.963521 
L 157.485534 63.890715 
L 160.307462 64.844396 
L 163.12939 65.40506 
L 165.951318 66.511773 
L 168.773246 67.564056 
L 171.595174 68.362374 
L 174.417102 69.825727 
L 177.23903 71.164597 
L 180.060958 72.297104 
L 182.882886 73.337118 
L 185.704813 74.285754 
L 188.526741 76.128605 
L 191.348669 78.166799 
L 194.170597 79.081848 
L 196.992525 80.644319 
L 199.814453 81.241395 
L 202.636381 83.162069 
L 205.458309 85.051451 
L 208.280237 86.62294 
L 211.102165 88.571101 
L 213.924093 91.15285 
L 216.746021 92.65987 
L 219.567949 93.510686 
L 222.389877 96.505005 
L 225.211804 97.575078 
L 228.033732 101.652296 
L 230.85566 104.108657 
L 233.677588 103.91616 
L 236.499516 105.715622 
L 239.321444 110.52145 
L 242.143372 111.432406 
L 244.9653 112.509765 
L 247.787228 115.194327 
L 250.609156 117.470607 
L 253.431084 121.821205 
L 256.253012 124.819314 
L 259.07494 125.24304 
L 261.896868 128.836637 
L 264.718795 128.021558 
L 267.540723 133.647737 
L 270.362651 136.397771 
L 273.184579 140.153066 
L 276.006507 138.092548 
L 278.828435 139.916493 
L 281.650363 145.120584 
L 284.472291 150.85566 
L 287.294219 153.462932 
L 290.116147 151.489872 
L 292.938075 157.709214 
L 295.760003 162.725248 
L 298.581931 165.152445 
L 301.403859 168.581926 
L 304.225786 164.495375 
L 307.047714 168.797991 
L 309.869642 175.501486 
L 312.69157 172.290745 
L 315.513498 184.767592 
L 318.335426 183.012685 
L 321.157354 187.697338 
L 323.979282 186.777732 
L 326.80121 200.754823 
L 329.623138 199.062442 
L 332.445066 198.569924 
L 335.266994 203.046553 
L 338.088922 208.734123 
L 340.910849 207.221903 
L 343.732777 215.321729 
L 346.554705 208.912118 
L 349.376633 220.332513 
L 352.198561 225.372086 
L 355.020489 232.237293 
L 357.842417 226.460283 
L 360.664345 238.921059 
L 363.486273 240.618643 
L 366.308201 241.616886 
L 369.130129 250.559409 
L 371.952057 245.810631 
L 374.773985 256.878722 
L 377.595913 261.005727 
L 380.41784 260.68287 
L 383.239768 261.855357 
L 386.061696 261.126939 
L 388.883624 269.244222 
L 391.705552 274.636561 
L 394.52748 282.960771 
L 397.349408 285.739091 
" clip-path="url(#pf6751cf471)" style="fill: none; stroke: #0c2e8a; stroke-width: 2; stroke-linecap: round"/>
   </g>
   <g id="line2d_10">
    <path d="M 117.978543 57.777558 
L 120.800471 57.776918 
L 123.622399 57.776092 
L 126.444327 57.775161 
L 129.266255 57.773948 
L 132.088183 57.7725 
L 134.910111 57.770864 
L 137.732039 57.769098 
L 140.553967 57.767069 
L 143.375895 57.764863 
L 146.197823 57.762514 
L 149.01975 57.759916 
L 151.841678 57.757013 
L 154.663606 57.754042 
L 157.485534 57.750821 
L 160.307462 57.747482 
L 163.12939 57.743852 
L 165.951318 57.740076 
L 168.773246 57.736183 
L 171.595174 57.73205 
L 174.417102 57.727775 
L 177.23903 57.723114 
L 180.060958 57.718466 
L 182.882886 57.713552 
L 185.704813 57.708242 
L 188.526741 57.703241 
L 191.348669 57.698328 
L 194.170597 57.69298 
L 196.992525 57.687502 
L 199.814453 57.681225 
L 202.636381 57.67492 
L 205.458309 57.668389 
L 208.280237 57.662244 
L 211.102165 57.655777 
L 213.924093 57.649081 
L 216.746021 57.642137 
L 219.567949 57.635289 
L 222.389877 57.628094 
L 225.211804 57.620638 
L 228.033732 57.613587 
L 230.85566 57.60644 
L 233.677588 57.598679 
L 236.499516 57.590807 
L 239.321444 57.582833 
L 242.143372 57.574793 
L 244.9653 57.566262 
L 247.787228 57.557945 
L 250.609156 57.549026 
L 253.431084 57.540652 
L 256.253012 57.532005 
L 259.07494 57.523367 
L 261.896868 57.514852 
L 264.718795 57.50505 
L 267.540723 57.495408 
L 270.362651 57.485734 
L 273.184579 57.476068 
L 276.006507 57.465645 
L 278.828435 57.455136 
L 281.650363 57.444774 
L 284.472291 57.434526 
L 287.294219 57.424721 
L 290.116147 57.414316 
L 292.938075 57.403779 
L 295.760003 57.39299 
L 298.581931 57.381887 
L 301.403859 57.370959 
L 304.225786 57.358734 
L 307.047714 57.34654 
L 309.869642 57.335094 
L 312.69157 57.323072 
L 315.513498 57.31151 
L 318.335426 57.299425 
L 321.157354 57.287724 
L 323.979282 57.275187 
L 326.80121 57.263429 
L 329.623138 57.251837 
L 332.445066 57.239459 
L 335.266994 57.226787 
L 338.088922 57.214682 
L 340.910849 57.202251 
L 343.732777 57.189097 
L 346.554705 57.175407 
L 349.376633 57.162251 
L 352.198561 57.148858 
L 355.020489 57.135343 
L 357.842417 57.121971 
L 360.664345 57.108261 
L 363.486273 57.094928 
L 366.308201 57.081207 
L 369.130129 57.066946 
L 371.952057 57.052335 
L 374.773985 57.038095 
L 377.595913 57.023968 
L 380.41784 57.00977 
L 383.239768 56.995352 
L 386.061696 56.980175 
L 388.883624 56.965581 
L 391.705552 56.950768 
L 394.52748 56.935753 
L 397.349408 56.920909 
" clip-path="url(#pf6751cf471)" style="fill: none; stroke-dasharray: 7.4,3.2; stroke-dashoffset: 0; stroke: #ffc640; stroke-width: 2"/>
   </g>
   <g id="patch_3">
    <path d="M 104.01 297.18 
L 104.01 45.48 
" style="fill: none; stroke: #9d9d9d; stroke-width: 0.6; stroke-linejoin: miter; stroke-linecap: square"/>
   </g>
   <g id="patch_4">
    <path d="M 411.317951 297.18 
L 411.317951 45.48 
" style="fill: none; stroke: #9d9d9d; stroke-width: 0.6; stroke-linejoin: miter; stroke-linecap: square"/>
   </g>
   <g id="patch_5">
    <path d="M 104.01 297.18 
L 411.317951 297.18 
" style="fill: none; stroke: #9d9d9d; stroke-width: 0.6; stroke-linejoin: miter; stroke-linecap: square"/>
   </g>
   <g id="patch_6">
    <path d="M 104.01 45.48 
L 411.317951 45.48 
" style="fill: none; stroke: #9d9d9d; stroke-width: 0.6; stroke-linejoin: miter; stroke-linecap: square"/>
   </g>
   <g id="legend_1">
    <g id="patch_7">
     <path d="M 119.41 286.18 
L 232.603438 286.18 
Q 237.003438 286.18 237.003438 281.78 
L 237.003438 221.740625 
Q 237.003438 217.340625 232.603438 217.340625 
L 119.41 217.340625 
Q 115.01 217.340625 115.01 221.740625 
L 115.01 281.78 
Q 115.01 286.18 119.41 286.18 
z
" style="fill: #ffffff; opacity: 0.8; stroke: #cccccc; stroke-width: 0.8; stroke-linejoin: miter"/>
    </g>
    <g id="line2d_11">
     <path d="M 123.81 234.187812 
L 145.81 234.187812 
L 167.81 234.187812 
" style="fill: none; stroke: #0c2e8a; stroke-width: 2; stroke-linecap: round"/>
    </g>
    <g id="text_12">
     <!-- train -->
     <g style="fill: #262626" transform="translate(185.41 241.887812) scale(0.22 -0.22)">
      <defs>
       <path id="ArialMT-74" d="M 1650 503 
L 1731 6 
Q 1494 -44 1306 -44 
Q 1000 -44 831 53 
Q 663 150 594 308 
Q 525 466 525 972 
L 525 2881 
L 113 2881 
L 113 3319 
L 525 3319 
L 525 4141 
L 1084 4478 
L 1084 3319 
L 1650 3319 
L 1650 2881 
L 1084 2881 
L 1084 941 
Q 1084 700 1114 631 
Q 1144 563 1211 522 
Q 1278 481 1403 481 
Q 1497 481 1650 503 
z
" transform="scale(0.015625)"/>
       <path id="ArialMT-72" d="M 416 0 
L 416 3319 
L 922 3319 
L 922 2816 
Q 1116 3169 1280 3281 
Q 1444 3394 1641 3394 
Q 1925 3394 2219 3213 
L 2025 2691 
Q 1819 2813 1613 2813 
Q 1428 2813 1281 2702 
Q 1134 2591 1072 2394 
Q 978 2094 978 1738 
L 978 0 
L 416 0 
z
" transform="scale(0.015625)"/>
       <path id="ArialMT-61" d="M 2588 409 
Q 2275 144 1986 34 
Q 1697 -75 1366 -75 
Q 819 -75 525 192 
Q 231 459 231 875 
Q 231 1119 342 1320 
Q 453 1522 633 1644 
Q 813 1766 1038 1828 
Q 1203 1872 1538 1913 
Q 2219 1994 2541 2106 
Q 2544 2222 2544 2253 
Q 2544 2597 2384 2738 
Q 2169 2928 1744 2928 
Q 1347 2928 1158 2789 
Q 969 2650 878 2297 
L 328 2372 
Q 403 2725 575 2942 
Q 747 3159 1072 3276 
Q 1397 3394 1825 3394 
Q 2250 3394 2515 3294 
Q 2781 3194 2906 3042 
Q 3031 2891 3081 2659 
Q 3109 2516 3109 2141 
L 3109 1391 
Q 3109 606 3145 398 
Q 3181 191 3288 0 
L 2700 0 
Q 2613 175 2588 409 
z
M 2541 1666 
Q 2234 1541 1622 1453 
Q 1275 1403 1131 1340 
Q 988 1278 909 1158 
Q 831 1038 831 891 
Q 831 666 1001 516 
Q 1172 366 1500 366 
Q 1825 366 2078 508 
Q 2331 650 2450 897 
Q 2541 1088 2541 1459 
L 2541 1666 
z
" transform="scale(0.015625)"/>
       <path id="ArialMT-69" d="M 425 3934 
L 425 4581 
L 988 4581 
L 988 3934 
L 425 3934 
z
M 425 0 
L 425 3319 
L 988 3319 
L 988 0 
L 425 0 
z
" transform="scale(0.015625)"/>
       <path id="ArialMT-6e" d="M 422 0 
L 422 3319 
L 928 3319 
L 928 2847 
Q 1294 3394 1984 3394 
Q 2284 3394 2536 3286 
Q 2788 3178 2913 3003 
Q 3038 2828 3088 2588 
Q 3119 2431 3119 2041 
L 3119 0 
L 2556 0 
L 2556 2019 
Q 2556 2363 2490 2533 
Q 2425 2703 2258 2804 
Q 2091 2906 1866 2906 
Q 1506 2906 1245 2678 
Q 984 2450 984 1813 
L 984 0 
L 422 0 
z
" transform="scale(0.015625)"/>
      </defs>
      <use xlink:href="#ArialMT-74"/>
      <use xlink:href="#ArialMT-72" x="27.783203"/>
      <use xlink:href="#ArialMT-61" x="61.083984"/>
      <use xlink:href="#ArialMT-69" x="116.699219"/>
      <use xlink:href="#ArialMT-6e" x="138.916016"/>
     </g>
    </g>
    <g id="line2d_12">
     <path d="M 123.81 265.3075 
L 145.81 265.3075 
L 167.81 265.3075 
" style="fill: none; stroke-dasharray: 7.4,3.2; stroke-dashoffset: 0; stroke: #ffc640; stroke-width: 2"/>
    </g>
    <g id="text_13">
     <!-- val -->
     <g style="fill: #262626" transform="translate(185.41 273.0075) scale(0.22 -0.22)">
      <defs>
       <path id="ArialMT-76" d="M 1344 0 
L 81 3319 
L 675 3319 
L 1388 1331 
Q 1503 1009 1600 663 
Q 1675 925 1809 1294 
L 2547 3319 
L 3125 3319 
L 1869 0 
L 1344 0 
z
" transform="scale(0.015625)"/>
       <path id="ArialMT-6c" d="M 409 0 
L 409 4581 
L 972 4581 
L 972 0 
L 409 0 
z
" transform="scale(0.015625)"/>
      </defs>
      <use xlink:href="#ArialMT-76"/>
      <use xlink:href="#ArialMT-61" x="50"/>
      <use xlink:href="#ArialMT-6c" x="105.615234"/>
     </g>
    </g>
   </g>
  </g>
  <g id="axes_2">
   <g id="patch_8">
    <path d="M 509.352049 297.18 
L 816.66 297.18 
L 816.66 45.48 
L 509.352049 45.48 
z
" style="fill: #ffffff"/>
   </g>
   <g id="matplotlib.axis_3">
    <g id="xtick_4">
     <g id="line2d_13">
      <g>
       <use xlink:href="#m50a6679274" x="523.320592" y="297.18" style="fill: #262626; stroke: #262626"/>
      </g>
     </g>
     <g id="text_14">
      <!-- 0 -->
      <g style="fill: #262626" transform="translate(517.203561 321.227187) scale(0.22 -0.22)">
       <use xlink:href="#ArialMT-30"/>
      </g>
     </g>
    </g>
    <g id="xtick_5">
     <g id="line2d_14">
      <g>
       <use xlink:href="#m50a6679274" x="664.416988" y="297.18" style="fill: #262626; stroke: #262626"/>
      </g>
     </g>
     <g id="text_15">
      <!-- 50 -->
      <g style="fill: #262626" transform="translate(652.182926 321.227187) scale(0.22 -0.22)">
       <use xlink:href="#ArialMT-35"/>
       <use xlink:href="#ArialMT-30" x="55.615234"/>
      </g>
     </g>
    </g>
    <g id="xtick_6">
     <g id="line2d_15">
      <g>
       <use xlink:href="#m50a6679274" x="805.513385" y="297.18" style="fill: #262626; stroke: #262626"/>
      </g>
     </g>
     <g id="text_16">
      <!-- 100 -->
      <g style="fill: #262626" transform="translate(787.162291 321.227187) scale(0.22 -0.22)">
       <use xlink:href="#ArialMT-31"/>
       <use xlink:href="#ArialMT-30" x="55.615234"/>
       <use xlink:href="#ArialMT-30" x="111.230469"/>
      </g>
     </g>
    </g>
    <g id="text_17">
     <!-- Epoch -->
     <g style="fill: #262626" transform="translate(628.982274 346.778437) scale(0.24 -0.24)">
      <use xlink:href="#ArialMT-45"/>
      <use xlink:href="#ArialMT-70" x="66.699219"/>
      <use xlink:href="#ArialMT-6f" x="122.314453"/>
      <use xlink:href="#ArialMT-63" x="177.929688"/>
      <use xlink:href="#ArialMT-68" x="227.929688"/>
     </g>
    </g>
   </g>
   <g id="matplotlib.axis_4">
    <g id="ytick_6">
     <g id="line2d_16">
      <g>
       <use xlink:href="#m0cc0b178fa" x="509.352049" y="285.739091" style="fill: #262626; stroke: #262626"/>
      </g>
     </g>
     <g id="text_18">
      <!-- 0.00 -->
      <g style="fill: #262626" transform="translate(458.237986 293.612685) scale(0.22 -0.22)">
       <use xlink:href="#ArialMT-30"/>
       <use xlink:href="#ArialMT-2e" x="55.615234"/>
       <use xlink:href="#ArialMT-30" x="83.398438"/>
       <use xlink:href="#ArialMT-30" x="139.013672"/>
      </g>
     </g>
    </g>
    <g id="ytick_7">
     <g id="line2d_17">
      <g>
       <use xlink:href="#m0cc0b178fa" x="509.352049" y="223.662501" style="fill: #262626; stroke: #262626"/>
      </g>
     </g>
     <g id="text_19">
      <!-- 0.25 -->
      <g style="fill: #262626" transform="translate(458.237986 231.536094) scale(0.22 -0.22)">
       <use xlink:href="#ArialMT-30"/>
       <use xlink:href="#ArialMT-2e" x="55.615234"/>
       <use xlink:href="#ArialMT-32" x="83.398438"/>
       <use xlink:href="#ArialMT-35" x="139.013672"/>
      </g>
     </g>
    </g>
    <g id="ytick_8">
     <g id="line2d_18">
      <g>
       <use xlink:href="#m0cc0b178fa" x="509.352049" y="161.58591" style="fill: #262626; stroke: #262626"/>
      </g>
     </g>
     <g id="text_20">
      <!-- 0.50 -->
      <g style="fill: #262626" transform="translate(458.237986 169.459504) scale(0.22 -0.22)">
       <use xlink:href="#ArialMT-30"/>
       <use xlink:href="#ArialMT-2e" x="55.615234"/>
       <use xlink:href="#ArialMT-35" x="83.398438"/>
       <use xlink:href="#ArialMT-30" x="139.013672"/>
      </g>
     </g>
    </g>
    <g id="ytick_9">
     <g id="line2d_19">
      <g>
       <use xlink:href="#m0cc0b178fa" x="509.352049" y="99.50932" style="fill: #262626; stroke: #262626"/>
      </g>
     </g>
     <g id="text_21">
      <!-- 0.75 -->
      <g style="fill: #262626" transform="translate(458.237986 107.382913) scale(0.22 -0.22)">
       <defs>
        <path id="ArialMT-37" d="M 303 3981 
L 303 4522 
L 3269 4522 
L 3269 4084 
Q 2831 3619 2401 2847 
Q 1972 2075 1738 1259 
Q 1569 684 1522 0 
L 944 0 
Q 953 541 1156 1306 
Q 1359 2072 1739 2783 
Q 2119 3494 2547 3981 
L 303 3981 
z
" transform="scale(0.015625)"/>
       </defs>
       <use xlink:href="#ArialMT-30"/>
       <use xlink:href="#ArialMT-2e" x="55.615234"/>
       <use xlink:href="#ArialMT-37" x="83.398438"/>
       <use xlink:href="#ArialMT-35" x="139.013672"/>
      </g>
     </g>
    </g>
    <g id="text_22">
     <!-- AUC -->
     <g style="fill: #262626" transform="translate(449.467986 196.666875) rotate(-90) scale(0.24 -0.24)">
      <defs>
       <path id="ArialMT-41" d="M -9 0 
L 1750 4581 
L 2403 4581 
L 4278 0 
L 3588 0 
L 3053 1388 
L 1138 1388 
L 634 0 
L -9 0 
z
M 1313 1881 
L 2866 1881 
L 2388 3150 
Q 2169 3728 2063 4100 
Q 1975 3659 1816 3225 
L 1313 1881 
z
" transform="scale(0.015625)"/>
       <path id="ArialMT-55" d="M 3500 4581 
L 4106 4581 
L 4106 1934 
Q 4106 1244 3950 837 
Q 3794 431 3386 176 
Q 2978 -78 2316 -78 
Q 1672 -78 1262 144 
Q 853 366 678 786 
Q 503 1206 503 1934 
L 503 4581 
L 1109 4581 
L 1109 1938 
Q 1109 1341 1220 1058 
Q 1331 775 1601 622 
Q 1872 469 2263 469 
Q 2931 469 3215 772 
Q 3500 1075 3500 1938 
L 3500 4581 
z
" transform="scale(0.015625)"/>
       <path id="ArialMT-43" d="M 3763 1606 
L 4369 1453 
Q 4178 706 3683 314 
Q 3188 -78 2472 -78 
Q 1731 -78 1267 223 
Q 803 525 561 1097 
Q 319 1669 319 2325 
Q 319 3041 592 3573 
Q 866 4106 1370 4382 
Q 1875 4659 2481 4659 
Q 3169 4659 3637 4309 
Q 4106 3959 4291 3325 
L 3694 3184 
Q 3534 3684 3231 3912 
Q 2928 4141 2469 4141 
Q 1941 4141 1586 3887 
Q 1231 3634 1087 3207 
Q 944 2781 944 2328 
Q 944 1744 1114 1308 
Q 1284 872 1643 656 
Q 2003 441 2422 441 
Q 2931 441 3284 734 
Q 3638 1028 3763 1606 
z
" transform="scale(0.015625)"/>
      </defs>
      <use xlink:href="#ArialMT-41"/>
      <use xlink:href="#ArialMT-55" x="66.699219"/>
      <use xlink:href="#ArialMT-43" x="138.916016"/>
     </g>
    </g>
   </g>
   <g id="line2d_20">
    <path d="M 523.320592 285.739091 
L 526.14252 285.739091 
L 528.964448 285.739091 
L 531.786376 285.739091 
L 534.608304 285.739091 
L 537.430232 285.739091 
L 540.25216 285.739091 
L 543.074087 285.739091 
L 545.896015 285.739091 
L 548.717943 285.739091 
L 551.539871 285.739091 
L 554.361799 285.739091 
L 557.183727 285.739091 
L 560.005655 285.739091 
L 562.827583 285.739091 
L 565.649511 285.739091 
L 568.471439 285.739091 
L 571.293367 285.739091 
L 574.115295 285.739091 
L 576.937223 285.739091 
L 579.759151 285.739091 
L 582.581078 285.739091 
L 585.403006 285.739091 
L 588.224934 285.739091 
L 591.046862 285.739091 
L 593.86879 285.739091 
L 596.690718 285.739091 
L 599.512646 285.739091 
L 602.334574 285.739091 
L 605.156502 285.739091 
L 607.97843 285.739091 
L 610.800358 285.739091 
L 613.622286 285.739091 
L 616.444214 285.739091 
L 619.266141 285.739091 
L 622.088069 285.739091 
L 624.909997 285.739091 
L 627.731925 285.739091 
L 630.553853 285.739091 
L 633.375781 285.739091 
L 636.197709 285.739091 
L 639.019637 285.739091 
L 641.841565 285.739091 
L 644.663493 285.739091 
L 647.485421 285.739091 
L 650.307349 285.739091 
L 653.129277 285.739091 
L 655.951205 285.739091 
L 658.773132 285.739091 
L 661.59506 285.739091 
L 664.416988 285.739091 
L 667.238916 285.739091 
L 670.060844 285.739091 
L 672.882772 285.739091 
L 675.7047 285.739091 
L 678.526628 285.739091 
L 681.348556 285.739091 
L 684.170484 285.739091 
L 686.992412 285.739091 
L 689.81434 285.739091 
L 692.636268 285.739091 
L 695.458196 285.739091 
L 698.280123 285.739091 
L 701.102051 285.739091 
L 703.923979 285.739091 
L 706.745907 285.739091 
L 709.567835 285.739091 
L 712.389763 285.739091 
L 715.211691 285.739091 
L 718.033619 285.739091 
L 720.855547 285.739091 
L 723.677475 285.739091 
L 726.499403 285.739091 
L 729.321331 285.739091 
L 732.143259 285.739091 
L 734.965187 285.739091 
L 737.787114 285.739091 
L 740.609042 285.739091 
L 743.43097 285.739091 
L 746.252898 285.739091 
L 749.074826 285.739091 
L 751.896754 285.739091 
L 754.718682 285.739091 
L 757.54061 285.739091 
L 760.362538 285.739091 
L 763.184466 285.739091 
L 766.006394 285.739091 
L 768.828322 285.739091 
L 771.65025 285.739091 
L 774.472177 285.739091 
L 777.294105 285.739091 
L 780.116033 285.739091 
L 782.937961 285.739091 
L 785.759889 285.739091 
L 788.581817 285.739091 
L 791.403745 285.739091 
L 794.225673 285.739091 
L 797.047601 285.739091 
L 799.869529 285.739091 
L 802.691457 285.739091 
" clip-path="url(#p983ee5f2e6)" style="fill: none; stroke: #0c2e8a; stroke-width: 2; stroke-linecap: round"/>
   </g>
   <g id="line2d_21">
    <path d="M 523.320592 56.920909 
L 526.14252 158.101008 
L 528.964448 167.868445 
L 531.786376 161.507943 
L 534.608304 161.555984 
L 537.430232 161.574884 
L 540.25216 161.582758 
L 543.074087 161.584341 
L 545.896015 161.584341 
L 548.717943 161.585126 
L 551.539871 161.58591 
L 554.361799 161.585126 
L 557.183727 161.585126 
L 560.005655 161.584341 
L 562.827583 161.584341 
L 565.649511 161.584341 
L 568.471439 161.584341 
L 571.293367 161.584341 
L 574.115295 161.58591 
L 576.937223 161.58591 
L 579.759151 161.58591 
L 582.581078 161.58591 
L 585.403006 161.58591 
L 588.224934 161.58591 
L 591.046862 161.58591 
L 593.86879 161.58591 
L 596.690718 161.58591 
L 599.512646 161.58591 
L 602.334574 161.58591 
L 605.156502 161.58591 
L 607.97843 161.58591 
L 610.800358 161.58591 
L 613.622286 161.58591 
L 616.444214 161.58591 
L 619.266141 161.58591 
L 622.088069 161.58591 
L 624.909997 161.58591 
L 627.731925 161.58591 
L 630.553853 161.58591 
L 633.375781 161.58591 
L 636.197709 161.58591 
L 639.019637 161.58591 
L 641.841565 161.58591 
L 644.663493 161.58591 
L 647.485421 161.58591 
L 650.307349 161.58591 
L 653.129277 161.58591 
L 655.951205 161.58591 
L 658.773132 161.58591 
L 661.59506 161.58591 
L 664.416988 161.58591 
L 667.238916 161.58591 
L 670.060844 161.58591 
L 672.882772 161.58591 
L 675.7047 161.58591 
L 678.526628 161.58591 
L 681.348556 161.58591 
L 684.170484 161.58591 
L 686.992412 161.58591 
L 689.81434 161.58591 
L 692.636268 161.58591 
L 695.458196 161.58591 
L 698.280123 161.58591 
L 701.102051 161.58591 
L 703.923979 161.58591 
L 706.745907 161.58591 
L 709.567835 161.58591 
L 712.389763 161.58591 
L 715.211691 161.58591 
L 718.033619 161.58591 
L 720.855547 161.58591 
L 723.677475 161.58591 
L 726.499403 161.58591 
L 729.321331 161.58591 
L 732.143259 161.58591 
L 734.965187 161.58591 
L 737.787114 161.58591 
L 740.609042 161.58591 
L 743.43097 161.58591 
L 746.252898 161.58591 
L 749.074826 161.58591 
L 751.896754 161.58591 
L 754.718682 161.58591 
L 757.54061 161.58591 
L 760.362538 161.58591 
L 763.184466 161.58591 
L 766.006394 161.58591 
L 768.828322 161.58591 
L 771.65025 161.58591 
L 774.472177 161.58591 
L 777.294105 161.58591 
L 780.116033 161.58591 
L 782.937961 161.58591 
L 785.759889 161.58591 
L 788.581817 161.58591 
L 791.403745 161.58591 
L 794.225673 161.58591 
L 797.047601 161.58591 
L 799.869529 161.58591 
L 802.691457 161.58591 
" clip-path="url(#p983ee5f2e6)" style="fill: none; stroke-dasharray: 7.4,3.2; stroke-dashoffset: 0; stroke: #ffc640; stroke-width: 2"/>
   </g>
   <g id="patch_9">
    <path d="M 509.352049 297.18 
L 509.352049 45.48 
" style="fill: none; stroke: #9d9d9d; stroke-width: 0.6; stroke-linejoin: miter; stroke-linecap: square"/>
   </g>
   <g id="patch_10">
    <path d="M 816.66 297.18 
L 816.66 45.48 
" style="fill: none; stroke: #9d9d9d; stroke-width: 0.6; stroke-linejoin: miter; stroke-linecap: square"/>
   </g>
   <g id="patch_11">
    <path d="M 509.352049 297.18 
L 816.66 297.18 
" style="fill: none; stroke: #9d9d9d; stroke-width: 0.6; stroke-linejoin: miter; stroke-linecap: square"/>
   </g>
   <g id="patch_12">
    <path d="M 509.352049 45.48 
L 816.66 45.48 
" style="fill: none; stroke: #9d9d9d; stroke-width: 0.6; stroke-linejoin: miter; stroke-linecap: square"/>
   </g>
   <g id="legend_2">
    <g id="patch_13">
     <path d="M 688.066562 125.319375 
L 801.26 125.319375 
Q 805.66 125.319375 805.66 120.919375 
L 805.66 60.88 
Q 805.66 56.48 801.26 56.48 
L 688.066562 56.48 
Q 683.666562 56.48 683.666562 60.88 
L 683.666562 120.919375 
Q 683.666562 125.319375 688.066562 125.319375 
z
" style="fill: #ffffff; opacity: 0.8; stroke: #cccccc; stroke-width: 0.8; stroke-linejoin: miter"/>
    </g>
    <g id="line2d_22">
     <path d="M 692.466562 73.327187 
L 714.466562 73.327187 
L 736.466562 73.327187 
" style="fill: none; stroke: #0c2e8a; stroke-width: 2; stroke-linecap: round"/>
    </g>
    <g id="text_23">
     <!-- train -->
     <g style="fill: #262626" transform="translate(754.066562 81.027187) scale(0.22 -0.22)">
      <use xlink:href="#ArialMT-74"/>
      <use xlink:href="#ArialMT-72" x="27.783203"/>
      <use xlink:href="#ArialMT-61" x="61.083984"/>
      <use xlink:href="#ArialMT-69" x="116.699219"/>
      <use xlink:href="#ArialMT-6e" x="138.916016"/>
     </g>
    </g>
    <g id="line2d_23">
     <path d="M 692.466562 104.446875 
L 714.466562 104.446875 
L 736.466562 104.446875 
" style="fill: none; stroke-dasharray: 7.4,3.2; stroke-dashoffset: 0; stroke: #ffc640; stroke-width: 2"/>
    </g>
    <g id="text_24">
     <!-- val -->
     <g style="fill: #262626" transform="translate(754.066562 112.146875) scale(0.22 -0.22)">
      <use xlink:href="#ArialMT-76"/>
      <use xlink:href="#ArialMT-61" x="50"/>
      <use xlink:href="#ArialMT-6c" x="105.615234"/>
     </g>
    </g>
   </g>
  </g>
  <g id="axes_3">
   <g id="patch_14">
    <path d="M 104.01 638.58 
L 411.317951 638.58 
L 411.317951 386.88 
L 104.01 386.88 
z
" style="fill: #ffffff"/>
   </g>
   <g id="matplotlib.axis_5">
    <g id="xtick_7">
     <g id="line2d_24">
      <g>
       <use xlink:href="#m50a6679274" x="117.978543" y="638.58" style="fill: #262626; stroke: #262626"/>
      </g>
     </g>
     <g id="text_25">
      <!-- 0 -->
      <g style="fill: #262626" transform="translate(111.861512 662.627187) scale(0.22 -0.22)">
       <use xlink:href="#ArialMT-30"/>
      </g>
     </g>
    </g>
    <g id="xtick_8">
     <g id="line2d_25">
      <g>
       <use xlink:href="#m50a6679274" x="259.07494" y="638.58" style="fill: #262626; stroke: #262626"/>
      </g>
     </g>
     <g id="text_26">
      <!-- 50 -->
      <g style="fill: #262626" transform="translate(246.840877 662.627187) scale(0.22 -0.22)">
       <use xlink:href="#ArialMT-35"/>
       <use xlink:href="#ArialMT-30" x="55.615234"/>
      </g>
     </g>
    </g>
    <g id="xtick_9">
     <g id="line2d_26">
      <g>
       <use xlink:href="#m50a6679274" x="400.171336" y="638.58" style="fill: #262626; stroke: #262626"/>
      </g>
     </g>
     <g id="text_27">
      <!-- 100 -->
      <g style="fill: #262626" transform="translate(381.820242 662.627187) scale(0.22 -0.22)">
       <use xlink:href="#ArialMT-31"/>
       <use xlink:href="#ArialMT-30" x="55.615234"/>
       <use xlink:href="#ArialMT-30" x="111.230469"/>
      </g>
     </g>
    </g>
    <g id="text_28">
     <!-- Epoch -->
     <g style="fill: #262626" transform="translate(223.640226 688.178437) scale(0.24 -0.24)">
      <use xlink:href="#ArialMT-45"/>
      <use xlink:href="#ArialMT-70" x="66.699219"/>
      <use xlink:href="#ArialMT-6f" x="122.314453"/>
      <use xlink:href="#ArialMT-63" x="177.929688"/>
      <use xlink:href="#ArialMT-68" x="227.929688"/>
     </g>
    </g>
   </g>
   <g id="matplotlib.axis_6">
    <g id="ytick_10">
     <g id="line2d_27">
      <g>
       <use xlink:href="#m0cc0b178fa" x="104.01" y="627.191346" style="fill: #262626; stroke: #262626"/>
      </g>
     </g>
     <g id="text_29">
      <!-- 0.00 -->
      <g style="fill: #262626" transform="translate(52.895938 635.06494) scale(0.22 -0.22)">
       <use xlink:href="#ArialMT-30"/>
       <use xlink:href="#ArialMT-2e" x="55.615234"/>
       <use xlink:href="#ArialMT-30" x="83.398438"/>
       <use xlink:href="#ArialMT-30" x="139.013672"/>
      </g>
     </g>
    </g>
    <g id="ytick_11">
     <g id="line2d_28">
      <g>
       <use xlink:href="#m0cc0b178fa" x="104.01" y="569.973737" style="fill: #262626; stroke: #262626"/>
      </g>
     </g>
     <g id="text_30">
      <!-- 0.25 -->
      <g style="fill: #262626" transform="translate(52.895938 577.847331) scale(0.22 -0.22)">
       <use xlink:href="#ArialMT-30"/>
       <use xlink:href="#ArialMT-2e" x="55.615234"/>
       <use xlink:href="#ArialMT-32" x="83.398438"/>
       <use xlink:href="#ArialMT-35" x="139.013672"/>
      </g>
     </g>
    </g>
    <g id="ytick_12">
     <g id="line2d_29">
      <g>
       <use xlink:href="#m0cc0b178fa" x="104.01" y="512.756128" style="fill: #262626; stroke: #262626"/>
      </g>
     </g>
     <g id="text_31">
      <!-- 0.50 -->
      <g style="fill: #262626" transform="translate(52.895938 520.629722) scale(0.22 -0.22)">
       <use xlink:href="#ArialMT-30"/>
       <use xlink:href="#ArialMT-2e" x="55.615234"/>
       <use xlink:href="#ArialMT-35" x="83.398438"/>
       <use xlink:href="#ArialMT-30" x="139.013672"/>
      </g>
     </g>
    </g>
    <g id="ytick_13">
     <g id="line2d_30">
      <g>
       <use xlink:href="#m0cc0b178fa" x="104.01" y="455.538518" style="fill: #262626; stroke: #262626"/>
      </g>
     </g>
     <g id="text_32">
      <!-- 0.75 -->
      <g style="fill: #262626" transform="translate(52.895938 463.412112) scale(0.22 -0.22)">
       <use xlink:href="#ArialMT-30"/>
       <use xlink:href="#ArialMT-2e" x="55.615234"/>
       <use xlink:href="#ArialMT-37" x="83.398438"/>
       <use xlink:href="#ArialMT-35" x="139.013672"/>
      </g>
     </g>
    </g>
    <g id="ytick_14">
     <g id="line2d_31">
      <g>
       <use xlink:href="#m0cc0b178fa" x="104.01" y="398.320909" style="fill: #262626; stroke: #262626"/>
      </g>
     </g>
     <g id="text_33">
      <!-- 1.00 -->
      <g style="fill: #262626" transform="translate(52.895938 406.194503) scale(0.22 -0.22)">
       <use xlink:href="#ArialMT-31"/>
       <use xlink:href="#ArialMT-2e" x="55.615234"/>
       <use xlink:href="#ArialMT-30" x="83.398438"/>
       <use xlink:href="#ArialMT-30" x="139.013672"/>
      </g>
     </g>
    </g>
    <g id="text_34">
     <!-- Precision -->
     <g style="fill: #262626" transform="translate(44.125938 562.081875) rotate(-90) scale(0.24 -0.24)">
      <defs>
       <path id="ArialMT-50" d="M 494 0 
L 494 4581 
L 2222 4581 
Q 2678 4581 2919 4538 
Q 3256 4481 3484 4323 
Q 3713 4166 3852 3881 
Q 3991 3597 3991 3256 
Q 3991 2672 3619 2267 
Q 3247 1863 2275 1863 
L 1100 1863 
L 1100 0 
L 494 0 
z
M 1100 2403 
L 2284 2403 
Q 2872 2403 3119 2622 
Q 3366 2841 3366 3238 
Q 3366 3525 3220 3729 
Q 3075 3934 2838 4000 
Q 2684 4041 2272 4041 
L 1100 4041 
L 1100 2403 
z
" transform="scale(0.015625)"/>
      </defs>
      <use xlink:href="#ArialMT-50"/>
      <use xlink:href="#ArialMT-72" x="66.699219"/>
      <use xlink:href="#ArialMT-65" x="100"/>
      <use xlink:href="#ArialMT-63" x="155.615234"/>
      <use xlink:href="#ArialMT-69" x="205.615234"/>
      <use xlink:href="#ArialMT-73" x="227.832031"/>
      <use xlink:href="#ArialMT-69" x="277.832031"/>
      <use xlink:href="#ArialMT-6f" x="300.048828"/>
      <use xlink:href="#ArialMT-6e" x="355.664062"/>
     </g>
    </g>
   </g>
   <g id="line2d_32">
    <path d="M 117.978543 398.320909 
L 120.800471 398.320909 
L 123.622399 398.320909 
L 126.444327 398.320909 
L 129.266255 398.320909 
L 132.088183 398.320909 
L 134.910111 398.320909 
L 137.732039 398.320909 
L 140.553967 398.320909 
L 143.375895 398.320909 
L 146.197823 398.320909 
L 149.01975 398.320909 
L 151.841678 398.320909 
L 154.663606 398.320909 
L 157.485534 398.320909 
L 160.307462 398.320909 
L 163.12939 398.320909 
L 165.951318 398.320909 
L 168.773246 398.320909 
L 171.595174 398.320909 
L 174.417102 398.320909 
L 177.23903 398.320909 
L 180.060958 398.320909 
L 182.882886 398.320909 
L 185.704813 398.320909 
L 188.526741 398.320909 
L 191.348669 398.320909 
L 194.170597 398.320909 
L 196.992525 398.320909 
L 199.814453 398.320909 
L 202.636381 398.320909 
L 205.458309 398.320909 
L 208.280237 398.320909 
L 211.102165 398.320909 
L 213.924093 398.320909 
L 216.746021 398.320909 
L 219.567949 398.320909 
L 222.389877 398.320909 
L 225.211804 398.320909 
L 228.033732 398.320909 
L 230.85566 398.320909 
L 233.677588 398.320909 
L 236.499516 398.320909 
L 239.321444 398.320909 
L 242.143372 398.320909 
L 244.9653 398.320909 
L 247.787228 398.320909 
L 250.609156 398.320909 
L 253.431084 398.320909 
L 256.253012 398.320909 
L 259.07494 398.320909 
L 261.896868 398.320909 
L 264.718795 398.320909 
L 267.540723 398.320909 
L 270.362651 398.320909 
L 273.184579 398.320909 
L 276.006507 398.320909 
L 278.828435 398.320909 
L 281.650363 398.320909 
L 284.472291 398.320909 
L 287.294219 398.320909 
L 290.116147 398.320909 
L 292.938075 398.320909 
L 295.760003 398.320909 
L 298.581931 398.320909 
L 301.403859 398.320909 
L 304.225786 398.320909 
L 307.047714 398.320909 
L 309.869642 398.320909 
L 312.69157 398.320909 
L 315.513498 398.320909 
L 318.335426 398.320909 
L 321.157354 398.320909 
L 323.979282 398.320909 
L 326.80121 398.320909 
L 329.623138 398.320909 
L 332.445066 398.320909 
L 335.266994 398.320909 
L 338.088922 398.320909 
L 340.910849 398.320909 
L 343.732777 398.320909 
L 346.554705 398.320909 
L 349.376633 398.320909 
L 352.198561 398.320909 
L 355.020489 398.320909 
L 357.842417 398.320909 
L 360.664345 398.320909 
L 363.486273 398.320909 
L 366.308201 398.320909 
L 369.130129 398.320909 
L 371.952057 398.320909 
L 374.773985 398.320909 
L 377.595913 398.320909 
L 380.41784 398.320909 
L 383.239768 398.320909 
L 386.061696 398.320909 
L 388.883624 398.320909 
L 391.705552 398.320909 
L 394.52748 398.320909 
L 397.349408 398.320909 
" clip-path="url(#p822e657f35)" style="fill: none; stroke: #0c2e8a; stroke-width: 2; stroke-linecap: round"/>
   </g>
   <g id="line2d_33">
    <path d="M 117.978543 627.138844 
L 120.800471 627.139007 
L 123.622399 627.139087 
L 126.444327 627.139091 
L 129.266255 627.139091 
L 132.088183 627.139091 
L 134.910111 627.139091 
L 137.732039 627.139091 
L 140.553967 627.139091 
L 143.375895 627.139091 
L 146.197823 627.139091 
L 149.01975 627.139091 
L 151.841678 627.139091 
L 154.663606 627.139091 
L 157.485534 627.139091 
L 160.307462 627.139091 
L 163.12939 627.139091 
L 165.951318 627.139091 
L 168.773246 627.139091 
L 171.595174 627.139091 
L 174.417102 627.139091 
L 177.23903 627.139091 
L 180.060958 627.139091 
L 182.882886 627.139091 
L 185.704813 627.139091 
L 188.526741 627.139091 
L 191.348669 627.139091 
L 194.170597 627.139091 
L 196.992525 627.139091 
L 199.814453 627.139091 
L 202.636381 627.139091 
L 205.458309 627.139091 
L 208.280237 627.139091 
L 211.102165 627.139091 
L 213.924093 627.139091 
L 216.746021 627.139091 
L 219.567949 627.139091 
L 222.389877 627.139091 
L 225.211804 627.139091 
L 228.033732 627.139091 
L 230.85566 627.139091 
L 233.677588 627.139091 
L 236.499516 627.139091 
L 239.321444 627.139091 
L 242.143372 627.139091 
L 244.9653 627.139091 
L 247.787228 627.139091 
L 250.609156 627.139091 
L 253.431084 627.139091 
L 256.253012 627.139091 
L 259.07494 627.139091 
L 261.896868 627.139091 
L 264.718795 627.139091 
L 267.540723 627.139091 
L 270.362651 627.139091 
L 273.184579 627.139091 
L 276.006507 627.139091 
L 278.828435 627.139091 
L 281.650363 627.139091 
L 284.472291 627.139091 
L 287.294219 627.139091 
L 290.116147 627.139091 
L 292.938075 627.139091 
L 295.760003 627.139091 
L 298.581931 627.139091 
L 301.403859 627.139091 
L 304.225786 627.139091 
L 307.047714 627.139091 
L 309.869642 627.139091 
L 312.69157 627.139091 
L 315.513498 627.139091 
L 318.335426 627.139091 
L 321.157354 627.139091 
L 323.979282 627.139091 
L 326.80121 627.139091 
L 329.623138 627.139091 
L 332.445066 627.139091 
L 335.266994 627.139091 
L 338.088922 627.139091 
L 340.910849 627.139091 
L 343.732777 627.139091 
L 346.554705 627.139091 
L 349.376633 627.139091 
L 352.198561 627.139091 
L 355.020489 627.139091 
L 357.842417 627.139091 
L 360.664345 627.139091 
L 363.486273 627.139091 
L 366.308201 627.139091 
L 369.130129 627.139091 
L 371.952057 627.139091 
L 374.773985 627.139091 
L 377.595913 627.139091 
L 380.41784 627.139091 
L 383.239768 627.139091 
L 386.061696 627.139091 
L 388.883624 627.139091 
L 391.705552 627.139091 
L 394.52748 627.139091 
L 397.349408 627.139091 
" clip-path="url(#p822e657f35)" style="fill: none; stroke-dasharray: 7.4,3.2; stroke-dashoffset: 0; stroke: #ffc640; stroke-width: 2"/>
   </g>
   <g id="patch_15">
    <path d="M 104.01 638.58 
L 104.01 386.88 
" style="fill: none; stroke: #9d9d9d; stroke-width: 0.6; stroke-linejoin: miter; stroke-linecap: square"/>
   </g>
   <g id="patch_16">
    <path d="M 411.317951 638.58 
L 411.317951 386.88 
" style="fill: none; stroke: #9d9d9d; stroke-width: 0.6; stroke-linejoin: miter; stroke-linecap: square"/>
   </g>
   <g id="patch_17">
    <path d="M 104.01 638.58 
L 411.317951 638.58 
" style="fill: none; stroke: #9d9d9d; stroke-width: 0.6; stroke-linejoin: miter; stroke-linecap: square"/>
   </g>
   <g id="patch_18">
    <path d="M 104.01 386.88 
L 411.317951 386.88 
" style="fill: none; stroke: #9d9d9d; stroke-width: 0.6; stroke-linejoin: miter; stroke-linecap: square"/>
   </g>
   <g id="legend_3">
    <g id="patch_19">
     <path d="M 282.724514 547.149688 
L 395.917951 547.149688 
Q 400.317951 547.149688 400.317951 542.749688 
L 400.317951 482.710312 
Q 400.317951 478.310313 395.917951 478.310313 
L 282.724514 478.310313 
Q 278.324514 478.310313 278.324514 482.710312 
L 278.324514 542.749688 
Q 278.324514 547.149688 282.724514 547.149688 
z
" style="fill: #ffffff; opacity: 0.8; stroke: #cccccc; stroke-width: 0.8; stroke-linejoin: miter"/>
    </g>
    <g id="line2d_34">
     <path d="M 287.124514 495.1575 
L 309.124514 495.1575 
L 331.124514 495.1575 
" style="fill: none; stroke: #0c2e8a; stroke-width: 2; stroke-linecap: round"/>
    </g>
    <g id="text_35">
     <!-- train -->
     <g style="fill: #262626" transform="translate(348.724514 502.8575) scale(0.22 -0.22)">
      <use xlink:href="#ArialMT-74"/>
      <use xlink:href="#ArialMT-72" x="27.783203"/>
      <use xlink:href="#ArialMT-61" x="61.083984"/>
      <use xlink:href="#ArialMT-69" x="116.699219"/>
      <use xlink:href="#ArialMT-6e" x="138.916016"/>
     </g>
    </g>
    <g id="line2d_35">
     <path d="M 287.124514 526.277187 
L 309.124514 526.277187 
L 331.124514 526.277187 
" style="fill: none; stroke-dasharray: 7.4,3.2; stroke-dashoffset: 0; stroke: #ffc640; stroke-width: 2"/>
    </g>
    <g id="text_36">
     <!-- val -->
     <g style="fill: #262626" transform="translate(348.724514 533.977188) scale(0.22 -0.22)">
      <use xlink:href="#ArialMT-76"/>
      <use xlink:href="#ArialMT-61" x="50"/>
      <use xlink:href="#ArialMT-6c" x="105.615234"/>
     </g>
    </g>
   </g>
  </g>
  <g id="axes_4">
   <g id="patch_20">
    <path d="M 509.352049 638.58 
L 816.66 638.58 
L 816.66 386.88 
L 509.352049 386.88 
z
" style="fill: #ffffff"/>
   </g>
   <g id="matplotlib.axis_7">
    <g id="xtick_10">
     <g id="line2d_36">
      <g>
       <use xlink:href="#m50a6679274" x="523.320592" y="638.58" style="fill: #262626; stroke: #262626"/>
      </g>
     </g>
     <g id="text_37">
      <!-- 0 -->
      <g style="fill: #262626" transform="translate(517.203561 662.627187) scale(0.22 -0.22)">
       <use xlink:href="#ArialMT-30"/>
      </g>
     </g>
    </g>
    <g id="xtick_11">
     <g id="line2d_37">
      <g>
       <use xlink:href="#m50a6679274" x="664.416988" y="638.58" style="fill: #262626; stroke: #262626"/>
      </g>
     </g>
     <g id="text_38">
      <!-- 50 -->
      <g style="fill: #262626" transform="translate(652.182926 662.627187) scale(0.22 -0.22)">
       <use xlink:href="#ArialMT-35"/>
       <use xlink:href="#ArialMT-30" x="55.615234"/>
      </g>
     </g>
    </g>
    <g id="xtick_12">
     <g id="line2d_38">
      <g>
       <use xlink:href="#m50a6679274" x="805.513385" y="638.58" style="fill: #262626; stroke: #262626"/>
      </g>
     </g>
     <g id="text_39">
      <!-- 100 -->
      <g style="fill: #262626" transform="translate(787.162291 662.627187) scale(0.22 -0.22)">
       <use xlink:href="#ArialMT-31"/>
       <use xlink:href="#ArialMT-30" x="55.615234"/>
       <use xlink:href="#ArialMT-30" x="111.230469"/>
      </g>
     </g>
    </g>
    <g id="text_40">
     <!-- Epoch -->
     <g style="fill: #262626" transform="translate(628.982274 688.178437) scale(0.24 -0.24)">
      <use xlink:href="#ArialMT-45"/>
      <use xlink:href="#ArialMT-70" x="66.699219"/>
      <use xlink:href="#ArialMT-6f" x="122.314453"/>
      <use xlink:href="#ArialMT-63" x="177.929688"/>
      <use xlink:href="#ArialMT-68" x="227.929688"/>
     </g>
    </g>
   </g>
   <g id="matplotlib.axis_8">
    <g id="ytick_15">
     <g id="line2d_39">
      <g>
       <use xlink:href="#m0cc0b178fa" x="509.352049" y="588.507431" style="fill: #262626; stroke: #262626"/>
      </g>
     </g>
     <g id="text_41">
      <!-- 0.8 -->
      <g style="fill: #262626" transform="translate(470.472049 596.381025) scale(0.22 -0.22)">
       <defs>
        <path id="ArialMT-38" d="M 1131 2484 
Q 781 2613 612 2850 
Q 444 3088 444 3419 
Q 444 3919 803 4259 
Q 1163 4600 1759 4600 
Q 2359 4600 2725 4251 
Q 3091 3903 3091 3403 
Q 3091 3084 2923 2848 
Q 2756 2613 2416 2484 
Q 2838 2347 3058 2040 
Q 3278 1734 3278 1309 
Q 3278 722 2862 322 
Q 2447 -78 1769 -78 
Q 1091 -78 675 323 
Q 259 725 259 1325 
Q 259 1772 486 2073 
Q 713 2375 1131 2484 
z
M 1019 3438 
Q 1019 3113 1228 2906 
Q 1438 2700 1772 2700 
Q 2097 2700 2305 2904 
Q 2513 3109 2513 3406 
Q 2513 3716 2298 3927 
Q 2084 4138 1766 4138 
Q 1444 4138 1231 3931 
Q 1019 3725 1019 3438 
z
M 838 1322 
Q 838 1081 952 856 
Q 1066 631 1291 507 
Q 1516 384 1775 384 
Q 2178 384 2440 643 
Q 2703 903 2703 1303 
Q 2703 1709 2433 1975 
Q 2163 2241 1756 2241 
Q 1359 2241 1098 1978 
Q 838 1716 838 1322 
z
" transform="scale(0.015625)"/>
       </defs>
       <use xlink:href="#ArialMT-30"/>
       <use xlink:href="#ArialMT-2e" x="55.615234"/>
       <use xlink:href="#ArialMT-38" x="83.398438"/>
      </g>
     </g>
    </g>
    <g id="ytick_16">
     <g id="line2d_40">
      <g>
       <use xlink:href="#m0cc0b178fa" x="509.352049" y="493.41417" style="fill: #262626; stroke: #262626"/>
      </g>
     </g>
     <g id="text_42">
      <!-- 0.9 -->
      <g style="fill: #262626" transform="translate(470.472049 501.287764) scale(0.22 -0.22)">
       <defs>
        <path id="ArialMT-39" d="M 350 1059 
L 891 1109 
Q 959 728 1153 556 
Q 1347 384 1650 384 
Q 1909 384 2104 503 
Q 2300 622 2425 820 
Q 2550 1019 2634 1356 
Q 2719 1694 2719 2044 
Q 2719 2081 2716 2156 
Q 2547 1888 2255 1720 
Q 1963 1553 1622 1553 
Q 1053 1553 659 1965 
Q 266 2378 266 3053 
Q 266 3750 677 4175 
Q 1088 4600 1706 4600 
Q 2153 4600 2523 4359 
Q 2894 4119 3086 3673 
Q 3278 3228 3278 2384 
Q 3278 1506 3087 986 
Q 2897 466 2520 194 
Q 2144 -78 1638 -78 
Q 1100 -78 759 220 
Q 419 519 350 1059 
z
M 2653 3081 
Q 2653 3566 2395 3850 
Q 2138 4134 1775 4134 
Q 1400 4134 1122 3828 
Q 844 3522 844 3034 
Q 844 2597 1108 2323 
Q 1372 2050 1759 2050 
Q 2150 2050 2401 2323 
Q 2653 2597 2653 3081 
z
" transform="scale(0.015625)"/>
       </defs>
       <use xlink:href="#ArialMT-30"/>
       <use xlink:href="#ArialMT-2e" x="55.615234"/>
       <use xlink:href="#ArialMT-39" x="83.398438"/>
      </g>
     </g>
    </g>
    <g id="ytick_17">
     <g id="line2d_41">
      <g>
       <use xlink:href="#m0cc0b178fa" x="509.352049" y="398.320909" style="fill: #262626; stroke: #262626"/>
      </g>
     </g>
     <g id="text_43">
      <!-- 1.0 -->
      <g style="fill: #262626" transform="translate(470.472049 406.194503) scale(0.22 -0.22)">
       <use xlink:href="#ArialMT-31"/>
       <use xlink:href="#ArialMT-2e" x="55.615234"/>
       <use xlink:href="#ArialMT-30" x="83.398438"/>
      </g>
     </g>
    </g>
    <g id="text_44">
     <!-- Recall -->
     <g style="fill: #262626" transform="translate(461.702049 546.075) rotate(-90) scale(0.24 -0.24)">
      <defs>
       <path id="ArialMT-52" d="M 503 0 
L 503 4581 
L 2534 4581 
Q 3147 4581 3465 4457 
Q 3784 4334 3975 4021 
Q 4166 3709 4166 3331 
Q 4166 2844 3850 2509 
Q 3534 2175 2875 2084 
Q 3116 1969 3241 1856 
Q 3506 1613 3744 1247 
L 4541 0 
L 3778 0 
L 3172 953 
Q 2906 1366 2734 1584 
Q 2563 1803 2427 1890 
Q 2291 1978 2150 2013 
Q 2047 2034 1813 2034 
L 1109 2034 
L 1109 0 
L 503 0 
z
M 1109 2559 
L 2413 2559 
Q 2828 2559 3062 2645 
Q 3297 2731 3419 2920 
Q 3541 3109 3541 3331 
Q 3541 3656 3305 3865 
Q 3069 4075 2559 4075 
L 1109 4075 
L 1109 2559 
z
" transform="scale(0.015625)"/>
      </defs>
      <use xlink:href="#ArialMT-52"/>
      <use xlink:href="#ArialMT-65" x="72.216797"/>
      <use xlink:href="#ArialMT-63" x="127.832031"/>
      <use xlink:href="#ArialMT-61" x="177.832031"/>
      <use xlink:href="#ArialMT-6c" x="233.447266"/>
      <use xlink:href="#ArialMT-6c" x="255.664062"/>
     </g>
    </g>
   </g>
   <g id="line2d_42">
    <path d="M 523.320592 627.139091 
L 526.14252 413.179231 
L 528.964448 398.320909 
L 531.786376 398.320909 
L 534.608304 398.320909 
L 537.430232 398.320909 
L 540.25216 398.320909 
L 543.074087 398.320909 
L 545.896015 398.320909 
L 548.717943 398.320909 
L 551.539871 398.320909 
L 554.361799 398.320909 
L 557.183727 398.320909 
L 560.005655 398.320909 
L 562.827583 398.320909 
L 565.649511 398.320909 
L 568.471439 398.320909 
L 571.293367 398.320909 
L 574.115295 398.320909 
L 576.937223 398.320909 
L 579.759151 398.320909 
L 582.581078 398.320909 
L 585.403006 398.320909 
L 588.224934 398.320909 
L 591.046862 398.320909 
L 593.86879 398.320909 
L 596.690718 398.320909 
L 599.512646 398.320909 
L 602.334574 398.320909 
L 605.156502 398.320909 
L 607.97843 398.320909 
L 610.800358 398.320909 
L 613.622286 398.320909 
L 616.444214 398.320909 
L 619.266141 398.320909 
L 622.088069 398.320909 
L 624.909997 398.320909 
L 627.731925 398.320909 
L 630.553853 398.320909 
L 633.375781 398.320909 
L 636.197709 398.320909 
L 639.019637 398.320909 
L 641.841565 398.320909 
L 644.663493 398.320909 
L 647.485421 398.320909 
L 650.307349 398.320909 
L 653.129277 398.320909 
L 655.951205 398.320909 
L 658.773132 398.320909 
L 661.59506 398.320909 
L 664.416988 398.320909 
L 667.238916 398.320909 
L 670.060844 398.320909 
L 672.882772 398.320909 
L 675.7047 398.320909 
L 678.526628 398.320909 
L 681.348556 398.320909 
L 684.170484 398.320909 
L 686.992412 398.320909 
L 689.81434 398.320909 
L 692.636268 398.320909 
L 695.458196 398.320909 
L 698.280123 398.320909 
L 701.102051 398.320909 
L 703.923979 398.320909 
L 706.745907 398.320909 
L 709.567835 398.320909 
L 712.389763 398.320909 
L 715.211691 398.320909 
L 718.033619 398.320909 
L 720.855547 398.320909 
L 723.677475 398.320909 
L 726.499403 398.320909 
L 729.321331 398.320909 
L 732.143259 398.320909 
L 734.965187 398.320909 
L 737.787114 398.320909 
L 740.609042 398.320909 
L 743.43097 398.320909 
L 746.252898 398.320909 
L 749.074826 398.320909 
L 751.896754 398.320909 
L 754.718682 398.320909 
L 757.54061 398.320909 
L 760.362538 398.320909 
L 763.184466 398.320909 
L 766.006394 398.320909 
L 768.828322 398.320909 
L 771.65025 398.320909 
L 774.472177 398.320909 
L 777.294105 398.320909 
L 780.116033 398.320909 
L 782.937961 398.320909 
L 785.759889 398.320909 
L 788.581817 398.320909 
L 791.403745 398.320909 
L 794.225673 398.320909 
L 797.047601 398.320909 
L 799.869529 398.320909 
L 802.691457 398.320909 
" clip-path="url(#p88dcc940fc)" style="fill: none; stroke: #0c2e8a; stroke-width: 2; stroke-linecap: round"/>
   </g>
   <g id="line2d_43">
    <path d="M 523.320592 451.150524 
L 526.14252 398.320909 
L 528.964448 398.320909 
L 531.786376 398.320909 
L 534.608304 398.320909 
L 537.430232 398.320909 
L 540.25216 398.320909 
L 543.074087 398.320909 
L 545.896015 398.320909 
L 548.717943 398.320909 
L 551.539871 398.320909 
L 554.361799 398.320909 
L 557.183727 398.320909 
L 560.005655 398.320909 
L 562.827583 398.320909 
L 565.649511 398.320909 
L 568.471439 398.320909 
L 571.293367 398.320909 
L 574.115295 398.320909 
L 576.937223 398.320909 
L 579.759151 398.320909 
L 582.581078 398.320909 
L 585.403006 398.320909 
L 588.224934 398.320909 
L 591.046862 398.320909 
L 593.86879 398.320909 
L 596.690718 398.320909 
L 599.512646 398.320909 
L 602.334574 398.320909 
L 605.156502 398.320909 
L 607.97843 398.320909 
L 610.800358 398.320909 
L 613.622286 398.320909 
L 616.444214 398.320909 
L 619.266141 398.320909 
L 622.088069 398.320909 
L 624.909997 398.320909 
L 627.731925 398.320909 
L 630.553853 398.320909 
L 633.375781 398.320909 
L 636.197709 398.320909 
L 639.019637 398.320909 
L 641.841565 398.320909 
L 644.663493 398.320909 
L 647.485421 398.320909 
L 650.307349 398.320909 
L 653.129277 398.320909 
L 655.951205 398.320909 
L 658.773132 398.320909 
L 661.59506 398.320909 
L 664.416988 398.320909 
L 667.238916 398.320909 
L 670.060844 398.320909 
L 672.882772 398.320909 
L 675.7047 398.320909 
L 678.526628 398.320909 
L 681.348556 398.320909 
L 684.170484 398.320909 
L 686.992412 398.320909 
L 689.81434 398.320909 
L 692.636268 398.320909 
L 695.458196 398.320909 
L 698.280123 398.320909 
L 701.102051 398.320909 
L 703.923979 398.320909 
L 706.745907 398.320909 
L 709.567835 398.320909 
L 712.389763 398.320909 
L 715.211691 398.320909 
L 718.033619 398.320909 
L 720.855547 398.320909 
L 723.677475 398.320909 
L 726.499403 398.320909 
L 729.321331 398.320909 
L 732.143259 398.320909 
L 734.965187 398.320909 
L 737.787114 398.320909 
L 740.609042 398.320909 
L 743.43097 398.320909 
L 746.252898 398.320909 
L 749.074826 398.320909 
L 751.896754 398.320909 
L 754.718682 398.320909 
L 757.54061 398.320909 
L 760.362538 398.320909 
L 763.184466 398.320909 
L 766.006394 398.320909 
L 768.828322 398.320909 
L 771.65025 398.320909 
L 774.472177 398.320909 
L 777.294105 398.320909 
L 780.116033 398.320909 
L 782.937961 398.320909 
L 785.759889 398.320909 
L 788.581817 398.320909 
L 791.403745 398.320909 
L 794.225673 398.320909 
L 797.047601 398.320909 
L 799.869529 398.320909 
L 802.691457 398.320909 
" clip-path="url(#p88dcc940fc)" style="fill: none; stroke-dasharray: 7.4,3.2; stroke-dashoffset: 0; stroke: #ffc640; stroke-width: 2"/>
   </g>
   <g id="patch_21">
    <path d="M 509.352049 638.58 
L 509.352049 386.88 
" style="fill: none; stroke: #9d9d9d; stroke-width: 0.6; stroke-linejoin: miter; stroke-linecap: square"/>
   </g>
   <g id="patch_22">
    <path d="M 816.66 638.58 
L 816.66 386.88 
" style="fill: none; stroke: #9d9d9d; stroke-width: 0.6; stroke-linejoin: miter; stroke-linecap: square"/>
   </g>
   <g id="patch_23">
    <path d="M 509.352049 638.58 
L 816.66 638.58 
" style="fill: none; stroke: #9d9d9d; stroke-width: 0.6; stroke-linejoin: miter; stroke-linecap: square"/>
   </g>
   <g id="patch_24">
    <path d="M 509.352049 386.88 
L 816.66 386.88 
" style="fill: none; stroke: #9d9d9d; stroke-width: 0.6; stroke-linejoin: miter; stroke-linecap: square"/>
   </g>
   <g id="legend_4">
    <g id="patch_25">
     <path d="M 688.066562 627.58 
L 801.26 627.58 
Q 805.66 627.58 805.66 623.18 
L 805.66 563.140625 
Q 805.66 558.740625 801.26 558.740625 
L 688.066562 558.740625 
Q 683.666562 558.740625 683.666562 563.140625 
L 683.666562 623.18 
Q 683.666562 627.58 688.066562 627.58 
z
" style="fill: #ffffff; opacity: 0.8; stroke: #cccccc; stroke-width: 0.8; stroke-linejoin: miter"/>
    </g>
    <g id="line2d_44">
     <path d="M 692.466562 575.587812 
L 714.466562 575.587812 
L 736.466562 575.587812 
" style="fill: none; stroke: #0c2e8a; stroke-width: 2; stroke-linecap: round"/>
    </g>
    <g id="text_45">
     <!-- train -->
     <g style="fill: #262626" transform="translate(754.066562 583.287812) scale(0.22 -0.22)">
      <use xlink:href="#ArialMT-74"/>
      <use xlink:href="#ArialMT-72" x="27.783203"/>
      <use xlink:href="#ArialMT-61" x="61.083984"/>
      <use xlink:href="#ArialMT-69" x="116.699219"/>
      <use xlink:href="#ArialMT-6e" x="138.916016"/>
     </g>
    </g>
    <g id="line2d_45">
     <path d="M 692.466562 606.7075 
L 714.466562 606.7075 
L 736.466562 606.7075 
" style="fill: none; stroke-dasharray: 7.4,3.2; stroke-dashoffset: 0; stroke: #ffc640; stroke-width: 2"/>
    </g>
    <g id="text_46">
     <!-- val -->
     <g style="fill: #262626" transform="translate(754.066562 614.4075) scale(0.22 -0.22)">
      <use xlink:href="#ArialMT-76"/>
      <use xlink:href="#ArialMT-61" x="50"/>
      <use xlink:href="#ArialMT-6c" x="105.615234"/>
     </g>
    </g>
   </g>
  </g>
 </g>
 <defs>
  <clipPath id="pf6751cf471">
   <rect x="104.01" y="45.48" width="307.307951" height="251.7"/>
  </clipPath>
  <clipPath id="p983ee5f2e6">
   <rect x="509.352049" y="45.48" width="307.307951" height="251.7"/>
  </clipPath>
  <clipPath id="p822e657f35">
   <rect x="104.01" y="386.88" width="307.307951" height="251.7"/>
  </clipPath>
  <clipPath id="p88dcc940fc">
   <rect x="509.352049" y="386.88" width="307.307951" height="251.7"/>
  </clipPath>
 </defs>
</svg>
